<svg width="645" height="417" viewBox="0 0 645 417" fill="none" xmlns="http://www.w3.org/2000/svg">
<mask id="mask0_2706_123" style="mask-type:alpha" maskUnits="userSpaceOnUse" x="0" y="0" width="645" height="417">
<rect width="645" height="417" fill="white"/>
</mask>
<g mask="url(#mask0_2706_123)">
<path d="M472.997 -106.043L499.039 -120.999V-159.349L472.326 -173.397L442.563 -156.213L442.068 -188.714L416.923 -203.804L388.685 -185.661V-157.079L362.323 -173.469L332.291 -154.645H332.085L331.683 -123.124L361.107 -107.621L331.106 -88.4571V-56.998L332.745 -55.5333C334.601 -53.883 352.766 -42.3101 358.282 -38.8032L388.685 -56.5338V-27.1066L416.871 -9.0253L444.295 -25.2603L445.058 -55.1517L476.007 -39.7831L501.647 -54.3884V-88.5087L472.986 -106.043H472.997ZM493.863 -125.156L466.976 -109.726L447.388 -121.711L493.853 -149.54V-125.156H493.863ZM438.191 -145.383L472.543 -166.29L492.77 -155.656L441.439 -125.352L439.841 -124.413L420.036 -112.552V-168.137L437.315 -178.616L438.191 -145.393V-145.383ZM361.168 -166.218L388.685 -149.735V-127.611L342.869 -154.748L361.158 -166.208L361.168 -166.218ZM337.889 -59.3909V-84.2901L358.055 -71.9127L358.22 -46.1471C349.611 -51.6447 340.931 -57.2661 337.889 -59.3909ZM342.756 -88.5603L373.406 -108.127L337.91 -126.827L338.219 -150.973L390.231 -119.566L394.778 -116.822L394.86 -116.77L411.067 -107.168L361.138 -77.2659L342.756 -88.55V-88.5603ZM413.85 -18.3083L394.86 -30.4794V-60.1336L413.85 -71.201V-18.298V-18.3083ZM413.85 -78.3489L363.952 -48.6329L364.199 -71.9024L413.85 -101.629V-78.3489ZM413.85 -112.717L394.86 -123.96V-181.38L413.85 -168.229V-112.717ZM399.056 -185.547L416.964 -196.574L436.088 -185.094L416.985 -173.51L399.056 -185.547ZM417.119 -107.188L417.057 -107.291H417.18L417.119 -107.188ZM469.862 -48.6535L439.15 -65.4249L438.212 -28.8394L420.036 -18.0814V-101.866L470.584 -71.9333L469.862 -48.6638V-48.6535ZM473.656 -77.2866L423.15 -107.199L441.429 -118.142L491.069 -88.4159L473.646 -77.2866H473.656ZM495.471 -57.9778L476.182 -46.9826L476.77 -72.0159L495.471 -84.4035V-57.9675V-57.9778Z" fill="#FE0000"/>
<path d="M417.057 -107.291L417.119 -107.188L417.18 -107.291H417.057ZM441.439 -125.362L440.15 -124.589L441.449 -125.352L441.439 -125.362Z" fill="#FE0000"/>
<path d="M417.18 -107.291L417.119 -107.188L417.057 -107.291H417.18Z" fill="#FE0000"/>
<path d="M394.778 -116.822L390.211 -119.524L390.231 -119.566L394.778 -116.822Z" fill="#FE0000"/>
<path d="M417.18 -107.291L417.119 -107.188L417.057 -107.291H417.18Z" fill="#FE0000"/>
<path d="M417.18 -107.291L417.119 -107.188L417.057 -107.291H417.18Z" fill="#FE0000"/>
<path d="M-37.3385 -106.91L-11.4923 -121.752V-159.823L-38.0086 -173.758L-67.5559 -156.708L-68.0508 -188.972L-92.9999 -203.948L-121.032 -185.939V-157.564L-147.197 -173.83L-177.003 -155.151H-177.209L-177.611 -123.867L-148.404 -108.478L-178.188 -89.4473V-58.2254L-176.559 -56.771C-174.714 -55.131 -156.693 -43.6407 -151.218 -40.1647L-121.032 -57.7612V-28.5506L-93.0515 -10.6034L-65.8342 -26.7146L-65.0713 -56.3791L-34.3487 -41.124L-8.89432 -55.6261V-89.4989L-37.3488 -106.91H-37.3385ZM-16.6265 -125.888L-43.3077 -110.571L-62.7516 -122.474L-16.6265 -150.097V-125.888ZM-71.8859 -145.96L-37.7818 -166.713L-17.709 -156.161L-68.659 -126.084L-69.9477 -125.321L-70.2467 -125.146L-89.9071 -113.367V-168.539L-72.7519 -178.946L-71.8859 -145.96ZM-148.342 -166.641L-121.032 -150.282V-128.323L-166.507 -155.254L-148.352 -166.631L-148.342 -166.641ZM-171.446 -60.6183V-85.3318L-151.435 -73.0473L-151.27 -47.4777C-159.816 -52.9341 -168.435 -58.5142 -171.456 -60.6183H-171.446ZM-166.61 -89.5608L-136.187 -108.983L-171.415 -127.549L-171.105 -151.52L-114.97 -117.616L-114.887 -117.565L-98.8043 -108.034L-148.362 -78.3593L-166.61 -89.5608ZM-96.0413 -19.8349L-114.887 -31.9131V-61.3507L-96.0413 -72.3356V-19.8246V-19.8349ZM-96.0413 -79.4217L-145.569 -49.9222L-145.321 -73.0267L-96.0413 -102.536V-79.4217ZM-96.0413 -113.532L-114.887 -124.682V-181.69L-96.0413 -168.632V-113.532ZM-110.732 -185.826L-92.9587 -196.77L-73.9788 -185.372L-92.9381 -173.882L-110.732 -185.826ZM-92.8041 -108.044L-92.8659 -108.147H-92.7422L-92.8041 -108.044ZM-40.452 -49.9532L-70.9374 -66.6007L-71.8653 -30.2834L-89.9071 -19.608V-102.774L-39.7303 -73.0576L-40.4417 -49.9532H-40.452ZM-36.6786 -78.3696L-86.8039 -108.065L-68.659 -118.926L-19.3792 -89.4164L-36.6684 -78.3696H-36.6786ZM-15.0285 -59.2053L-34.1734 -48.2925L-33.5858 -73.1401L-15.0182 -85.435V-59.1949L-15.0285 -59.2053Z" fill="#FE0000"/>
<path d="M-92.8659 -108.147L-92.8041 -108.044L-92.7422 -108.147H-92.8659ZM-68.6693 -126.084L-69.9477 -125.321L-68.659 -126.084H-68.6693Z" fill="#FE0000"/>
<path d="M-92.7422 -108.147L-92.8041 -108.044L-92.8659 -108.147H-92.7422Z" fill="#FE0000"/>
<path d="M-114.98 -117.616L-119.516 -120.298L-119.496 -120.339L-114.98 -117.616Z" fill="#FE0000"/>
<path d="M-92.7422 -108.147L-92.8041 -108.044L-92.8659 -108.147H-92.7422Z" fill="#FE0000"/>
<path d="M-92.7422 -108.147L-92.8041 -108.044L-92.8659 -108.147H-92.7422Z" fill="#FE0000"/>
<path d="M-207.88 -106.043L-181.961 -120.927V-159.091L-208.55 -173.067L-238.169 -155.965L-238.664 -188.312L-263.686 -203.319L-291.779 -185.269V-156.822L-318.007 -173.129L-347.884 -154.398H-348.09L-348.492 -123.031L-319.213 -107.601L-349.07 -88.5293V-57.2249L-347.441 -55.7705C-345.595 -54.1202 -327.523 -42.6093 -322.038 -39.123L-291.779 -56.771V-27.4882L-263.727 -9.49976L-236.437 -25.6522L-235.674 -55.3992L-204.88 -40.1028L-179.363 -54.6359V-88.5912L-207.88 -106.043ZM-187.116 -125.063L-213.87 -109.715L-233.355 -121.649L-187.116 -149.333V-125.063ZM-242.52 -145.197L-208.333 -166.001L-188.209 -155.419L-239.283 -125.259L-240.571 -124.496L-240.87 -124.321L-260.582 -112.511V-167.827L-243.386 -178.255L-242.52 -145.187V-145.197ZM-319.161 -165.919L-291.779 -149.519V-127.508L-337.368 -154.511L-319.161 -165.919ZM-342.327 -59.6282V-84.4035L-322.265 -72.0881L-322.1 -46.4566C-330.667 -51.9232 -339.306 -57.524 -342.337 -59.6282H-342.327ZM-337.482 -88.6428L-306.986 -108.117L-342.306 -126.734L-341.997 -150.757L-290.243 -119.504L-285.717 -116.77L-285.635 -116.719L-269.51 -107.168L-319.192 -77.4206L-337.492 -88.6531L-337.482 -88.6428ZM-266.737 -18.7415L-285.635 -30.8508V-60.3605L-266.737 -71.3764V-18.7415ZM-266.737 -78.483L-316.388 -48.9114L-316.141 -72.0674L-266.737 -101.649V-78.483ZM-266.737 -112.686L-285.635 -123.867V-181.009L-266.737 -167.92V-112.686ZM-281.459 -185.155L-263.644 -196.12L-244.613 -184.702L-263.624 -173.18L-281.459 -185.155ZM-263.49 -107.178L-263.552 -107.281H-263.428L-263.49 -107.178ZM-210.993 -48.932L-241.561 -65.6209L-242.489 -29.2107L-260.582 -18.5043V-101.876L-210.282 -72.0881L-210.993 -48.932ZM-207.22 -77.431L-257.469 -107.199L-239.283 -118.091L-189.879 -88.5087L-207.21 -77.431H-207.22ZM-185.518 -58.2151L-204.715 -47.2817L-204.127 -72.1912L-185.518 -84.517V-58.2151Z" fill="#FE0000"/>
<path d="M-263.552 -107.281L-263.49 -107.178L-263.428 -107.281H-263.552ZM-239.293 -125.259L-240.582 -124.486L-239.293 -125.249V-125.259Z" fill="#FE0000"/>
<path d="M-263.428 -107.281L-263.49 -107.178L-263.552 -107.281H-263.428Z" fill="#FE0000"/>
<path d="M-285.717 -116.77L-290.264 -119.462L-290.243 -119.504L-285.717 -116.77Z" fill="#FE0000"/>
<path d="M-263.428 -107.281L-263.49 -107.178L-263.552 -107.281H-263.428Z" fill="#FE0000"/>
<path d="M-263.428 -107.281L-263.49 -107.178L-263.552 -107.281H-263.428Z" fill="#FE0000"/>
<path d="M301.796 -106.043L327.889 -121.03V-159.462L301.115 -173.531L271.289 -156.316L270.795 -188.879L245.608 -204L217.319 -185.826V-157.183L190.906 -173.603L160.812 -154.748H160.606L160.204 -123.165L189.689 -107.632L159.626 -88.4262V-56.9051L161.266 -55.4405C163.121 -53.7798 181.328 -42.1864 186.854 -38.6691L217.319 -56.441V-26.9519L245.567 -8.83963L273.052 -25.1056L273.815 -55.0588L304.827 -39.649L330.518 -54.2853V-88.4778L301.796 -106.054V-106.043ZM322.714 -125.197L295.775 -109.736L276.156 -121.752L322.724 -149.632V-125.197H322.714ZM266.929 -145.465L301.352 -166.414L321.621 -155.759L270.186 -125.393L268.588 -124.455L248.742 -112.562V-168.26L266.062 -178.76L266.939 -145.465H266.929ZM189.741 -166.332L217.319 -149.818V-127.652L171.41 -154.841L189.741 -166.332ZM166.42 -59.2981V-84.2488L186.627 -71.8508L186.802 -46.0337C178.184 -51.5416 169.482 -57.1836 166.431 -59.2981H166.42ZM171.297 -88.519L202.009 -108.127L166.441 -126.868L166.75 -151.066L223.422 -116.832L223.505 -116.781L239.742 -107.157L189.71 -77.204L171.286 -88.5087L171.297 -88.519ZM242.536 -18.1227L223.505 -30.3247V-60.0407L242.536 -71.1288V-18.1227ZM242.536 -78.2871L192.534 -48.5091L192.782 -71.8302L242.536 -101.618V-78.2871ZM242.536 -112.727L223.505 -123.991V-181.535L242.536 -168.353V-112.727ZM227.711 -185.702L245.66 -196.749L264.815 -185.248L245.67 -173.644L227.711 -185.702ZM245.804 -107.188L245.742 -107.291H245.866L245.804 -107.188ZM298.661 -48.5298L267.877 -65.3321L266.939 -28.6641L248.722 -17.8854V-101.845L299.373 -71.8508L298.651 -48.5298H298.661ZM302.466 -77.2247L251.856 -107.199L270.176 -118.163L319.92 -88.3746L302.466 -77.2247ZM324.332 -57.8747L305.002 -46.8588L305.589 -71.9436L324.332 -84.3623V-57.8747Z" fill="#FE0000"/>
<path d="M245.742 -107.291L245.804 -107.188L245.866 -107.291H245.742ZM270.176 -125.393L268.887 -124.62L270.186 -125.383L270.176 -125.393Z" fill="#FE0000"/>
<path d="M245.866 -107.291L245.804 -107.188L245.742 -107.291H245.866Z" fill="#FE0000"/>
<path d="M223.422 -116.843L218.845 -119.555L218.865 -119.597L223.422 -116.843Z" fill="#FE0000"/>
<path d="M245.866 -107.291L245.804 -107.188L245.742 -107.291H245.866Z" fill="#FE0000"/>
<path d="M245.866 -107.291L245.804 -107.188L245.742 -107.291H245.866Z" fill="#FE0000"/>
<path d="M131.543 -106.043L157.276 -120.814V-158.699L130.883 -172.572L101.48 -155.594L100.996 -187.703L76.1598 -202.608L48.2621 -184.681V-156.44L22.22 -172.623L-7.45099 -154.026H-7.65717L-8.04892 -122.887L21.0241 -107.57L-8.61597 -88.6325V-57.5549L-6.99734 -56.1109C-5.16226 -54.4812 12.7764 -43.0425 18.2302 -39.5768L48.2724 -57.0908V-28.0246L76.1186 -10.1599L103.212 -26.1989L103.965 -55.7293L134.543 -40.5464L159.874 -54.9763V-88.6841L131.553 -106.012L131.543 -106.043ZM152.152 -124.929L125.594 -109.684L106.243 -121.525L152.152 -149.013V-124.919V-124.929ZM97.1605 -144.908L131.1 -165.568L151.08 -155.058L100.367 -125.115L99.0884 -124.362L98.7894 -124.187L79.2217 -112.469V-167.384L96.2944 -177.739L97.1605 -144.908ZM21.0654 -165.496L48.2517 -149.22V-127.363L2.99265 -154.171L21.0654 -165.496ZM-1.93533 -59.9685V-84.5686L17.9828 -72.3459L18.1478 -46.9001C9.64233 -52.3255 1.06476 -57.885 -1.93533 -59.9788V-59.9685ZM2.87924 -88.7769L33.1585 -108.106L-1.90442 -126.59L-1.59512 -150.447L54.2829 -116.698L54.3654 -116.647L70.3762 -107.168L21.0447 -77.6269L2.87924 -88.7769ZM73.1185 -19.3707L54.355 -31.3974V-60.7009L73.1185 -71.6342V-19.3707ZM73.1185 -78.6893L23.818 -49.3343L24.0655 -72.3253L73.1185 -101.691V-78.6893ZM73.1185 -112.634L54.355 -123.733V-180.473L73.1185 -167.476V-112.634ZM58.4892 -184.588L76.1804 -195.48L95.0676 -184.145L76.1907 -172.706L58.4789 -184.598L58.4892 -184.588ZM76.3351 -107.178L76.2732 -107.281H76.3969L76.3351 -107.178ZM128.45 -49.3446L98.1089 -65.9097L97.181 -29.7574L79.2217 -19.1232V-101.897L129.161 -72.3253L128.45 -49.3343V-49.3446ZM132.192 -77.6372L82.3043 -107.188L100.367 -117.998L149.409 -88.6325L132.203 -77.6372H132.192ZM153.75 -58.5555L134.687 -47.6943L135.265 -72.4284L153.74 -84.6717V-58.5555H153.75Z" fill="#FE0000"/>
<path d="M76.2732 -107.271L76.3351 -107.168L76.3969 -107.271H76.2732ZM100.367 -125.125L99.0884 -124.362L100.367 -125.115V-125.125Z" fill="#FE0000"/>
<path d="M76.3969 -107.271L76.3351 -107.178L76.2732 -107.271H76.3969Z" fill="#FE0000"/>
<path d="M54.2726 -116.698L49.757 -119.37L49.7776 -119.411L54.2726 -116.698Z" fill="#FE0000"/>
<path d="M76.3969 -107.271L76.3351 -107.178L76.2732 -107.271H76.3969Z" fill="#FE0000"/>
<path d="M76.3969 -107.271L76.3351 -107.178L76.2732 -107.271H76.3969Z" fill="#FE0000"/>
<path d="M388.066 39.5662L414.108 24.6102V-13.739L387.396 -27.7873L357.632 -10.6034L357.137 -43.1043L332.003 -58.1944L303.765 -40.0513V-11.4698L277.403 -27.8595L247.371 -9.0356H247.165L246.763 22.4855L276.186 37.9881L246.186 57.1524V88.6116L247.825 90.0763C249.681 91.7266 267.846 103.299 273.362 106.806L303.765 89.0758V118.503L331.951 136.584L359.375 120.349L360.138 90.4579L391.087 105.827L416.727 91.2212V57.1009L388.066 39.5662ZM408.933 20.4535L382.045 35.884L362.457 23.8985L408.922 -3.92993V20.4535H408.933ZM353.261 0.226807L387.613 -20.6807L407.84 -10.0464L356.509 20.2575L354.911 21.1962L335.106 33.0578V-22.5269L352.385 -33.0065L353.261 0.216492V0.226807ZM276.238 -20.6085L303.754 -4.12592V17.9987L257.938 -9.13875L276.228 -20.5981L276.238 -20.6085ZM252.969 86.2083V61.3092L273.135 73.6866L273.3 99.4521C264.691 93.9545 256.011 88.3331 252.969 86.2083ZM257.835 57.0493L288.486 37.4827L252.99 18.7826L253.299 -5.36365L309.858 28.7876L309.94 28.8392L326.147 38.442L276.217 68.3437L257.835 57.0596V57.0493ZM328.93 127.301L309.94 115.13V85.476L328.93 74.4086V127.312V127.301ZM328.93 67.2606L279.032 96.9767L279.279 73.7072L328.93 43.9808V67.2606ZM328.93 32.8928L309.94 21.65V-35.7811L328.93 -22.6301V32.8928ZM314.126 -39.9378L332.034 -50.964L351.158 -39.484L332.054 -27.9008L314.126 -39.9378ZM332.188 38.4213L332.126 38.3182H332.25L332.188 38.4213ZM384.942 96.956L354.23 80.1847L353.292 116.77L335.116 127.528V43.7436L385.664 73.6762L384.942 96.9457V96.956ZM388.736 68.323L338.23 38.411L356.509 27.4674L406.149 57.1937L388.726 68.323H388.736ZM410.551 87.6317L391.262 98.627L391.85 73.5938L410.551 61.206V87.6421V87.6317Z" fill="#FE0000"/>
<path d="M332.126 38.3182L332.188 38.4213L332.25 38.3182H332.126ZM356.509 20.2472L355.22 21.0208L356.519 20.2575L356.509 20.2472Z" fill="#FE0000"/>
<path d="M332.25 38.3182L332.188 38.4213L332.126 38.3182H332.25Z" fill="#FE0000"/>
<path d="M309.858 28.7876L305.28 26.0749L305.301 26.044L309.858 28.7876Z" fill="#FE0000"/>
<path d="M332.25 38.3182L332.188 38.4213L332.126 38.3182H332.25Z" fill="#FE0000"/>
<path d="M332.25 38.3182L332.188 38.4213L332.126 38.3182H332.25Z" fill="#FE0000"/>
<path d="M-122.269 38.6895L-96.4227 23.847V-14.2238L-122.939 -28.1587L-152.486 -11.1088L-152.981 -43.3725L-177.93 -58.3492L-205.962 -40.3401V-11.9649L-232.128 -28.2309L-261.933 -9.55133H-262.139L-262.541 21.7325L-233.334 37.1217L-263.119 56.1519V87.3739L-261.49 88.8282C-259.644 90.4682 -241.623 101.959 -236.149 105.435L-205.962 87.838V117.049L-177.982 134.996L-150.765 118.885L-150.002 89.2202L-119.279 104.475L-93.8247 89.9731V56.1004L-122.279 38.6895H-122.269ZM-101.557 19.7212L-128.238 35.0382L-147.682 23.1353L-101.557 -4.48692V19.7212ZM-156.816 -0.36113L-122.712 -21.1139L-102.639 -10.5622L-153.589 19.5149L-154.878 20.2782L-155.177 20.4535L-174.837 32.2327V-22.9395L-157.682 -33.3468L-156.816 -0.36113ZM-233.262 -21.0314L-205.952 -4.67258V17.287L-251.427 -9.64417L-233.272 -21.021L-233.262 -21.0314ZM-256.366 84.9912V60.2777L-236.355 72.5623L-236.19 98.1319C-244.737 92.6755 -253.355 87.0954 -256.376 84.9912H-256.366ZM-251.541 56.0488L-221.117 36.6266L-256.345 18.0605L-256.036 -5.91031L-204.416 25.2704L-199.9 27.9934L-199.818 28.045L-183.735 37.5756L-233.293 67.2503L-251.541 56.0488ZM-180.972 125.775L-199.818 113.696V84.2589L-180.972 73.274V125.785V125.775ZM-180.972 66.1776L-230.499 95.6771L-230.252 72.5726L-180.972 43.0629V66.1776ZM-180.972 32.0676L-199.818 20.9176V-36.0802L-180.972 -23.022V32.0779V32.0676ZM-195.663 -40.2163L-177.889 -51.16L-158.909 -39.7625L-177.868 -28.2721L-195.663 -40.2163ZM-177.734 37.5549L-177.796 37.4518H-177.673L-177.734 37.5549ZM-125.372 95.6564L-155.858 79.0089L-156.785 115.326L-174.827 126.002V42.8359L-124.65 72.552L-125.362 95.6564H-125.372ZM-121.609 67.2297L-171.734 37.5343L-153.589 26.6731L-104.31 56.1829L-121.599 67.2297H-121.609ZM-99.9486 86.4043L-119.094 97.317L-118.506 72.4695L-99.9383 60.1746V86.4146L-99.9486 86.4043Z" fill="#FE0000"/>
<path d="M-177.796 37.4621L-177.734 37.5652L-177.673 37.4621H-177.796ZM-153.589 19.5252L-154.868 20.2885L-153.579 19.5252H-153.589Z" fill="#FE0000"/>
<path d="M-177.673 37.4621L-177.734 37.5549L-177.796 37.4621H-177.673Z" fill="#FE0000"/>
<path d="M-199.9 27.9934L-204.436 25.3013L-204.416 25.2704L-199.9 27.9934Z" fill="#FE0000"/>
<path d="M-177.673 37.4621L-177.734 37.5549L-177.796 37.4621H-177.673Z" fill="#FE0000"/>
<path d="M-177.673 37.4621L-177.734 37.5549L-177.796 37.4621H-177.673Z" fill="#FE0000"/>
<path d="M-292.81 39.5662L-266.892 24.6824V-13.4811L-293.48 -27.4573L-323.1 -10.3559L-323.595 -42.7021L-348.606 -57.72L-376.699 -39.6696V-11.2223L-402.927 -27.5295L-432.814 -8.79837H-433.021L-433.423 22.568L-404.143 37.9984L-434 57.0699V88.3744L-432.371 89.8287C-430.526 91.479 -412.453 102.99 -406.968 106.476L-376.71 88.8282V118.111L-348.657 136.1L-321.368 119.947L-320.605 90.2001L-289.81 105.496L-264.294 90.9633V57.0081L-292.81 39.5559V39.5662ZM-272.047 20.5463L-298.8 35.8943L-318.285 23.9604L-272.047 -3.72365V20.5463ZM-327.44 0.41246L-293.253 -20.3919L-273.129 -9.80919L-324.203 20.3504L-325.492 21.1136L-325.791 21.289L-345.502 33.0991V-22.2175L-328.306 -32.6455L-327.44 0.422775V0.41246ZM-404.092 -20.3093L-376.71 -3.9093V18.1018L-422.299 -8.90152L-404.092 -20.3093ZM-427.247 85.9814V61.206L-407.185 73.5215L-407.02 99.153C-415.587 93.6863 -424.227 88.0856 -427.258 85.9814H-427.247ZM-422.412 56.9565L-391.916 37.4827L-427.237 18.8651L-426.928 -5.15736L-370.648 28.8289L-370.565 28.8804L-354.441 38.4316L-404.123 68.1786L-422.422 56.9462L-422.412 56.9565ZM-351.657 126.868L-370.555 114.759V85.2491L-351.657 74.2332V126.868ZM-351.657 67.1162L-401.308 96.6878L-401.061 73.5319L-351.657 43.9499V67.1162ZM-351.657 32.9237L-370.555 21.7428V-35.3994L-351.657 -22.3103V32.9237ZM-366.39 -39.5459L-348.575 -50.5101L-329.543 -39.092L-348.554 -27.5707L-366.39 -39.5459ZM-348.41 38.4213L-348.472 38.3182H-348.348L-348.41 38.4213ZM-295.924 96.6672L-326.492 79.9784L-327.419 116.389L-345.513 127.095V43.723L-295.212 73.5112L-295.924 96.6672ZM-292.15 68.1786L-342.399 38.411L-324.213 27.5189L-274.81 57.1009L-292.14 68.1786H-292.15ZM-270.438 87.3945L-289.635 98.3279L-289.047 73.4184L-270.438 61.0926V87.3945Z" fill="#FE0000"/>
<path d="M-348.472 38.3285L-348.41 38.4316L-348.348 38.3285H-348.472ZM-324.213 20.34L-325.502 21.1136L-324.213 20.3504V20.34Z" fill="#FE0000"/>
<path d="M-348.348 38.3285L-348.41 38.4213L-348.472 38.3285H-348.348Z" fill="#FE0000"/>
<path d="M-370.637 28.8392L-375.194 26.1471L-375.163 26.1058L-370.637 28.8392Z" fill="#FE0000"/>
<path d="M-348.348 38.3285L-348.41 38.4213L-348.472 38.3285H-348.348Z" fill="#FE0000"/>
<path d="M-348.348 38.3285L-348.41 38.4213L-348.472 38.3285H-348.348Z" fill="#FE0000"/>
<path d="M216.875 39.5662L242.969 24.5793V-13.8525L216.195 -27.9214L186.369 -10.7066L185.875 -43.2694L160.688 -58.3904L132.399 -40.2163V-11.573L105.985 -27.9936L75.8918 -9.13875H75.6856L75.2835 22.4442L104.769 37.9778L74.7061 57.1834V88.7044L76.3454 90.1691C78.2011 91.8297 96.4079 103.423 101.934 106.94L132.399 89.1686V118.658L160.647 136.77L188.132 120.504L188.895 90.5508L219.906 105.961L245.598 91.3243V57.1318L216.875 39.5559V39.5662ZM237.783 20.4122L210.844 35.8737L191.225 23.8573L237.794 -4.02277V20.4122H237.783ZM181.998 0.144287L216.422 -20.8044L236.69 -10.1496L185.256 20.2163L183.658 21.1549L163.812 33.0475V-22.6507L181.132 -33.1509L182.008 0.144287H181.998ZM104.82 -20.7322L132.399 -4.21873V17.9471L86.49 -9.24188L104.82 -20.7322ZM81.4899 86.3115V61.3607L101.697 73.7588L101.872 99.5759C93.2532 94.068 84.5518 88.426 81.5002 86.3115H81.4899ZM86.3663 57.0802L117.079 37.4724L81.5105 18.731L81.8198 -5.4668L138.492 28.767L138.574 28.8186L154.812 38.442L104.779 68.3952L86.356 57.0905L86.3663 57.0802ZM157.616 127.477L138.584 115.275V85.5585L157.616 74.4705V127.477ZM157.616 67.3122L107.614 97.0901L107.862 73.7691L157.616 43.9808V67.3122ZM157.616 32.8825L138.584 21.619V-35.9255L157.616 -22.7436V32.8825ZM142.78 -40.1028L160.729 -51.1496L179.885 -39.649L160.74 -28.0452L142.78 -40.1028ZM160.884 38.4213L160.822 38.3182H160.946L160.884 38.4213ZM213.741 97.0695L182.957 80.2672L182.019 116.935L163.802 127.714V43.7539L214.453 73.7484L213.731 97.0695H213.741ZM217.546 68.3746L166.936 38.4007L185.256 27.4364L235 57.2246L217.546 68.3746ZM239.402 87.7349L220.071 98.7507L220.659 73.666L239.402 61.2473V87.7349Z" fill="#FE0000"/>
<path d="M160.822 38.3182L160.884 38.4213L160.946 38.3182H160.822ZM185.256 20.2163L183.967 20.9899L185.266 20.2266L185.256 20.2163Z" fill="#FE0000"/>
<path d="M160.946 38.3182L160.884 38.4213L160.822 38.3182H160.946Z" fill="#FE0000"/>
<path d="M138.502 28.767L133.914 26.0543L133.945 26.013L138.502 28.767Z" fill="#FE0000"/>
<path d="M160.946 38.3182L160.884 38.4213L160.822 38.3182H160.946Z" fill="#FE0000"/>
<path d="M160.946 38.3182L160.884 38.4213L160.822 38.3182H160.946Z" fill="#FE0000"/>
<path d="M46.6125 39.5559L72.3453 24.7856V-13.0995L45.9527 -26.9725L16.5497 -9.99486L16.0652 -42.1038L-8.7706 -57.0083L-36.6684 -39.0817V-10.8406L-62.7104 -27.0241L-92.3814 -8.42705H-92.5876L-92.9793 22.7124L-63.9063 38.0294L-93.5464 56.9668V88.0443L-91.9278 89.4884C-90.0927 91.118 -72.154 102.557 -66.7002 106.022L-36.6581 88.5085V117.575L-8.81183 135.439L18.2818 119.4L19.0344 89.87L49.6126 105.053L74.9433 90.623V56.9152L46.6228 39.5869L46.6125 39.5559ZM67.2317 20.6804L40.6742 35.9252L21.3231 24.0842L67.2317 -3.4039V20.6907V20.6804ZM12.23 0.690948L46.1692 -19.969L66.1492 -9.4585L15.4363 20.4845L14.158 21.2374L13.8589 21.4128L-5.70865 33.13V-21.7843L11.364 -32.1401L12.23 0.690948ZM-63.8651 -19.8864L-36.6786 -3.61018V18.2462L-81.9378 -8.56114L-63.8651 -19.8864ZM-86.8554 85.6411V61.041L-66.9373 73.2637L-66.7723 98.7095C-75.2778 93.2841 -83.8553 87.7245 -86.8554 85.6307V85.6411ZM-82.0512 56.8327L-51.7719 37.5033L-86.8348 19.0198L-86.5255 -4.83762L-30.6476 28.9114L-30.5651 28.963L-14.5543 38.442L-63.8857 67.9827L-82.0512 56.8327ZM-11.8119 126.239L-30.5754 114.212V84.9087L-11.8119 73.9754V126.239ZM-11.8119 66.9203L-61.1124 96.2753L-60.865 73.2843L-11.8119 43.919V66.9203ZM-11.8119 32.9753L-30.5754 21.8769V-34.8631L-11.8119 -21.8668V32.9753ZM-26.4309 -38.9785L-8.73969 -49.8707L10.1475 -38.535L-8.72937 -27.0963L-26.4412 -38.9889L-26.4309 -38.9785ZM-8.58502 38.4316L-8.64688 38.3285H-8.52316L-8.58502 38.4316ZM43.5197 96.2547L13.1785 79.6896L12.2507 115.842L-5.70865 126.476V43.7023L44.231 73.274L43.5197 96.265V96.2547ZM47.2723 67.962L-2.61578 38.411L15.4467 27.6014L64.4893 56.9668L47.2826 67.962H47.2723ZM68.8297 87.0438L49.7672 97.905L50.3446 73.1708L68.8194 60.9276V87.0438H68.8297Z" fill="#FE0000"/>
<path d="M-8.64688 38.3285L-8.58502 38.4316L-8.52316 38.3285H-8.64688ZM15.4363 20.4741L14.158 21.2374L15.4363 20.4845V20.4741Z" fill="#FE0000"/>
<path d="M-8.52316 38.3285L-8.58502 38.4316L-8.64688 38.3285H-8.52316Z" fill="#FE0000"/>
<path d="M-30.6578 28.9114L-35.1735 26.2399L-35.1528 26.1987L-30.6578 28.9114Z" fill="#FE0000"/>
<path d="M-8.52316 38.3285L-8.58502 38.4316L-8.64688 38.3285H-8.52316Z" fill="#FE0000"/>
<path d="M-8.52316 38.3285L-8.58502 38.4316L-8.64688 38.3285H-8.52316Z" fill="#FE0000"/>
<path d="M471.399 182.845L497.441 167.889V129.539L470.729 115.491L440.965 132.675L440.47 100.174L415.335 85.084L387.097 103.227V131.809L360.735 115.419L330.704 134.243H330.497L330.095 165.764L359.519 181.267L329.518 200.431V231.89L331.157 233.355C333.013 235.005 351.178 246.578 356.694 250.085L387.097 232.354V261.781L415.284 279.863L442.707 263.628L443.47 233.736L474.419 249.105L500.059 234.5V200.379L471.399 182.845ZM492.265 163.732L465.378 179.163L445.79 167.177L492.255 139.349V163.732H492.265ZM436.593 143.505L470.945 122.598L491.172 133.232L439.841 163.536L438.243 164.475L418.438 176.336V120.752L435.717 110.272L436.593 143.495V143.505ZM359.57 122.68L387.087 139.163V161.287L341.271 134.15L359.56 122.691L359.57 122.68ZM336.302 229.497V204.598L356.467 216.975L356.632 242.741C348.024 237.243 339.343 231.622 336.302 229.497ZM341.168 200.328L371.818 180.761L336.322 162.061L336.632 137.915L393.19 172.066L393.273 172.118L409.479 181.72L359.55 211.622L341.168 200.338V200.328ZM412.263 270.58L393.273 258.409V228.755L412.263 217.687V270.59V270.58ZM412.263 210.539L362.364 240.255L362.612 216.986L412.263 187.259V210.539ZM412.263 176.182L393.273 164.939V107.508L412.263 120.659V176.182ZM397.458 103.351L415.366 92.3248L434.49 103.805L415.387 115.388L397.458 103.351ZM415.521 181.71L415.459 181.607H415.583L415.521 181.71ZM468.275 240.235L437.563 223.463L436.624 260.049L418.449 270.807V187.022L468.996 216.955L468.275 240.224V240.235ZM472.069 211.602L421.562 181.69L439.841 170.746L489.482 200.472L472.058 211.602H472.069ZM493.884 230.921L474.595 241.916L475.182 216.883L493.884 204.495V230.931V230.921Z" fill="#FE0000"/>
<path d="M415.459 181.607L415.521 181.71L415.583 181.607H415.459ZM439.841 163.536L438.552 164.31L439.851 163.546L439.841 163.536Z" fill="#FE0000"/>
<path d="M415.583 181.607L415.521 181.71L415.459 181.607H415.583Z" fill="#FE0000"/>
<path d="M393.19 172.066L388.613 169.364L388.633 169.322L393.19 172.066Z" fill="#FE0000"/>
<path d="M415.583 181.607L415.521 181.71L415.459 181.607H415.583Z" fill="#FE0000"/>
<path d="M415.583 181.607L415.521 181.71L415.459 181.607H415.583Z" fill="#FE0000"/>
<path d="M-38.9365 181.978L-13.0903 167.136V129.065L-39.6066 115.13L-69.1539 132.18L-69.6487 99.9163L-94.598 84.9397L-122.63 102.949V131.324L-148.795 115.058L-178.6 133.737H-178.807L-179.209 165.021L-150.002 180.411L-179.786 199.441V230.663L-178.157 232.117C-176.312 233.757 -158.291 245.247 -152.816 248.723L-122.63 231.127V260.337L-94.6495 278.285L-67.4322 262.173L-66.6693 232.509L-35.9467 247.764L-10.4923 233.262V199.389L-38.9468 181.978H-38.9365ZM-18.2245 163L-44.9057 178.317L-64.3496 166.414L-18.2245 138.792V163ZM-73.4839 142.928L-39.3798 122.175L-19.307 132.727L-70.257 162.804L-71.5457 163.567L-71.8447 163.742L-91.5051 175.521V120.349L-74.3499 109.942L-73.4839 142.928ZM-149.93 122.247L-122.619 138.606V160.565L-168.095 133.634L-149.94 122.257L-149.93 122.247ZM-173.033 228.28V203.567L-153.022 215.851L-152.857 241.421C-161.404 235.964 -170.023 230.384 -173.044 228.28H-173.033ZM-168.208 199.327L-137.785 179.905L-173.013 161.339L-172.703 137.368L-121.083 168.549L-116.568 171.272L-116.485 171.323L-100.402 180.854L-149.96 210.529L-168.208 199.327ZM-97.6393 269.064L-116.485 256.985V227.548L-97.6393 216.563V269.074V269.064ZM-97.6393 209.466L-147.167 238.966L-146.919 215.861L-97.6393 186.352V209.466ZM-97.6393 175.356L-116.485 164.206V107.209L-97.6393 120.267V175.367V175.356ZM-112.33 103.062L-94.5567 92.1185L-75.5768 103.516L-94.5361 115.006L-112.33 103.062ZM-94.4021 180.844L-94.4639 180.741H-94.3402L-94.4021 180.844ZM-42.0396 238.945L-72.5251 222.298L-73.453 258.615L-91.4948 269.29V186.125L-41.318 215.841L-42.0293 238.945H-42.0396ZM-38.2766 210.519L-88.4019 180.823L-70.257 169.962L-20.9772 199.472L-38.2663 210.519H-38.2766ZM-16.6162 229.693L-35.7611 240.606L-35.1735 215.758L-16.6059 203.463V229.703L-16.6162 229.693Z" fill="#FE0000"/>
<path d="M-94.4639 180.741L-94.4021 180.844L-94.3402 180.741H-94.4639ZM-70.257 162.804L-71.5354 163.567L-70.2467 162.804H-70.257Z" fill="#FE0000"/>
<path d="M-94.3402 180.741L-94.4021 180.844L-94.4639 180.741H-94.3402Z" fill="#FE0000"/>
<path d="M-116.568 171.272L-121.104 168.59L-121.083 168.549L-116.568 171.272Z" fill="#FE0000"/>
<path d="M-94.3402 180.741L-94.4021 180.844L-94.4639 180.741H-94.3402Z" fill="#FE0000"/>
<path d="M-94.3402 180.741L-94.4021 180.844L-94.4639 180.741H-94.3402Z" fill="#FE0000"/>
<path d="M-209.478 182.845L-183.559 167.961V129.797L-210.148 115.821L-239.767 132.923L-240.262 100.576L-265.273 85.5585L-293.367 103.609V132.056L-319.594 115.749L-349.472 134.48H-349.678L-350.08 165.846L-320.801 181.277L-350.657 200.348V231.653L-349.028 233.107C-347.183 234.758 -329.11 246.269 -323.626 249.755L-293.367 232.107V261.39L-265.314 279.378L-238.025 263.226L-237.262 233.479L-206.467 248.775L-180.951 234.242V200.287L-209.467 182.834L-209.478 182.845ZM-188.714 163.825L-215.468 179.173L-234.953 167.239L-188.714 139.555V163.825ZM-244.108 143.701L-209.921 122.897L-189.797 133.48L-240.87 163.639L-242.159 164.402L-242.458 164.578L-262.17 176.388V121.071L-244.974 110.643L-244.108 143.712V143.701ZM-320.759 122.969L-293.377 139.369V161.38L-338.966 134.377L-320.759 122.969ZM-343.915 229.26V204.485L-323.852 216.8L-323.687 242.432C-332.255 236.965 -340.894 231.364 -343.925 229.26H-343.915ZM-339.08 200.245L-308.584 180.772L-343.904 162.154L-343.595 138.131L-287.315 172.118L-287.233 172.169L-271.108 181.72L-320.79 211.467L-339.09 200.235L-339.08 200.245ZM-268.325 270.147L-287.222 258.037V228.528L-268.325 217.512V270.147ZM-268.325 210.405L-317.976 239.977L-317.728 216.821L-268.325 187.239V210.405ZM-268.325 176.213L-287.222 165.032V107.889L-268.325 120.978V176.213ZM-283.057 103.733L-265.242 92.7684L-246.211 104.186L-265.222 115.708L-283.057 103.733ZM-265.077 181.71L-265.139 181.607H-265.015L-265.077 181.71ZM-212.591 239.956L-243.159 223.267L-244.087 259.677L-262.18 270.384V187.012L-211.88 216.8L-212.591 239.956ZM-208.818 211.457L-259.067 181.69L-240.881 170.797L-191.477 200.379L-208.808 211.457H-208.818ZM-187.106 230.683L-206.302 241.617L-205.715 216.707L-187.106 204.381V230.683Z" fill="#FE0000"/>
<path d="M-265.139 181.607L-265.077 181.71L-265.015 181.607H-265.139ZM-240.881 163.629L-242.169 164.402L-240.881 163.639V163.629Z" fill="#FE0000"/>
<path d="M-265.015 181.607L-265.077 181.71L-265.139 181.607H-265.015Z" fill="#FE0000"/>
<path d="M-287.305 172.118L-291.862 169.426L-291.831 169.384L-287.305 172.118Z" fill="#FE0000"/>
<path d="M-265.015 181.607L-265.077 181.71L-265.139 181.607H-265.015Z" fill="#FE0000"/>
<path d="M-265.015 181.607L-265.077 181.71L-265.139 181.607H-265.015Z" fill="#FE0000"/>
<path d="M300.208 182.845L326.301 167.858V129.426L299.527 115.357L269.702 132.572L269.207 100.009L244.021 84.8881L215.731 103.062V131.706L189.318 115.285L159.224 134.14H159.018L158.616 165.723L188.101 181.256L158.039 200.462V231.983L159.678 233.448C161.534 235.108 179.74 246.702 185.266 250.219L215.731 232.447V261.936L243.979 280.048L271.465 263.783L272.228 233.829L303.239 249.239L328.93 234.603V200.41L300.208 182.834V182.845ZM321.116 163.701L294.177 179.163L274.558 167.146L321.126 139.266V163.701H321.116ZM265.331 143.423L299.754 122.474L320.023 133.129L268.588 163.495L266.99 164.433L247.144 176.326V120.628L264.464 110.128L265.341 143.423H265.331ZM188.153 122.557L215.731 139.07V161.236L169.822 134.047L188.153 122.557ZM164.822 229.59V204.639L185.029 217.037L185.204 242.854C176.586 237.346 167.884 231.704 164.833 229.59H164.822ZM169.699 200.369L200.411 180.761L164.843 162.02L165.152 137.822L221.824 172.056L221.907 172.107L238.144 181.731L188.112 211.684L169.688 200.379L169.699 200.369ZM240.948 270.765L221.917 258.563V228.847L240.948 217.759V270.765ZM240.948 210.601L190.947 240.379L191.194 217.058L240.948 187.27V210.601ZM240.948 176.161L221.917 164.898V107.353L240.948 120.535V176.161ZM226.113 103.186L244.062 92.1392L263.217 103.64L244.072 115.244L226.113 103.186ZM244.216 181.7L244.155 181.597H244.278L244.216 181.7ZM297.074 240.358L266.289 223.556L265.351 260.224L247.134 271.003V187.043L297.785 217.037L297.063 240.358H297.074ZM300.868 211.663L250.258 181.69L268.578 170.725L318.322 200.513L300.868 211.663ZM322.734 231.013L303.404 242.029L303.992 216.944L322.734 204.526V231.013Z" fill="#FE0000"/>
<path d="M244.155 181.607L244.216 181.71L244.278 181.607H244.155ZM268.588 163.495L267.3 164.268L268.599 163.505L268.588 163.495Z" fill="#FE0000"/>
<path d="M244.278 181.607L244.216 181.7L244.155 181.607H244.278Z" fill="#FE0000"/>
<path d="M221.834 172.045L217.247 169.333L217.277 169.292L221.834 172.045Z" fill="#FE0000"/>
<path d="M244.278 181.607L244.216 181.7L244.155 181.607H244.278Z" fill="#FE0000"/>
<path d="M244.278 181.607L244.216 181.7L244.155 181.607H244.278Z" fill="#FE0000"/>
<path d="M129.945 182.845L155.678 168.074V130.189L129.285 116.316L99.8821 133.294L99.3976 101.185L74.5618 86.2805L46.6641 104.207V132.448L20.622 116.265L-9.04895 134.862H-9.25516L-9.64694 166.001L19.4261 181.318L-10.2139 200.256V231.333L-8.59534 232.777C-6.76022 234.407 11.1785 245.846 16.6322 249.311L46.6744 231.797V260.864L74.5206 278.728L101.614 262.689L102.367 233.159L132.945 248.342L158.276 233.912V200.204L129.955 182.876L129.945 182.845ZM150.564 163.959L124.007 179.204L104.656 167.363L150.564 139.875V163.969V163.959ZM95.5624 143.98L129.502 123.32L149.482 133.83L98.7688 163.773L97.4904 164.526L97.1913 164.702L77.6238 176.419V121.504L94.6965 111.149L95.5624 143.98ZM19.4674 123.402L46.6538 139.679V161.535L1.39465 134.728L19.4674 123.402ZM-3.52304 228.93V204.33L16.3951 216.552L16.5601 241.998C8.05466 236.573 -0.522949 231.013 -3.52304 228.92V228.93ZM1.28125 200.121L31.5605 180.792L-3.50238 162.309L-3.19312 138.451L52.6849 172.2L52.7673 172.252L68.7781 181.731L19.4467 211.271L1.28125 200.121ZM71.5205 269.517L52.757 257.491V228.187L71.5205 217.254V269.517ZM71.5205 210.209L22.22 239.564L22.4675 216.573L71.5205 187.208V210.209ZM71.5205 176.254L52.757 165.155V108.415L71.5205 121.412V176.254ZM56.9015 104.3L74.5928 93.4078L93.4799 104.743L74.6031 116.182L56.8912 104.29L56.9015 104.3ZM74.7474 181.71L74.6855 181.607H74.8093L74.7474 181.71ZM126.852 239.543L96.511 222.978L95.5831 259.131L77.6238 269.765V186.991L127.563 216.563L126.852 239.554V239.543ZM130.605 211.251L80.7167 181.7L98.7791 170.89L147.822 200.256L130.615 211.251H130.605ZM152.162 230.333L133.1 241.194L133.677 216.46L152.152 204.216V230.333H152.162Z" fill="#FE0000"/>
<path d="M74.6855 181.617L74.7474 181.72L74.8093 181.617H74.6855ZM98.7688 163.763L97.4904 164.526L98.7688 163.773V163.763Z" fill="#FE0000"/>
<path d="M74.799 181.617L74.7474 181.71L74.6855 181.617H74.799Z" fill="#FE0000"/>
<path d="M52.6746 172.19L48.159 169.518L48.1796 169.477L52.6746 172.19Z" fill="#FE0000"/>
<path d="M74.799 181.617L74.7474 181.71L74.6855 181.617H74.799Z" fill="#FE0000"/>
<path d="M74.799 181.617L74.7474 181.71L74.6855 181.617H74.799Z" fill="#FE0000"/>
<path d="M557.339 328.908L583.381 313.952V275.603L556.669 261.555L526.905 278.738L526.411 246.238L501.276 231.147L473.038 249.291V277.872L446.676 261.482L416.644 280.306H416.438L416.036 311.827L445.46 327.33L415.459 346.494V377.954L417.098 379.418C418.954 381.069 437.119 392.641 442.635 396.148L473.038 378.418V407.845L501.224 425.926L528.648 409.691L529.411 379.8L560.36 395.168L586 380.563V346.443L557.339 328.908ZM578.206 309.785L551.319 325.216L531.73 313.23L578.196 285.402V309.785H578.206ZM522.534 289.558L556.886 268.651L577.113 279.285L525.782 309.589L524.184 310.528L504.379 322.389V266.805L521.658 256.325L522.534 289.548V289.558ZM445.511 268.733L473.028 285.216V307.341L427.212 280.203L445.501 268.744L445.511 268.733ZM422.232 375.55V350.651L442.398 363.029L442.563 388.794C433.954 383.296 425.273 377.675 422.232 375.55ZM427.098 346.391L457.749 326.825L422.253 308.125L422.562 283.978L479.12 318.13L479.203 318.181L495.41 327.784L445.48 357.686L427.098 346.402V346.391ZM498.204 416.633L479.213 404.462V374.808L498.204 363.74V416.643V416.633ZM498.204 356.592L448.305 386.308L448.553 363.039L498.204 333.312V356.592ZM498.204 322.235L479.213 310.992V253.561L498.204 266.712V322.235ZM483.399 249.404L501.307 238.378L520.431 249.858L501.327 261.441L483.399 249.404ZM501.461 327.763L501.4 327.66H501.523L501.461 327.763ZM554.205 386.288L523.493 369.516L522.555 406.102L504.379 416.86V333.075L554.927 363.008L554.205 386.277V386.288ZM557.999 357.655L507.492 327.743L525.771 316.799L575.412 346.525L557.989 357.655H557.999ZM579.825 376.974L560.535 387.969L561.123 362.936L579.825 350.548V376.984V376.974Z" fill="#FE0000"/>
<path d="M501.4 327.66L501.461 327.763L501.523 327.66H501.4ZM525.782 309.589L524.493 310.363L525.792 309.599L525.782 309.589Z" fill="#FE0000"/>
<path d="M501.523 327.66L501.461 327.763L501.4 327.66H501.523Z" fill="#FE0000"/>
<path d="M479.12 318.119L474.553 315.417L474.574 315.376L479.12 318.119Z" fill="#FE0000"/>
<path d="M501.523 327.66L501.461 327.763L501.4 327.66H501.523Z" fill="#FE0000"/>
<path d="M501.523 327.66L501.461 327.763L501.4 327.66H501.523Z" fill="#FE0000"/>
<path d="M553.216 40.3811L579.258 25.4251V-12.9242L552.545 -26.9725L522.782 -9.78857L522.287 -42.2895L497.152 -57.3796L468.914 -39.2364V-10.655L442.552 -27.0447L412.521 -8.22076H412.314L411.912 23.3003L441.336 38.803L411.335 57.9673V89.4265L412.974 90.8911C414.83 92.5414 432.995 104.114 438.511 107.621L468.914 89.8906V119.318L497.1 137.399L524.524 121.164L525.287 91.2727L556.236 106.641L581.876 92.036V57.9157L553.216 40.3811ZM574.082 21.2683L547.195 36.6988L527.607 24.7134L574.072 -3.1151V21.2683H574.082ZM518.421 1.04164L552.772 -19.8658L573 -9.23158L521.668 21.0724L520.07 22.011L500.266 33.8727V-21.7121L517.544 -32.1916L518.421 1.03133V1.04164ZM441.387 -19.7833L468.904 -3.30075V18.8238L423.088 -8.3136L441.377 -19.773L441.387 -19.7833ZM418.119 87.0335V62.1343L438.284 74.5117L438.449 100.277C429.841 94.7797 421.16 89.1583 418.119 87.0335ZM422.985 57.8641L453.635 38.2976L418.139 19.5974L418.449 -4.54881L470.46 26.8588L475.007 29.6024L475.089 29.654L491.296 39.2568L441.367 69.1585L422.985 57.8745V57.8641ZM494.08 128.116L475.089 115.945V86.2909L494.08 75.2234V128.126V128.116ZM494.08 68.0755L444.181 97.7915L444.429 74.522L494.08 44.7957V68.0755ZM494.08 33.7179L475.089 22.4752V-34.9559L494.08 -21.8049V33.7179ZM479.275 -39.1126L497.183 -50.1388L516.307 -38.6588L497.203 -27.0756L479.275 -39.1126ZM497.338 39.2465L497.276 39.1433H497.399L497.338 39.2465ZM550.092 97.7709L519.379 80.9995L518.441 117.585L500.266 128.343V44.5585L550.813 74.4911L550.092 97.7606V97.7709ZM553.886 69.1379L503.379 39.2259L521.658 28.2822L571.299 58.0085L553.875 69.1379H553.886ZM575.701 88.4569L556.411 99.4521L556.999 74.4189L575.701 62.0312V88.4672V88.4569Z" fill="#FE0000"/>
<path d="M497.276 39.1433L497.338 39.2465L497.399 39.1433H497.276ZM521.658 21.0724L520.369 21.846L521.668 21.0827L521.658 21.0724Z" fill="#FE0000"/>
<path d="M497.399 39.1433L497.338 39.2465L497.276 39.1433H497.399Z" fill="#FE0000"/>
<path d="M475.007 29.6024L470.43 26.9001L470.46 26.8588L475.007 29.6024Z" fill="#FE0000"/>
<path d="M497.399 39.1433L497.338 39.2465L497.276 39.1433H497.399Z" fill="#FE0000"/>
<path d="M497.399 39.1433L497.338 39.2465L497.276 39.1433H497.399Z" fill="#FE0000"/>
<path d="M47.0043 328.031L72.8504 313.189V275.118L46.3342 261.183L16.7869 278.233L16.292 245.969L-8.6572 230.993L-36.689 249.002V277.377L-62.8547 261.111L-92.6598 279.791H-92.8659L-93.268 311.074L-64.0609 326.464L-93.8453 345.494V376.716L-92.2164 378.17C-90.371 379.81 -72.3499 391.301 -66.8755 394.776L-36.689 377.18V406.391L-8.70874 424.338L18.5086 408.227L19.2715 378.562L49.994 393.817L75.4485 379.315V345.442L46.994 328.031H47.0043ZM67.7162 309.063L41.035 324.38L21.5912 312.477L67.7162 284.855V309.063ZM12.4568 288.981L46.561 268.228L66.6338 278.78L15.6837 308.857L14.3951 309.62L14.0961 309.795L-5.5643 321.575V266.402L11.5909 255.995L12.4568 288.981ZM-63.9991 268.3L-36.689 284.659V306.619L-82.1646 279.687L-64.0094 268.311L-63.9991 268.3ZM-87.1029 374.333V349.62L-67.0919 361.904L-66.927 387.474C-75.4737 382.017 -84.0925 376.437 -87.1132 374.333H-87.1029ZM-82.2677 345.38L-51.8441 325.958L-87.0719 307.392L-86.7627 283.421L-30.6269 317.325L-30.5445 317.377L-14.4615 326.907L-64.0197 356.582L-82.2677 345.38ZM-11.6985 415.117L-30.5445 403.038V373.601L-11.6985 362.616V415.127V415.117ZM-11.6985 355.52L-61.2258 385.019L-60.9784 361.914L-11.6985 332.405V355.52ZM-11.6985 321.41L-30.5445 310.26V253.262L-11.6985 266.32V321.42V321.41ZM-26.3897 249.115L-8.61597 238.172L10.364 249.569L-8.59534 261.06L-26.3897 249.115ZM-8.4613 326.897L-8.52316 326.794H-8.39944L-8.4613 326.897ZM43.9011 384.998L13.4156 368.351L12.4878 404.668L-5.55402 415.344V332.178L44.6228 361.894L43.9114 384.998H43.9011ZM47.6641 356.572L-2.46115 326.876L15.6837 316.015L64.9636 345.525L47.6744 356.572H47.6641ZM69.3143 375.746L50.1693 386.659L50.757 361.811L69.3246 349.517V375.757L69.3143 375.746Z" fill="#FE0000"/>
<path d="M-8.52316 326.794L-8.4613 326.897L-8.39944 326.794H-8.52316ZM15.6735 308.857L14.3951 309.62L15.6837 308.857H15.6735Z" fill="#FE0000"/>
<path d="M-8.39944 326.794L-8.4613 326.897L-8.52316 326.794H-8.39944Z" fill="#FE0000"/>
<path d="M-30.6269 317.325L-35.1735 314.643L-35.1528 314.602L-30.6269 317.325Z" fill="#FE0000"/>
<path d="M-8.39944 326.794L-8.4613 326.897L-8.52316 326.794H-8.39944Z" fill="#FE0000"/>
<path d="M-8.39944 326.794L-8.4613 326.897L-8.52316 326.794H-8.39944Z" fill="#FE0000"/>
<path d="M-123.537 328.898L-97.6187 314.014V275.85L-124.207 261.874L-153.827 278.976L-154.321 246.63L-179.332 231.612L-207.426 249.662V278.109L-233.654 261.802L-263.531 280.533H-263.737L-264.139 311.9L-234.86 327.33L-264.717 346.402V377.706L-263.088 379.16C-261.242 380.811 -243.169 392.322 -237.685 395.808L-207.426 378.16V407.443L-179.374 425.431L-152.084 409.279L-151.321 379.532L-120.527 394.828L-95.0103 380.295V346.34L-123.527 328.888L-123.537 328.898ZM-102.773 309.878L-129.527 325.226L-149.012 313.292L-102.773 285.608V309.878ZM-158.177 289.754L-123.991 268.95L-103.866 279.533L-154.94 309.692L-156.229 310.456L-156.528 310.631L-176.24 322.441V267.124L-159.043 256.696L-158.177 289.765V289.754ZM-234.819 269.022L-207.436 285.422V307.433L-253.025 280.43L-234.819 269.022ZM-257.984 375.313V350.538L-237.922 362.853L-237.757 388.485C-246.324 383.018 -254.964 377.417 -257.995 375.313H-257.984ZM-253.139 346.298L-222.643 326.825L-257.964 308.207L-257.654 284.185L-205.9 315.437L-201.374 318.171L-201.292 318.222L-185.168 327.774L-234.85 357.521L-253.149 346.288L-253.139 346.298ZM-182.384 416.2L-201.282 404.09V374.581L-182.384 363.565V416.2ZM-182.384 356.458L-232.035 386.03L-231.788 362.874L-182.384 333.292V356.458ZM-182.384 322.266L-201.282 311.085V253.943L-182.384 267.032V322.266ZM-197.117 249.786L-179.302 238.821L-160.27 250.24L-179.281 261.761L-197.117 249.786ZM-179.147 327.763L-179.209 327.66H-179.085L-179.147 327.763ZM-126.65 386.009L-157.218 369.32L-158.146 405.73L-176.24 416.437V333.065L-125.939 362.853L-126.65 386.009ZM-122.877 357.51L-173.126 327.743L-154.94 316.851L-105.536 346.432L-122.867 357.51H-122.877ZM-101.165 376.736L-120.362 387.67L-119.774 362.76L-101.165 350.435V376.736Z" fill="#FE0000"/>
<path d="M-179.209 327.66L-179.147 327.763L-179.085 327.66H-179.209ZM-154.94 309.682L-156.229 310.456L-154.94 309.692V309.682Z" fill="#FE0000"/>
<path d="M-179.085 327.66L-179.147 327.763L-179.209 327.66H-179.085Z" fill="#FE0000"/>
<path d="M-201.364 318.171L-205.921 315.479L-205.9 315.437L-201.364 318.171Z" fill="#FE0000"/>
<path d="M-179.085 327.66L-179.147 327.763L-179.209 327.66H-179.085Z" fill="#FE0000"/>
<path d="M-179.085 327.66L-179.147 327.763L-179.209 327.66H-179.085Z" fill="#FE0000"/>
<path d="M386.149 328.908L412.242 313.921V275.489L385.468 261.421L355.643 278.635L355.148 246.073L329.961 230.952L301.672 249.126V277.769L275.259 261.348L245.165 280.203H244.959L244.557 311.786L274.042 327.32L243.979 346.525V378.046L245.619 379.511C247.474 381.172 265.681 392.765 271.207 396.282L301.672 378.511V408L329.92 426.112L357.405 409.846L358.168 379.893L389.18 395.303L414.871 380.666V346.474L386.149 328.898V328.908ZM407.056 309.754L380.117 325.216L360.498 313.199L407.067 285.319V309.754H407.056ZM351.271 289.486L385.695 268.538L405.964 279.192L354.529 309.558L353.23 310.321L352.931 310.497L333.085 322.389V266.691L350.405 256.191L351.282 289.486H351.271ZM274.094 268.61L301.672 285.123V307.289L255.763 280.1L274.094 268.61ZM250.763 375.643V350.692L270.97 363.09L271.145 388.908C262.526 383.4 253.825 377.758 250.773 375.643H250.763ZM255.639 346.422L286.352 326.814L250.784 308.073L251.093 283.875L303.208 315.355L307.765 318.109L307.847 318.16L324.085 327.784L274.052 357.737L255.629 346.432L255.639 346.422ZM326.889 416.819L307.858 404.617V374.9L326.889 363.812V416.819ZM326.889 356.654L276.888 386.432L277.135 363.111L326.889 333.323V356.654ZM326.889 322.224L307.858 310.961V253.416L326.889 266.598V322.224ZM312.054 249.239L330.003 238.192L349.158 249.693L330.013 261.297L312.054 249.239ZM330.147 327.753L330.085 327.65H330.209L330.147 327.753ZM383.014 386.411L352.23 369.609L351.292 406.277L333.075 417.056V333.096L383.726 363.09L383.004 386.411H383.014ZM386.808 357.717L336.199 327.743L354.519 316.778L404.263 346.567L386.808 357.717ZM408.675 377.066L389.345 388.082L389.932 362.998L408.675 350.579V377.066Z" fill="#FE0000"/>
<path d="M330.085 327.66L330.147 327.763L330.209 327.66H330.085ZM354.519 309.548L353.23 310.321L354.529 309.558L354.519 309.548Z" fill="#FE0000"/>
<path d="M330.209 327.66L330.147 327.753L330.085 327.66H330.209Z" fill="#FE0000"/>
<path d="M307.775 318.099L303.187 315.386L303.208 315.355L307.775 318.099Z" fill="#FE0000"/>
<path d="M330.209 327.66L330.147 327.753L330.085 327.66H330.209Z" fill="#FE0000"/>
<path d="M330.209 327.66L330.147 327.753L330.085 327.66H330.209Z" fill="#FE0000"/>
<path d="M215.886 328.898L241.618 314.128V276.242L215.226 262.369L185.823 279.347L185.338 247.238L160.503 232.334L132.605 250.26V278.501L106.563 262.318L76.8918 280.915H76.6856L76.2939 312.054L105.367 327.371L75.7268 346.309V377.386L77.3454 378.83C79.1805 380.46 97.1193 391.899 102.573 395.364L132.615 377.85V406.917L160.461 424.781L187.555 408.742L188.308 379.212L218.886 394.395L244.216 379.965V346.257L215.896 328.929L215.886 328.898ZM236.505 310.012L209.947 325.257L190.596 313.416L236.505 285.928V310.022V310.012ZM181.503 290.033L215.442 269.373L235.422 279.883L184.71 309.826L183.431 310.579L183.132 310.755L163.565 322.472V267.558L180.637 257.202L181.503 290.033ZM105.408 269.455L132.595 285.732V307.588L87.3354 280.781L105.408 269.455ZM82.4074 374.983V350.383L102.326 362.606L102.491 388.051C93.9851 382.626 85.4075 377.067 82.4074 374.973V374.983ZM87.222 346.175L117.501 326.845L82.4384 308.362L82.7477 284.504L138.626 318.253L138.708 318.305L154.719 327.784L105.388 357.325L87.222 346.175ZM157.461 415.57L138.698 403.544V374.24L157.461 363.307V415.57ZM157.461 356.262L108.161 385.617L108.408 362.626L157.461 333.261V356.262ZM157.461 322.307L138.698 311.208V254.469L157.461 267.465V322.307ZM142.832 250.353L160.523 239.461L179.41 250.797L160.534 262.235L142.822 250.343L142.832 250.353ZM160.678 327.774L160.616 327.67H160.74L160.678 327.774ZM212.793 385.597L182.452 369.031L181.524 405.184L163.565 415.818V333.044L213.504 362.616L212.793 385.607V385.597ZM216.546 357.304L166.657 327.753L184.72 316.943L233.763 346.309L216.556 357.304H216.546ZM238.093 376.386L219.03 387.247L219.607 362.513L238.082 350.269V376.386H238.093Z" fill="#FE0000"/>
<path d="M160.616 327.67L160.678 327.774L160.74 327.67H160.616ZM184.71 309.816L183.431 310.579L184.71 309.826V309.816Z" fill="#FE0000"/>
<path d="M160.74 327.67L160.678 327.774L160.616 327.67H160.74Z" fill="#FE0000"/>
<path d="M138.615 318.243L134.1 315.572L134.12 315.541L138.615 318.243Z" fill="#FE0000"/>
<path d="M160.74 327.67L160.678 327.774L160.616 327.67H160.74Z" fill="#FE0000"/>
<path d="M160.74 327.67L160.678 327.774L160.616 327.67H160.74Z" fill="#FE0000"/>
<path d="M472.409 474.507L498.451 459.551V421.202L471.739 407.154L441.975 424.338L441.48 391.837L416.345 376.747L388.107 394.89V423.471L361.746 407.082L331.714 425.906H331.508L331.106 457.427L360.529 472.929L330.528 492.094V523.553L332.168 525.017C334.023 526.668 352.189 538.241 357.704 541.748L388.107 524.017V553.444L416.294 571.526L443.717 555.291L444.48 525.399L475.43 540.768L501.07 526.162V492.042L472.409 474.507ZM493.276 455.395L466.388 470.825L446.8 458.84L493.265 431.011V455.395H493.276ZM437.614 435.168L471.966 414.26L492.193 424.895L440.862 455.199L439.264 456.137L419.459 467.999V412.414L436.738 401.935L437.614 435.158V435.168ZM360.591 414.343L388.107 430.826V452.95L342.292 425.813L360.581 414.353L360.591 414.343ZM337.312 521.16V496.261L357.478 508.638L357.643 534.404C349.034 528.906 340.353 523.285 337.312 521.16ZM342.178 491.991L372.829 472.424L337.333 453.724L337.642 429.578L389.654 460.985L394.2 463.729L394.283 463.78L410.49 473.383L360.56 503.285L342.178 492.001V491.991ZM413.273 562.242L394.283 550.071V520.417L413.273 509.35V562.253V562.242ZM413.273 502.202L363.375 531.918L363.622 508.648L413.273 478.922V502.202ZM413.273 467.844L394.283 456.602V399.17L413.273 412.321V467.844ZM398.469 395.003L416.376 383.977L435.501 395.457L416.397 407.04L398.469 395.003ZM416.531 473.363L416.469 473.259H416.593L416.531 473.363ZM469.285 531.897L438.573 515.126L437.635 551.711L419.459 562.469V478.685L470.007 508.617L469.285 531.887V531.897ZM473.079 503.264L422.572 473.352L440.851 462.409L490.492 492.135L473.069 503.264H473.079ZM494.894 522.583L475.605 533.579L476.193 508.545L494.894 496.158V522.594V522.583Z" fill="#FE0000"/>
<path d="M416.469 473.27L416.531 473.373L416.593 473.27H416.469ZM440.851 455.199L439.563 455.972L440.862 455.209L440.851 455.199Z" fill="#FE0000"/>
<path d="M416.593 473.27L416.531 473.363L416.469 473.27H416.593Z" fill="#FE0000"/>
<path d="M394.2 463.729L389.623 461.026L389.654 460.985L394.2 463.729Z" fill="#FE0000"/>
<path d="M416.593 473.27L416.531 473.363L416.469 473.27H416.593Z" fill="#FE0000"/>
<path d="M416.593 473.27L416.531 473.363L416.469 473.27H416.593Z" fill="#FE0000"/>
<path d="M-37.9261 473.641L-12.08 458.799V420.728L-38.5963 406.793L-68.1435 423.843L-68.6384 391.579L-93.5876 376.602L-121.619 394.611V422.987L-147.785 406.721L-177.59 425.4H-177.796L-178.198 456.684L-148.991 472.073L-178.776 491.103V522.325L-177.147 523.78C-175.301 525.42 -157.28 536.91 -151.806 540.386L-121.619 522.79V552L-93.6391 569.947L-66.4218 553.836L-65.6589 524.172L-34.9363 539.427L-9.48196 524.925V491.052L-37.9364 473.641H-37.9261ZM-17.2142 454.662L-43.8954 469.979L-63.3393 458.076L-17.2142 430.454V454.662ZM-72.4735 434.59L-38.3694 413.838L-18.2967 424.389L-69.2467 454.466L-70.5354 455.23L-70.8343 455.405L-90.4947 467.184V412.012L-73.3396 401.605L-72.4735 434.59ZM-148.919 413.91L-121.609 430.269V452.228L-167.085 425.297L-148.929 413.92L-148.919 413.91ZM-172.023 519.943V495.229L-152.012 507.514L-151.847 533.083C-160.394 527.627 -169.013 522.047 -172.033 519.943H-172.023ZM-167.198 490.99L-136.775 471.568L-172.002 453.002L-171.693 429.031L-120.073 460.212L-115.557 462.935L-115.475 462.986L-99.3919 472.517L-148.95 502.191L-167.198 490.99ZM-96.6186 560.726L-115.465 548.648V519.21L-96.6186 508.226V560.737V560.726ZM-96.6186 501.129L-146.146 530.629L-145.898 507.524L-96.6186 478.014V501.129ZM-96.6186 467.019L-115.465 455.869V398.871L-96.6186 411.93V467.029V467.019ZM-111.32 394.725L-93.5464 383.781L-74.5664 395.179L-93.5258 406.669L-111.32 394.725ZM-93.3917 472.506L-93.4536 472.403H-93.3299L-93.3917 472.506ZM-41.0293 530.598L-71.5148 513.95L-72.4426 550.267L-90.4844 560.943V477.777L-40.3076 507.493L-41.019 530.598H-41.0293ZM-37.2663 502.181L-87.3915 472.486L-69.2467 461.625L-19.9668 491.134L-37.256 502.181H-37.2663ZM-15.6059 521.346L-34.7508 532.258L-34.1631 507.411L-15.5956 495.116V521.356L-15.6059 521.346Z" fill="#FE0000"/>
<path d="M-93.4536 472.403L-93.3917 472.506L-93.3299 472.403H-93.4536ZM-69.2467 454.466L-70.5251 455.23L-69.2364 454.466H-69.2467Z" fill="#FE0000"/>
<path d="M-93.3299 472.403L-93.3917 472.506L-93.4536 472.403H-93.3299Z" fill="#FE0000"/>
<path d="M-115.557 462.935L-120.094 460.253L-120.073 460.212L-115.557 462.935Z" fill="#FE0000"/>
<path d="M-93.3299 472.403L-93.3917 472.506L-93.4536 472.403H-93.3299Z" fill="#FE0000"/>
<path d="M-93.3299 472.403L-93.3917 472.506L-93.4536 472.403H-93.3299Z" fill="#FE0000"/>
<path d="M-208.467 474.507L-182.549 459.624V421.46L-209.137 407.484L-238.757 424.585L-239.252 392.239L-264.263 377.221L-292.357 395.272V423.719L-318.584 407.412L-348.461 426.143H-348.668L-349.07 457.509L-319.79 472.94L-349.647 492.011V523.316L-348.018 524.77C-346.173 526.42 -328.1 537.931 -322.615 541.417L-292.357 523.769V553.052L-264.304 571.041L-237.015 554.888L-236.252 525.141L-205.457 540.438L-179.941 525.905V491.949L-208.457 474.497L-208.467 474.507ZM-187.704 455.488L-214.457 470.836L-233.942 458.902L-187.704 431.218V455.488ZM-243.097 435.364L-208.911 414.56L-188.786 425.142L-239.86 455.302L-241.149 456.065L-241.448 456.24L-261.16 468.051V412.734L-243.963 402.306L-243.097 435.374V435.364ZM-319.739 414.632L-292.357 431.032V453.043L-337.946 426.04L-319.739 414.632ZM-342.904 520.923V496.147L-322.842 508.463L-322.677 534.094C-331.244 528.628 -339.884 523.027 -342.915 520.923H-342.904ZM-338.059 491.908L-307.563 472.434L-342.884 453.817L-342.575 429.794L-290.82 461.047L-286.294 463.78L-286.212 463.832L-270.088 473.383L-319.77 503.13L-338.069 491.898L-338.059 491.908ZM-267.315 561.809L-286.212 549.7V520.19L-267.315 509.174V561.809ZM-267.315 502.068L-316.966 531.639L-316.718 508.483L-267.315 478.901V502.068ZM-267.315 467.875L-286.212 456.694V399.552L-267.315 412.641V467.875ZM-282.047 395.395L-264.232 384.431L-245.2 395.849L-264.211 407.37L-282.047 395.395ZM-264.067 473.373L-264.129 473.27H-264.005L-264.067 473.373ZM-211.581 531.619L-242.149 514.93L-243.077 551.34L-261.17 562.046V478.674L-210.87 508.463L-211.581 531.619ZM-207.808 503.12L-258.057 473.352L-239.87 462.46L-190.467 492.042L-207.797 503.12H-207.808ZM-186.096 522.336L-205.292 533.269L-204.704 508.36L-186.096 496.034V522.336Z" fill="#FE0000"/>
<path d="M-264.129 473.27L-264.067 473.373L-264.005 473.27H-264.129ZM-239.87 455.292L-241.159 456.065L-239.87 455.302V455.292Z" fill="#FE0000"/>
<path d="M-264.005 473.27L-264.067 473.373L-264.129 473.27H-264.005Z" fill="#FE0000"/>
<path d="M-286.294 463.78L-290.841 461.088L-290.82 461.047L-286.294 463.78Z" fill="#FE0000"/>
<path d="M-264.005 473.27L-264.067 473.373L-264.129 473.27H-264.005Z" fill="#FE0000"/>
<path d="M-264.005 473.27L-264.067 473.373L-264.129 473.27H-264.005Z" fill="#FE0000"/>
<path d="M301.218 474.507L327.312 459.52V421.089L300.538 407.02L270.712 424.235L270.217 391.672L245.031 376.551L216.741 394.725V423.368L190.328 406.948L160.235 425.802H160.028L159.626 457.385L189.112 472.919L159.049 492.125V523.646L160.688 525.11C162.544 526.771 180.751 538.364 186.277 541.882L216.741 524.11V553.599L244.99 571.711L272.475 555.445L273.238 525.492L304.249 540.902L329.941 526.266V492.073L301.218 474.497V474.507ZM322.126 455.353L295.187 470.815L275.568 458.799L322.136 430.918V455.353H322.126ZM266.341 435.085L300.765 414.137L321.033 424.792L269.599 455.157L268.001 456.096L248.155 467.989V412.29L265.475 401.79L266.351 435.085H266.341ZM189.163 414.219L216.741 430.733V452.899L170.833 425.71L189.163 414.219ZM165.843 521.253V496.302L186.05 508.7L186.225 534.517C177.606 529.009 168.905 523.367 165.853 521.253H165.843ZM170.719 492.032L201.432 472.424L165.864 453.682L166.173 429.485L222.845 463.718L222.927 463.77L239.165 473.393L189.132 503.347L170.709 492.042L170.719 492.032ZM241.959 562.428L222.927 550.226V520.51L241.959 509.422V562.428ZM241.959 502.264L191.957 532.042L192.205 508.721L241.959 478.932V502.264ZM241.959 467.824L222.927 456.56V399.016L241.959 412.198V467.824ZM227.123 394.849L245.072 383.802L264.227 395.303L245.082 406.906L227.123 394.849ZM245.227 473.363L245.165 473.259H245.289L245.227 473.363ZM298.084 532.021L267.3 515.219L266.362 551.887L248.144 562.665V478.705L298.795 508.7L298.074 532.021H298.084ZM301.888 503.326L251.279 473.352L269.599 462.388L319.342 492.176L301.888 503.326ZM323.745 522.676L304.414 533.692L305.002 508.607L323.745 496.189V522.676Z" fill="#FE0000"/>
<path d="M245.165 473.259L245.227 473.363L245.289 473.259H245.165ZM269.599 455.157L268.31 455.931L269.609 455.168L269.599 455.157Z" fill="#FE0000"/>
<path d="M245.289 473.259L245.227 473.363L245.165 473.259H245.289Z" fill="#FE0000"/>
<path d="M222.845 463.708L218.267 460.995L218.288 460.954L222.845 463.708Z" fill="#FE0000"/>
<path d="M245.289 473.259L245.227 473.363L245.165 473.259H245.289Z" fill="#FE0000"/>
<path d="M245.289 473.259L245.227 473.363L245.165 473.259H245.289Z" fill="#FE0000"/>
<path d="M130.955 474.507L156.688 459.737V421.852L130.295 407.979L100.893 424.957L100.408 392.848L75.5721 377.943L47.6744 395.87V424.111L21.6324 407.927L-8.0386 426.524H-8.24481L-8.63657 457.664L20.4365 472.981L-9.20358 491.918V522.996L-7.58502 524.44C-5.74991 526.07 12.1888 537.508 17.6425 540.974L47.6847 523.46V552.526L75.5309 570.391L102.625 554.352L103.377 524.821L133.955 540.004L159.286 525.574V491.867L130.966 474.538L130.955 474.507ZM151.574 455.622L125.017 470.866L105.666 459.025L151.574 431.537V455.632V455.622ZM96.5728 435.642L130.512 414.983L150.492 425.493L99.7791 455.436L98.5007 456.189L98.2017 456.364L78.6341 468.082V413.167L95.7068 402.811L96.5728 435.642ZM20.4777 415.065L47.6641 431.341V453.198L2.405 426.39L20.4777 415.065ZM-2.51266 520.593V495.993L17.4055 508.215L17.5704 533.661C9.065 528.236 0.487427 522.676 -2.51266 520.582V520.593ZM2.2916 491.774L32.5709 472.445L-2.49207 453.961L-2.18277 430.104L49.2002 461.14L53.6952 463.853L53.7777 463.904L69.7885 473.383L20.4571 502.924L2.2916 491.774ZM72.5309 561.18L53.7674 549.153V519.85L72.5309 508.917V561.18ZM72.5309 501.862L23.2304 531.216L23.4778 508.226L72.5309 478.86V501.862ZM72.5309 467.917L53.7674 456.818V400.078L72.5309 413.074V467.917ZM57.9119 395.963L75.6031 385.071L94.4902 396.406L75.6134 407.845L57.9015 395.952L57.9119 395.963ZM75.7578 473.373L75.6959 473.27H75.8196L75.7578 473.373ZM127.873 531.206L97.5316 514.641L96.6037 550.793L78.6444 561.428V478.654L128.584 508.226L127.873 531.216V531.206ZM131.615 502.914L81.727 473.363L99.7894 462.553L148.832 491.918L131.625 502.914H131.615ZM153.172 521.995L134.11 532.857L134.687 508.122L153.162 495.879V521.995H153.172Z" fill="#FE0000"/>
<path d="M75.6959 473.28L75.7578 473.383L75.8196 473.28H75.6959ZM99.7791 455.426L98.5007 456.189L99.7791 455.436V455.426Z" fill="#FE0000"/>
<path d="M75.8196 473.28L75.7578 473.373L75.6959 473.28H75.8196Z" fill="#FE0000"/>
<path d="M53.6952 463.853L49.1693 461.181L49.2002 461.14L53.6952 463.853Z" fill="#FE0000"/>
<path d="M75.8196 473.28L75.7578 473.373L75.6959 473.28H75.8196Z" fill="#FE0000"/>
<path d="M75.8196 473.28L75.7578 473.373L75.6959 473.28H75.8196Z" fill="#FE0000"/>
<path d="M555.741 617.796L581.783 602.84V564.491L555.071 550.443L525.307 567.627L524.813 535.126L499.678 520.036L471.44 538.179V566.76L445.078 550.37L415.046 569.194H414.84L414.438 600.715L443.862 616.218L413.861 635.382V666.842L415.5 668.306C417.356 669.957 435.521 681.529 441.037 685.036L471.44 667.306V696.733L499.626 714.814L527.05 698.579L527.813 668.688L558.762 684.057L584.402 669.451V635.331L555.741 617.796ZM576.608 598.684L549.721 614.114L530.132 602.129L576.598 574.3V598.684H576.608ZM520.947 578.457L555.298 557.549L575.526 568.184L524.194 598.488L522.895 599.251L522.596 599.426L502.791 611.288V555.703L520.07 545.224L520.947 578.447V578.457ZM443.913 557.622L471.43 574.104V596.229L425.614 569.091L443.903 557.632L443.913 557.622ZM420.644 664.438V639.539L440.81 651.917L440.975 677.682C432.367 672.185 423.686 666.563 420.644 664.438ZM425.511 635.279L456.161 615.713L420.665 597.013L420.974 572.866L477.533 607.018L477.615 607.069L493.822 616.672L443.893 646.574L425.511 635.29V635.279ZM496.606 705.531L477.615 693.36V663.706L496.606 652.639V705.542V705.531ZM496.606 645.491L446.707 675.207L446.955 651.937L496.606 622.211V645.491ZM496.606 611.123L477.615 599.88V542.449L496.606 555.6V611.123ZM481.801 538.292L499.709 527.266L518.833 538.746L499.729 550.329L481.801 538.292ZM499.863 616.651L499.802 616.548H499.925L499.863 616.651ZM552.618 675.186L521.905 658.415L520.967 695L502.791 705.758V621.974L553.339 651.906L552.618 675.176V675.186ZM556.411 646.543L505.905 616.631L524.184 605.687L573.824 635.413L556.401 646.543H556.411ZM578.227 665.862L558.937 676.857L559.525 651.824L578.227 639.436V665.872V665.862Z" fill="#FE0000"/>
<path d="M499.802 616.548L499.863 616.651L499.925 616.548H499.802ZM524.184 598.477L522.895 599.251L524.194 598.488L524.184 598.477Z" fill="#FE0000"/>
<path d="M499.925 616.548L499.863 616.651L499.802 616.548H499.925Z" fill="#FE0000"/>
<path d="M477.533 607.007L472.955 604.305L472.986 604.264L477.533 607.007Z" fill="#FE0000"/>
<path d="M499.925 616.548L499.863 616.651L499.802 616.548H499.925Z" fill="#FE0000"/>
<path d="M499.925 616.548L499.863 616.651L499.802 616.548H499.925Z" fill="#FE0000"/>
<path d="M45.4063 616.92L71.2524 602.077V564.006L44.7362 550.071L15.1889 567.121L14.694 534.857L-10.2552 519.881L-38.287 537.89V566.265L-64.4527 549.999L-94.2577 568.679H-94.4639L-94.866 599.963L-65.6589 615.352L-95.4433 634.382V665.604L-93.8144 667.058C-91.969 668.698 -73.9478 680.189 -68.4734 683.665L-38.287 666.068V695.279L-10.3067 713.226L16.9106 697.115L17.6735 667.45L48.3961 682.705L73.8505 668.203V634.33L45.396 616.92H45.4063ZM66.1183 597.951L39.437 613.268L19.9931 601.365L66.1183 573.743V597.951ZM10.8589 577.869L44.963 557.116L65.0358 567.668L14.0858 597.745L12.7971 598.508L12.4981 598.684L-7.16232 610.463V555.291L9.99286 544.883L10.8589 577.869ZM-65.5868 557.199L-38.2766 573.557V595.517L-83.7523 568.586L-65.5971 557.209L-65.5868 557.199ZM-88.6906 663.221V638.508L-68.6796 650.792L-68.5147 676.362C-77.0613 670.906 -85.6801 665.325 -88.7009 663.221H-88.6906ZM-83.8657 634.279L-53.442 614.857L-88.67 596.291L-88.3606 572.32L-36.7405 603.5L-32.2249 606.223L-32.1424 606.275L-16.0594 615.806L-65.6177 645.48L-83.8657 634.279ZM-13.2965 704.005L-32.1424 691.926V662.489L-13.2965 651.504V704.015V704.005ZM-13.2965 644.408L-62.8238 673.907L-62.5764 650.803L-13.2965 621.293V644.408ZM-13.2965 610.298L-32.1424 599.148V542.15L-13.2965 555.208V610.308V610.298ZM-27.9877 538.014L-10.2139 527.07L8.76602 538.468L-10.1933 549.958L-27.9877 538.014ZM-10.0593 615.785L-10.1212 615.682H-9.99744L-10.0593 615.785ZM42.3031 673.886L11.8177 657.239L10.8898 693.556L-7.15201 704.232V621.066L43.0248 650.782L42.3134 673.886H42.3031ZM46.0661 645.46L-4.05911 615.764L14.0858 604.903L63.3656 634.413L46.0764 645.46H46.0661ZM67.7266 664.634L48.5817 675.547L49.1693 650.699L67.7369 638.405V664.645L67.7266 664.634Z" fill="#FE0000"/>
<path d="M-10.1212 615.692L-10.0593 615.795L-9.99744 615.692H-10.1212ZM14.0858 597.745L12.8074 598.508L14.0961 597.745H14.0858Z" fill="#FE0000"/>
<path d="M-9.99744 615.692L-10.0593 615.785L-10.1212 615.692H-9.99744Z" fill="#FE0000"/>
<path d="M-32.2249 606.223L-36.7611 603.531L-36.7405 603.5L-32.2249 606.223Z" fill="#FE0000"/>
<path d="M-9.99744 615.692L-10.0593 615.785L-10.1212 615.692H-9.99744Z" fill="#FE0000"/>
<path d="M-9.99744 615.692L-10.0593 615.785L-10.1212 615.692H-9.99744Z" fill="#FE0000"/>
<path d="M-125.135 617.796L-99.2166 602.912V564.749L-125.805 550.773L-155.425 567.874L-155.919 535.528L-180.93 520.51L-209.024 538.56V567.008L-235.252 550.701L-265.129 569.432H-265.335L-265.737 600.798L-236.458 616.228L-266.314 635.3V666.604L-264.686 668.059C-262.84 669.709 -244.767 681.22 -239.283 684.706L-209.024 667.058V696.341L-180.972 714.33L-153.682 698.177L-152.919 668.43L-122.125 683.726L-96.6083 669.193V635.238L-125.125 617.786L-125.135 617.796ZM-104.371 598.776L-131.125 614.124L-150.61 602.19L-104.371 574.506V598.776ZM-159.765 578.643L-125.578 557.838L-105.454 568.421L-156.528 598.58L-157.816 599.344L-158.115 599.519L-177.827 611.329V556.013L-160.631 545.585L-159.765 578.653V578.643ZM-236.406 557.921L-209.024 574.321V596.332L-254.613 569.328L-236.406 557.921ZM-259.572 664.211V639.436L-239.51 651.752L-239.345 677.383C-247.912 671.916 -256.551 666.316 -259.582 664.211H-259.572ZM-254.727 635.186L-224.231 615.713L-259.551 597.095L-259.242 573.073L-202.962 607.059L-202.88 607.11L-186.755 616.662L-236.437 646.409L-254.737 635.176L-254.727 635.186ZM-183.982 705.098L-202.88 692.989V663.479L-183.982 652.463V705.098ZM-183.982 645.346L-233.633 674.918L-233.386 651.762L-183.982 622.18V645.346ZM-183.982 611.154L-202.88 599.973V542.831L-183.982 555.92V611.154ZM-198.715 538.684L-180.9 527.72L-161.868 539.138L-180.879 550.659L-198.715 538.684ZM-180.735 616.651L-180.796 616.548H-180.673L-180.735 616.651ZM-128.248 674.897L-158.816 658.208L-159.744 694.619L-177.838 705.325V621.953L-127.537 651.741L-128.248 674.897ZM-124.475 646.409L-174.724 616.641L-156.538 605.749L-107.134 635.331L-124.465 646.409H-124.475ZM-102.763 665.625L-121.96 676.558L-121.372 651.648L-102.763 639.323V665.625Z" fill="#FE0000"/>
<path d="M-180.796 616.559L-180.735 616.662L-180.673 616.559H-180.796ZM-156.538 598.57L-157.827 599.344L-156.538 598.58V598.57Z" fill="#FE0000"/>
<path d="M-180.673 616.559L-180.735 616.651L-180.796 616.559H-180.673Z" fill="#FE0000"/>
<path d="M-202.962 607.059L-207.509 604.367L-207.488 604.336L-202.962 607.059Z" fill="#FE0000"/>
<path d="M-180.673 616.559L-180.735 616.651L-180.796 616.559H-180.673Z" fill="#FE0000"/>
<path d="M-180.673 616.559L-180.735 616.651L-180.796 616.559H-180.673Z" fill="#FE0000"/>
<path d="M384.551 617.796L410.644 602.809V564.378L383.87 550.309L354.045 567.523L353.55 534.961L328.363 519.84L300.074 538.014V566.657L273.661 550.236L243.567 569.091H243.361L242.959 600.674L272.444 616.208L242.381 635.413V666.934L244.021 668.399C245.876 670.06 264.083 681.653 269.609 685.17L300.074 667.399V696.888L328.322 715L355.807 698.734L356.57 668.781L387.582 684.191L413.273 669.554V635.362L384.551 617.786V617.796ZM405.458 598.642L378.52 614.104L358.9 602.087L405.469 574.207V598.642H405.458ZM349.673 578.374L384.097 557.426L404.366 568.08L352.931 598.446L351.333 599.385L331.487 611.277V555.579L348.807 545.079L349.684 578.374H349.673ZM272.496 557.498L300.074 574.011V596.177L254.165 568.988L272.496 557.498ZM249.175 664.531V639.58L269.382 651.978L269.557 677.796C260.939 672.288 252.237 666.646 249.186 664.531H249.175ZM254.052 635.31L284.764 615.702L249.196 596.961L249.505 572.763L301.62 604.243L306.177 606.997L306.26 607.049L322.497 616.672L272.465 646.625L254.042 635.321L254.052 635.31ZM325.291 705.707L306.26 693.505V663.789L325.291 652.701V705.707ZM325.291 645.542L275.29 675.32L275.537 651.999L325.291 622.211V645.542ZM325.291 611.112L306.26 599.849V542.305L325.291 555.486V611.112ZM310.456 538.127L328.405 527.08L347.56 538.581L328.415 550.185L310.456 538.127ZM328.559 616.651L328.497 616.548H328.621L328.559 616.651ZM381.417 675.299L350.632 658.497L349.694 695.165L331.477 705.944V621.984L382.128 651.978L381.406 675.299H381.417ZM385.221 646.605L334.611 616.631L352.931 605.666L402.675 635.455L385.221 646.605ZM407.077 665.965L387.747 676.981L388.334 651.896L407.077 639.477V665.965Z" fill="#FE0000"/>
<path d="M328.497 616.548L328.559 616.651L328.621 616.548H328.497ZM352.931 598.436L351.642 599.21L352.941 598.446L352.931 598.436Z" fill="#FE0000"/>
<path d="M328.621 616.548L328.559 616.651L328.497 616.548H328.621Z" fill="#FE0000"/>
<path d="M306.177 606.987L301.6 604.284L301.62 604.243L306.177 606.987Z" fill="#FE0000"/>
<path d="M328.621 616.548L328.559 616.651L328.497 616.548H328.621Z" fill="#FE0000"/>
<path d="M328.621 616.548L328.559 616.651L328.497 616.548H328.621Z" fill="#FE0000"/>
<path d="M214.288 617.786L240.021 603.016V565.13L213.628 551.258L184.225 568.235L183.74 536.126L158.905 521.222L131.007 539.148V567.389L104.965 551.206L75.2938 569.803H75.0876L74.6959 600.942L103.769 616.259L74.1288 635.197V666.274L75.7474 667.718C77.5826 669.348 95.5212 680.787 100.975 684.253L131.017 666.739V695.805L158.863 713.669L185.957 697.63L186.71 668.1L217.288 683.283L242.618 668.853V635.145L214.298 617.817L214.288 617.786ZM234.907 598.91L208.349 614.155L188.998 602.314L234.907 574.826V598.921V598.91ZM179.905 578.921L213.844 558.261L233.824 568.772L183.112 598.714L181.833 599.467L181.534 599.643L161.967 611.36V556.446L179.039 546.09L179.905 578.921ZM103.81 558.344L130.997 574.62V596.476L85.7374 569.669L103.81 558.344ZM80.8198 663.871V639.271L100.738 651.494L100.903 676.94C92.3975 671.514 83.8198 665.955 80.8198 663.861V663.871ZM85.624 635.063L115.903 615.733L80.8404 597.25L81.1497 573.392L137.028 607.141L137.11 607.193L153.121 616.672L103.79 646.213L85.624 635.063ZM155.863 704.469L137.1 692.442V663.139L155.863 652.205V704.469ZM155.863 645.15L106.563 674.505L106.81 651.514L155.863 622.149V645.15ZM155.863 611.195L137.1 600.097V543.357L155.863 556.353V611.195ZM141.244 539.251L158.936 528.359L177.823 539.695L158.946 551.134L141.234 539.241L141.244 539.251ZM159.09 616.662L159.028 616.559H159.152L159.09 616.662ZM211.205 674.485L180.864 657.92L179.936 694.072L161.977 704.706V621.932L211.917 651.504L211.205 674.495V674.485ZM214.948 646.192L165.059 616.641L183.122 605.831L232.165 635.197L214.958 646.192H214.948ZM236.505 665.274L217.442 676.135L218.02 651.401L236.495 639.158V665.274H236.505Z" fill="#FE0000"/>
<path d="M159.028 616.559L159.09 616.662L159.152 616.559H159.028ZM183.112 598.704L181.833 599.467L183.112 598.714V598.704Z" fill="#FE0000"/>
<path d="M159.152 616.559L159.09 616.662L159.028 616.559H159.152Z" fill="#FE0000"/>
<path d="M137.028 607.141L132.502 604.47L132.522 604.429L137.028 607.141Z" fill="#FE0000"/>
<path d="M159.152 616.559L159.09 616.662L159.028 616.559H159.152Z" fill="#FE0000"/>
<path d="M159.152 616.559L159.09 616.662L159.028 616.559H159.152Z" fill="#FE0000"/>
</g>
</svg>
