<svg width="731" height="370" viewBox="0 0 731 370" fill="none" xmlns="http://www.w3.org/2000/svg">
<g clip-path="url(#clip0_2706_66)">
<rect width="731" height="370" fill="white"/>
<path d="M725.37 78.8312L777.191 47.9489V-31.2249L724.021 -60.2315L664.793 -24.7526L663.8 -91.8535L613.761 -123L557.562 -85.5397V-26.5226L505.104 -60.3636L445.342 -21.5032H444.934L444.145 43.5636L502.712 75.5818L443 115.156V180.117L446.258 183.128C449.949 186.536 486.091 210.444 497.061 217.683L557.587 181.068V241.828L613.685 279.157L668.255 245.633L669.782 183.921L731.377 215.648L782.409 185.479V115.023L725.37 78.8048V78.8312ZM766.909 39.3632L713.407 71.2229L674.44 46.4695L766.909 -10.989V39.3632ZM656.114 -2.4032L724.479 -45.5697L764.72 -23.6166L662.579 38.9669L660.008 40.552L659.397 40.9218L619.971 65.411V-49.3475L654.358 -70.9836L656.088 -2.37679L656.114 -2.4032ZM502.813 -45.3848L557.587 -11.3588V34.3174L466.416 -21.7145L502.813 -45.3848ZM456.49 175.15V123.741L496.628 149.287L496.959 202.466C479.83 191.133 462.547 179.509 456.49 175.124V175.15ZM466.187 114.944L527.171 74.5515L456.541 35.9289L457.152 -13.9213L560.667 50.9341L569.728 56.5875L569.906 56.6932L602.155 76.5065L502.788 138.218L466.187 114.918V114.944ZM607.678 259.977L569.881 234.854V173.618L607.678 150.767V259.977ZM607.678 135.999L508.362 197.367L508.846 149.314L607.652 87.9453V135.999H607.678ZM607.678 65.0676L569.881 41.8729V-76.7162L607.678 -49.5588V65.0412V65.0676ZM578.229 -85.3019L613.863 -108.048L651.914 -84.3509L613.888 -60.4429L578.229 -85.3019ZM614.168 76.4801L614.041 76.2687H614.295L614.168 76.4801ZM719.134 197.315L657.997 162.681L656.139 238.236L619.971 260.453V87.4698L720.56 149.287L719.134 197.341V197.315ZM726.694 138.192L626.182 76.4272L662.553 53.8401L761.36 115.208L726.694 138.192ZM770.116 178.083L731.733 200.775L732.904 149.076L770.116 123.504V178.083Z" fill="#FE0000"/>
<path d="M61.3139 318H51.4276L66.4915 274.364H78.3807L93.4233 318H83.5369L72.6065 284.335H72.2656L61.3139 318ZM60.696 300.848H84.0483V308.05H60.696V300.848ZM107.582 299.08V318H98.505V285.273H107.156V291.047H107.539C108.263 289.143 109.478 287.638 111.183 286.53C112.887 285.408 114.954 284.847 117.383 284.847C119.656 284.847 121.637 285.344 123.327 286.338C125.018 287.332 126.332 288.753 127.269 290.599C128.207 292.432 128.675 294.619 128.675 297.162V318H119.599V298.781C119.613 296.778 119.102 295.216 118.065 294.094C117.028 292.957 115.6 292.389 113.782 292.389C112.56 292.389 111.481 292.652 110.543 293.178C109.62 293.703 108.896 294.47 108.37 295.479C107.859 296.473 107.596 297.673 107.582 299.08ZM135.829 318V285.273H144.906V318H135.829ZM140.389 281.054C139.039 281.054 137.882 280.607 136.916 279.712C135.964 278.803 135.488 277.716 135.488 276.452C135.488 275.202 135.964 274.129 136.916 273.234C137.882 272.325 139.039 271.871 140.389 271.871C141.738 271.871 142.889 272.325 143.841 273.234C144.806 274.129 145.289 275.202 145.289 276.452C145.289 277.716 144.806 278.803 143.841 279.712C142.889 280.607 141.738 281.054 140.389 281.054ZM152.177 318V285.273H160.827V291.047H161.211C161.893 289.129 163.029 287.616 164.62 286.509C166.211 285.401 168.114 284.847 170.33 284.847C172.575 284.847 174.485 285.408 176.062 286.53C177.638 287.638 178.69 289.143 179.215 291.047H179.556C180.224 289.172 181.431 287.673 183.178 286.551C184.94 285.415 187.021 284.847 189.421 284.847C192.475 284.847 194.954 285.82 196.857 287.766C198.775 289.697 199.734 292.439 199.734 295.99V318H190.678V297.78C190.678 295.962 190.195 294.598 189.229 293.689C188.263 292.78 187.056 292.325 185.607 292.325C183.96 292.325 182.674 292.851 181.751 293.902C180.827 294.939 180.366 296.31 180.366 298.014V318H171.566V297.588C171.566 295.983 171.104 294.705 170.181 293.753C169.272 292.801 168.072 292.325 166.58 292.325C165.572 292.325 164.663 292.581 163.853 293.092C163.058 293.589 162.425 294.293 161.957 295.202C161.488 296.097 161.254 297.148 161.254 298.355V318H152.177ZM216.236 318.618C214.148 318.618 212.287 318.256 210.653 317.531C209.02 316.793 207.727 315.706 206.776 314.271C205.838 312.822 205.369 311.018 205.369 308.859C205.369 307.041 205.703 305.514 206.371 304.278C207.038 303.043 207.947 302.048 209.098 301.295C210.249 300.543 211.555 299.974 213.018 299.591C214.496 299.207 216.044 298.938 217.663 298.781C219.567 298.582 221.101 298.398 222.266 298.227C223.43 298.043 224.276 297.773 224.801 297.418C225.327 297.062 225.589 296.537 225.589 295.841V295.713C225.589 294.364 225.163 293.32 224.311 292.581C223.473 291.842 222.28 291.473 220.732 291.473C219.098 291.473 217.798 291.835 216.832 292.56C215.866 293.27 215.227 294.165 214.915 295.244L206.52 294.562C206.946 292.574 207.784 290.855 209.034 289.406C210.284 287.943 211.896 286.821 213.871 286.04C215.859 285.244 218.161 284.847 220.774 284.847C222.592 284.847 224.332 285.06 225.994 285.486C227.67 285.912 229.155 286.572 230.447 287.467C231.754 288.362 232.784 289.513 233.537 290.919C234.29 292.311 234.666 293.98 234.666 295.926V318H226.058V313.462H225.803C225.277 314.484 224.574 315.386 223.693 316.168C222.812 316.935 221.754 317.538 220.518 317.979C219.283 318.405 217.855 318.618 216.236 318.618ZM218.835 312.354C220.17 312.354 221.349 312.091 222.372 311.565C223.395 311.026 224.197 310.301 224.78 309.392C225.362 308.483 225.653 307.453 225.653 306.303V302.83C225.369 303.014 224.979 303.185 224.482 303.341C223.999 303.483 223.452 303.618 222.841 303.746C222.23 303.859 221.619 303.966 221.009 304.065C220.398 304.151 219.844 304.229 219.347 304.3C218.281 304.456 217.351 304.705 216.555 305.045C215.76 305.386 215.142 305.848 214.702 306.43C214.261 306.999 214.041 307.709 214.041 308.561C214.041 309.797 214.489 310.741 215.384 311.395C216.293 312.034 217.443 312.354 218.835 312.354ZM259.116 285.273V292.091H239.407V285.273H259.116ZM243.881 277.432H252.958V307.943C252.958 308.781 253.086 309.435 253.342 309.903C253.597 310.358 253.952 310.678 254.407 310.862C254.876 311.047 255.415 311.139 256.026 311.139C256.452 311.139 256.879 311.104 257.305 311.033C257.731 310.947 258.058 310.884 258.285 310.841L259.712 317.595C259.258 317.737 258.619 317.901 257.795 318.085C256.971 318.284 255.969 318.405 254.79 318.447C252.603 318.533 250.685 318.241 249.038 317.574C247.404 316.906 246.133 315.869 245.224 314.463C244.315 313.057 243.867 311.281 243.881 309.136V277.432ZM265.028 318V285.273H274.105V318H265.028ZM269.588 281.054C268.239 281.054 267.081 280.607 266.115 279.712C265.163 278.803 264.688 277.716 264.688 276.452C264.688 275.202 265.163 274.129 266.115 273.234C267.081 272.325 268.239 271.871 269.588 271.871C270.938 271.871 272.088 272.325 273.04 273.234C274.006 274.129 274.489 275.202 274.489 276.452C274.489 277.716 274.006 278.803 273.04 279.712C272.088 280.607 270.938 281.054 269.588 281.054ZM296.163 318.639C292.853 318.639 289.991 317.936 287.576 316.53C285.176 315.109 283.322 313.135 282.015 310.607C280.708 308.064 280.055 305.116 280.055 301.764C280.055 298.384 280.708 295.429 282.015 292.901C283.322 290.358 285.176 288.384 287.576 286.977C289.991 285.557 292.853 284.847 296.163 284.847C299.473 284.847 302.328 285.557 304.728 286.977C307.143 288.384 309.004 290.358 310.311 292.901C311.618 295.429 312.271 298.384 312.271 301.764C312.271 305.116 311.618 308.064 310.311 310.607C309.004 313.135 307.143 315.109 304.728 316.53C302.328 317.936 299.473 318.639 296.163 318.639ZM296.206 311.608C297.711 311.608 298.968 311.182 299.977 310.33C300.985 309.463 301.745 308.284 302.257 306.793C302.782 305.301 303.045 303.604 303.045 301.7C303.045 299.797 302.782 298.099 302.257 296.608C301.745 295.116 300.985 293.937 299.977 293.071C298.968 292.205 297.711 291.771 296.206 291.771C294.686 291.771 293.407 292.205 292.37 293.071C291.348 293.937 290.574 295.116 290.048 296.608C289.537 298.099 289.281 299.797 289.281 301.7C289.281 303.604 289.537 305.301 290.048 306.793C290.574 308.284 291.348 309.463 292.37 310.33C293.407 311.182 294.686 311.608 296.206 311.608ZM327.25 299.08V318H318.173V285.273H326.824V291.047H327.207C327.931 289.143 329.146 287.638 330.85 286.53C332.555 285.408 334.622 284.847 337.051 284.847C339.324 284.847 341.305 285.344 342.995 286.338C344.686 287.332 346 288.753 346.937 290.599C347.875 292.432 348.343 294.619 348.343 297.162V318H339.267V298.781C339.281 296.778 338.77 295.216 337.733 294.094C336.696 292.957 335.268 292.389 333.45 292.389C332.228 292.389 331.149 292.652 330.211 293.178C329.288 293.703 328.564 294.47 328.038 295.479C327.527 296.473 327.264 297.673 327.25 299.08Z" fill="#FE0000"/>
<path d="M53.3026 212.364H66.3636L77.4432 239.381H77.9545L89.0341 212.364H102.095V256H91.8253V229.196H91.4631L80.9801 255.723H74.4176L63.9347 229.047H63.5724V256H53.3026V212.364ZM118.113 256H106.777L121.5 212.364H135.542L150.265 256H138.929L128.681 223.358H128.34L118.113 256ZM116.6 238.827H140.293V246.838H116.6V238.827ZM171.092 256H154.963V212.364H171.071C175.517 212.364 179.345 213.237 182.555 214.984C185.779 216.717 188.265 219.217 190.012 222.484C191.76 225.737 192.633 229.629 192.633 234.161C192.633 238.706 191.76 242.612 190.012 245.879C188.279 249.146 185.801 251.653 182.576 253.401C179.352 255.134 175.524 256 171.092 256ZM165.51 247.009H170.687C173.13 247.009 175.197 246.597 176.887 245.773C178.592 244.935 179.877 243.578 180.744 241.703C181.625 239.814 182.065 237.3 182.065 234.161C182.065 231.021 181.625 228.521 180.744 226.661C179.863 224.786 178.564 223.436 176.845 222.612C175.14 221.774 173.038 221.355 170.538 221.355H165.51V247.009ZM231.497 238.741L200.645 251.696V242.023L221.014 234.395L220.716 234.885V233.756L221.014 234.224L200.645 226.618V216.923L231.497 229.878V238.741Z" fill="black"/>
<path d="M394.009 300.741L363.156 313.696V304.023L383.526 296.395L383.227 296.885V295.756L383.526 296.224L363.156 288.618V278.923L394.009 291.878V300.741ZM420.221 274.364H430.619V304.534C430.605 307.361 429.93 309.832 428.595 311.949C427.26 314.051 425.413 315.685 423.055 316.849C420.711 318.014 417.998 318.597 414.916 318.597C412.189 318.597 409.71 318.121 407.48 317.169C405.264 316.217 403.495 314.74 402.174 312.737C400.868 310.734 400.221 308.17 400.235 305.045H410.74C410.782 306.168 410.995 307.126 411.379 307.922C411.777 308.703 412.324 309.293 413.02 309.69C413.716 310.088 414.547 310.287 415.512 310.287C416.521 310.287 417.373 310.074 418.069 309.648C418.765 309.207 419.291 308.561 419.646 307.709C420.015 306.857 420.207 305.798 420.221 304.534V274.364ZM446.466 318.554C444.378 318.554 442.524 318.206 440.905 317.51C439.3 316.8 438.028 315.734 437.091 314.314C436.168 312.879 435.706 311.082 435.706 308.923C435.706 307.105 436.026 305.571 436.665 304.321C437.304 303.071 438.185 302.055 439.307 301.274C440.429 300.493 441.722 299.903 443.185 299.506C444.648 299.094 446.21 298.817 447.872 298.675C449.733 298.504 451.232 298.327 452.368 298.142C453.504 297.943 454.328 297.666 454.839 297.311C455.365 296.942 455.628 296.423 455.628 295.756V295.649C455.628 294.555 455.251 293.71 454.499 293.114C453.746 292.517 452.73 292.219 451.452 292.219C450.074 292.219 448.966 292.517 448.128 293.114C447.29 293.71 446.757 294.534 446.53 295.585L436.92 295.244C437.205 293.256 437.936 291.48 439.115 289.918C440.308 288.341 441.942 287.105 444.016 286.21C446.104 285.301 448.611 284.847 451.537 284.847C453.625 284.847 455.55 285.095 457.311 285.592C459.072 286.075 460.607 286.786 461.913 287.723C463.22 288.646 464.229 289.783 464.939 291.132C465.663 292.482 466.026 294.023 466.026 295.756V318H456.224V313.44H455.969C455.386 314.548 454.641 315.486 453.732 316.253C452.837 317.02 451.778 317.595 450.557 317.979C449.349 318.362 447.986 318.554 446.466 318.554ZM449.683 311.736C450.805 311.736 451.814 311.509 452.709 311.054C453.618 310.599 454.342 309.974 454.882 309.179C455.422 308.369 455.692 307.432 455.692 306.366V303.256C455.393 303.412 455.031 303.554 454.605 303.682C454.193 303.81 453.739 303.93 453.241 304.044C452.744 304.158 452.233 304.257 451.707 304.342C451.182 304.428 450.678 304.506 450.195 304.577C449.214 304.733 448.376 304.974 447.68 305.301C446.999 305.628 446.473 306.054 446.104 306.58C445.749 307.091 445.571 307.702 445.571 308.412C445.571 309.491 445.955 310.315 446.722 310.884C447.503 311.452 448.49 311.736 449.683 311.736ZM472.396 318V285.273H482.304V291.281H482.666C483.348 289.293 484.499 287.723 486.118 286.572C487.737 285.422 489.669 284.847 491.913 284.847C494.186 284.847 496.132 285.429 497.751 286.594C499.371 287.759 500.401 289.321 500.841 291.281H501.182C501.793 289.335 502.986 287.78 504.761 286.615C506.537 285.436 508.632 284.847 511.047 284.847C514.143 284.847 516.658 285.841 518.589 287.83C520.521 289.804 521.487 292.517 521.487 295.969V318H511.068V298.355C511.068 296.722 510.649 295.479 509.811 294.626C508.973 293.76 507.886 293.327 506.551 293.327C505.116 293.327 503.987 293.795 503.163 294.733C502.354 295.656 501.949 296.899 501.949 298.462V318H491.935V298.249C491.935 296.729 491.523 295.528 490.699 294.648C489.875 293.767 488.788 293.327 487.439 293.327C486.53 293.327 485.727 293.547 485.031 293.987C484.335 294.413 483.788 295.024 483.391 295.82C483.007 296.615 482.815 297.553 482.815 298.632V318H472.396Z" fill="black"/>
</g>
<rect x="5" y="5" width="721" height="360" stroke="#FE0000" stroke-width="10"/>
<defs>
<clipPath id="clip0_2706_66">
<rect width="731" height="370" fill="white"/>
</clipPath>
</defs>
</svg>
