<svg width="76" height="74" viewBox="0 0 76 74" fill="none" xmlns="http://www.w3.org/2000/svg">
<path d="M7.63985 38.3042L18.977 38.3386C20.9815 38.3447 22.9015 39.1596 24.3145 40.604C25.7276 42.0484 26.518 44.0041 26.5118 46.0407L26.4535 65.2386C26.4474 67.2753 25.6451 69.2261 24.2234 70.6619C22.8016 72.0977 20.8767 72.9009 18.8722 72.8948L7.53501 72.8605C5.53048 72.8544 3.61051 72.0395 2.19746 70.5951C0.784411 69.1506 -0.00596015 67.195 0.000218575 65.1584L0.0817577 38.2813C0.146092 17.0753 17.117 -0.063174 37.9887 0.000146063C58.8604 0.0634662 75.727 17.3046 75.6627 38.5106L75.5811 65.3877C75.575 67.4243 74.7727 69.3751 73.351 70.8109C71.9292 72.2467 70.0043 73.05 67.9998 73.0439L56.6626 73.0095C54.6581 73.0034 52.7381 72.1885 51.3251 70.7441C49.912 69.2997 49.1216 67.344 49.1278 65.3074L49.1861 46.1095C49.1922 44.0729 49.9945 42.1221 51.4162 40.6862C52.838 39.2504 54.7629 38.4472 56.7674 38.4533L68.1046 38.4877C68.1293 30.3411 64.9678 22.5185 59.3156 16.7409C53.6634 10.9632 45.9835 7.70363 37.9654 7.67931C29.9473 7.65498 22.2477 10.8679 16.5606 16.6111C10.8735 22.3544 7.66456 30.1577 7.63985 38.3042Z" fill="#FE0000"/>
</svg>
