<svg width="83" height="67" viewBox="0 0 83 67" fill="none" xmlns="http://www.w3.org/2000/svg">
<path d="M49.758 23.5578C47.4486 21.4798 44.4536 20.3269 41.3469 20.3202C38.001 20.3202 34.7922 21.6493 32.4263 24.0152C30.0604 26.3811 28.7312 29.5899 28.7312 32.9358C28.7312 36.2817 30.0604 39.4905 32.4263 41.8564C34.7922 44.2223 38.001 45.5514 41.3469 45.5514C44.4536 45.5446 47.4486 44.3918 49.758 42.3137M24.5267 32.9358H37.1423M79.1937 7.70454C79.1937 6.58942 78.7508 5.51998 77.9623 4.73148C77.1738 3.94298 76.1043 3.5 74.9892 3.5H62.3736C62.3736 7.96098 64.1457 12.2393 67.3001 15.3936C70.4545 18.548 74.7328 20.3202 79.1937 20.3202V7.70454ZM3.5 20.3202C7.96098 20.3202 12.2393 18.548 15.3936 15.3936C18.548 12.2393 20.3202 7.96098 20.3202 3.5H7.70454C6.58942 3.5 5.51998 3.94298 4.73148 4.73148C3.94298 5.51998 3.5 6.58942 3.5 7.70454V20.3202ZM79.1937 45.5514C74.7329 45.5519 70.455 47.3242 67.3007 50.4785C64.1464 53.6328 62.3741 57.9107 62.3736 62.3716H74.9892C76.1043 62.3716 77.1738 61.9286 77.9623 61.1401C78.7508 60.3516 79.1937 59.2821 79.1937 58.167V45.5514ZM3.5 58.167C3.5 59.2821 3.94298 60.3516 4.73148 61.1401C5.51998 61.9286 6.58942 62.3716 7.70454 62.3716H20.3202C20.3202 57.9106 18.548 53.6323 15.3936 50.4779C12.2393 47.3235 7.96098 45.5514 3.5 45.5514V58.167Z" stroke="#22B751" stroke-width="7"/>
<rect x="3.52637" y="3.52637" width="75.5" height="59" stroke="#22B751" stroke-width="7"/>
</svg>
