<svg width="103" height="104" viewBox="0 0 103 104" fill="none" xmlns="http://www.w3.org/2000/svg">
<path d="M0 98.5V66L2.5 63.5L23 43.5H47V23H50.5H71.5L96 24.5V39L92.5 87.5L82.5 103.5H65.5L60.5 100.5L0 98.5Z" fill="white"/>
<path d="M0 99.2727C0 101.825 2.10682 104 4.68182 104H65.5455C68.1673 104 70.2273 101.825 70.2273 99.2727V94.5455H0V99.2727ZM35.1136 37.8182C17.5568 37.8182 0 47.2727 0 66.1818H70.2273C70.2273 47.2727 52.6705 37.8182 35.1136 37.8182ZM12.2664 56.7273C17.4632 49.4 28.5123 47.2727 35.1136 47.2727C41.715 47.2727 52.7641 49.4 57.9609 56.7273H12.2664ZM0 75.6364H70.2273V85.0909H0V75.6364ZM79.5909 18.9091V0H70.2273V18.9091H46.8182L47.895 28.3636H92.6532L86.0986 94.5455H79.5909V104H87.6436C91.5764 104 94.8068 100.927 95.275 97.0509L103 18.9091H79.5909Z" fill="#FA5302"/>
</svg>
