<svg width="1920" height="175" viewBox="0 0 1920 175" fill="none" xmlns="http://www.w3.org/2000/svg">
<path d="M-2 0H50.7419L95.5008 107.845H97.5547L142.314 0H195.056V174.175H153.591V67.2115H152.118L109.8 173.103H83.2939L40.9763 66.6371H39.5037V174.214H-2V0.0383053V0Z" fill="black"/>
<path d="M259.85 174.176H214.083L273.53 0H330.224L389.67 174.176H343.904L302.516 43.8885H301.121L259.811 174.176H259.85ZM253.727 105.624H349.407V137.602H253.727V105.624Z" fill="black"/>
<path d="M473.879 174.176H408.736V0H473.801C491.743 0 507.244 3.48505 520.226 10.4168C533.208 17.3486 543.245 27.3442 550.298 40.3652C557.351 53.3862 560.877 68.9349 560.877 87.0112C560.877 105.087 557.351 120.751 550.337 133.772C543.323 146.793 533.286 156.789 520.265 163.759C507.244 170.69 491.782 174.176 473.879 174.176ZM451.325 138.291H472.251C482.133 138.291 490.465 136.644 497.324 133.312C504.183 129.981 509.376 124.581 512.902 117.074C516.429 109.568 518.211 99.5344 518.211 87.0112C518.211 74.488 516.429 64.4924 512.863 57.0245C509.298 49.5565 504.067 44.1949 497.169 40.8631C490.271 37.5312 481.745 35.8845 471.67 35.8845H451.363V138.291H451.325Z" fill="black"/>
<path d="M717.747 105.28L593.158 156.981V118.378L675.429 87.9315L674.228 89.8847V85.3656L675.429 87.2422L593.158 56.8725V18.1924L717.747 69.8935V105.28Z" fill="black"/>
<path d="M828.55 1.51386H870.558V121.92C870.519 133.218 867.768 143.06 862.381 151.486C856.994 159.911 849.554 166.421 840.06 171.094C830.565 175.728 819.598 178.064 807.159 178.064C796.153 178.064 786.155 176.149 777.165 172.357C768.174 168.566 761.044 162.668 755.735 154.664C750.426 146.66 747.79 136.435 747.868 123.95H790.302C790.457 128.431 791.348 132.222 792.937 135.401C794.526 138.541 796.696 140.916 799.525 142.486C802.354 144.056 805.686 144.86 809.6 144.86C813.514 144.86 817.118 143.979 819.908 142.256C822.699 140.533 824.869 137.967 826.303 134.558C827.775 131.15 828.511 126.937 828.589 121.882V1.47559L828.55 1.51386Z" fill="black"/>
<path d="M934.46 177.911C926.012 177.911 918.572 176.494 912.061 173.698C905.551 170.903 900.397 166.652 896.677 160.945C892.956 155.239 891.058 148.078 891.058 139.461C891.058 132.222 892.336 126.095 894.933 121.078C897.529 116.099 901.056 112.04 905.59 108.899C910.124 105.797 915.355 103.423 921.246 101.815C927.136 100.206 933.453 99.0954 940.196 98.5593C947.714 97.8699 953.759 97.1423 958.37 96.3764C962.943 95.6104 966.315 94.4998 968.407 93.0445C970.5 91.5892 971.546 89.5594 971.546 86.8786V86.4573C971.546 82.0915 970.035 78.7213 966.973 76.3469C963.951 73.9725 959.843 72.7853 954.65 72.7853C949.07 72.7853 944.613 73.9725 941.242 76.3469C937.87 78.7213 935.7 82.0149 934.77 86.2276L895.979 84.8489C897.142 76.9214 900.087 69.7981 904.892 63.5557C909.697 57.2749 916.285 52.3729 924.695 48.773C933.104 45.173 943.218 43.373 955.038 43.373C963.486 43.373 971.236 44.3688 978.367 46.3219C985.497 48.2751 991.659 51.1091 996.968 54.8239C1002.24 58.5387 1006.35 63.0961 1009.21 68.4577C1012.12 73.8576 1013.55 79.9852 1013.55 86.917V175.69H973.988V157.499H972.941C970.577 161.903 967.593 165.656 963.951 168.72C960.308 171.783 956.045 174.081 951.124 175.613C946.202 177.145 940.699 177.911 934.576 177.911H934.46ZM947.481 150.682C952.015 150.682 956.084 149.763 959.727 147.963C963.369 146.163 966.276 143.635 968.446 140.418C970.616 137.201 971.701 133.486 971.701 129.235V116.827C970.5 117.44 969.066 118.014 967.361 118.512C965.656 119.01 963.834 119.508 961.819 119.967C959.804 120.427 957.75 120.81 955.619 121.155C953.488 121.499 951.472 121.806 949.496 122.074C945.543 122.686 942.172 123.644 939.382 124.946C936.592 126.248 934.46 127.933 933.026 130.001C931.554 132.069 930.817 134.52 930.817 137.354C930.817 141.682 932.368 144.937 935.507 147.235C938.645 149.494 942.598 150.643 947.442 150.643L947.481 150.682Z" fill="black"/>
<path d="M1039.13 175.692V45.0603H1079.16V69.0343H1080.63C1083.39 61.1068 1088.04 54.8261 1094.58 50.2304C1101.13 45.6348 1108.92 43.3369 1117.99 43.3369C1127.06 43.3369 1135.04 45.6731 1141.55 50.307C1148.1 54.941 1152.25 61.1834 1154.03 69.0343H1155.39C1157.87 61.26 1162.67 55.0558 1169.84 50.3836C1177.01 45.7113 1185.46 43.3752 1195.22 43.3752C1207.74 43.3752 1217.89 47.3198 1225.68 55.2473C1233.47 63.1365 1237.39 74.013 1237.39 87.7616V175.692H1195.3V97.2976C1195.3 90.7871 1193.6 85.8085 1190.23 82.3617C1186.85 78.915 1182.44 77.2299 1177.05 77.2299C1171.24 77.2299 1166.7 79.1065 1163.41 82.783C1160.12 86.4978 1158.45 91.4764 1158.45 97.7189V175.692H1117.99V96.8763C1117.99 90.8254 1116.32 86.0382 1112.99 82.5149C1109.66 78.9916 1105.28 77.2299 1099.82 77.2299C1096.13 77.2299 1092.92 78.1107 1090.09 79.8341C1087.26 81.5575 1085.09 84.0085 1083.5 87.1871C1081.91 90.3658 1081.14 94.119 1081.14 98.4082V175.692H1039.05H1039.13Z" fill="black"/>
<path d="M1395.61 105.182L1271.02 156.884V118.28L1353.3 87.8338L1352.09 89.787V85.2679L1353.3 87.1445L1271.02 56.7748V18.0947L1395.61 69.7959V105.182Z" fill="black"/>
<path d="M1429.87 175.691V1.51562H1550.16V35.715H1472.46V71.4462H1542.52V105.722H1472.46V175.729H1429.87V175.691Z" fill="black"/>
<path d="M1623.67 178.141C1609.84 178.141 1597.94 175.422 1587.9 170.022C1577.9 164.622 1570.19 156.886 1564.84 146.814C1559.5 136.742 1556.78 124.793 1556.78 110.891C1556.78 96.9891 1559.5 85.5765 1564.88 75.4661C1570.27 65.3556 1577.86 57.4664 1587.67 51.8367C1597.47 46.2071 1609.02 43.373 1622.35 43.373C1631.77 43.373 1640.37 44.8284 1648.16 47.7006C1655.95 50.5729 1662.69 54.8622 1668.39 60.5302C1674.09 66.1982 1678.5 73.2066 1681.64 81.4788C1684.78 89.7892 1686.37 99.2869 1686.37 110.01V120.389H1571.51V96.2231H1647.23C1647.19 91.819 1646.11 87.8744 1644.05 84.3893C1642 80.9426 1639.17 78.2235 1635.57 76.2703C1631.96 74.3172 1627.85 73.3214 1623.2 73.3214C1618.55 73.3214 1614.29 74.3555 1610.57 76.4235C1606.85 78.4916 1603.91 81.2872 1601.7 84.8489C1599.53 88.4105 1598.36 92.3934 1598.25 96.8742V121.461C1598.25 126.784 1599.29 131.457 1601.43 135.439C1603.56 139.422 1606.54 142.524 1610.46 144.746C1614.37 146.967 1619.02 148.078 1624.41 148.078C1628.13 148.078 1631.54 147.58 1634.56 146.546C1637.58 145.512 1640.22 144.018 1642.39 142.027C1644.56 140.035 1646.18 137.622 1647.31 134.712L1685.94 135.822C1684.36 144.401 1680.83 151.831 1675.4 158.15C1669.98 164.469 1662.89 169.371 1654.09 172.856C1645.33 176.341 1635.14 178.102 1623.63 178.102L1623.67 178.141Z" fill="black"/>
<path d="M1823.4 84.9259L1784.76 85.9599C1784.38 83.2408 1783.29 80.8281 1781.51 78.6834C1779.73 76.5388 1777.44 74.892 1774.57 73.6665C1771.74 72.441 1768.45 71.8282 1764.73 71.8282C1759.85 71.8282 1755.7 72.7857 1752.29 74.7005C1748.88 76.6154 1747.21 79.2196 1747.25 82.5131C1747.21 85.079 1748.26 87.262 1750.39 89.1386C1752.56 91.0151 1756.4 92.5087 1761.98 93.6576L1787.44 98.4065C1800.61 100.896 1810.46 105.032 1816.93 110.815C1823.4 116.598 1826.65 124.257 1826.69 133.793C1826.65 142.755 1823.94 150.529 1818.63 157.193C1813.32 163.818 1806.08 168.988 1796.89 172.626C1787.71 176.265 1777.21 178.103 1765.39 178.103C1746.51 178.103 1731.63 174.273 1720.78 166.575C1709.89 158.878 1703.69 148.576 1702.14 135.67L1743.72 134.636C1744.65 139.384 1747.02 143.023 1750.86 145.512C1754.69 148.001 1759.61 149.265 1765.58 149.265C1770.97 149.265 1775.35 148.269 1778.76 146.278C1782.13 144.286 1783.87 141.644 1783.91 138.35C1783.87 135.402 1782.52 133.027 1779.96 131.265C1777.36 129.465 1773.33 128.087 1767.83 127.053L1744.77 122.725C1731.52 120.351 1721.64 115.947 1715.16 109.513C1708.69 103.079 1705.48 94.8831 1705.52 84.8876C1705.48 76.1558 1707.8 68.6879 1712.57 62.4837C1717.33 56.2796 1724.12 51.5307 1732.87 48.2372C1741.67 44.9436 1752.02 43.2969 1763.95 43.2969C1781.86 43.2969 1795.96 47.0117 1806.27 54.403C1816.58 61.7944 1822.31 71.9814 1823.4 84.8876V84.9259Z" fill="black"/>
<path d="M1926.48 45.0573V75.6568H1838.51V45.0573H1926.48ZM1856.96 13.7686H1901.33V134.596C1901.33 137.162 1901.76 139.192 1902.65 140.762C1903.54 142.332 1904.82 143.443 1906.52 144.094C1908.23 144.745 1910.24 145.09 1912.61 145.09C1914.31 145.09 1916.1 144.936 1917.99 144.63C1919.89 144.324 1921.33 144.056 1922.3 143.826L1929 173.851C1926.87 174.425 1923.88 175.115 1920.05 175.995C1916.21 176.876 1911.64 177.374 1906.29 177.604C1895.87 178.063 1886.95 176.914 1879.55 174.157C1872.15 171.4 1866.49 167.11 1862.58 161.289C1858.66 155.468 1856.77 148.115 1856.92 139.268V13.8452L1856.96 13.7686Z" fill="black"/>
</svg>
