<svg width="731" height="370" viewBox="0 0 731 370" fill="none" xmlns="http://www.w3.org/2000/svg">
<g clip-path="url(#clip0_2899_61)">
<rect width="731" height="370" fill="white"/>
<path d="M725.37 78.8312L777.191 47.9489V-31.2249L724.021 -60.2315L664.793 -24.7526L663.8 -91.8535L613.761 -123L557.562 -85.5397V-26.5226L505.104 -60.3636L445.342 -21.5032H444.934L444.145 43.5636L502.712 75.5818L443 115.156V180.117L446.258 183.128C449.949 186.536 486.091 210.444 497.061 217.683L557.587 181.068V241.828L613.685 279.157L668.255 245.633L669.782 183.921L731.377 215.648L782.409 185.479V115.023L725.37 78.8048V78.8312ZM766.909 39.3632L713.407 71.2229L674.44 46.4695L766.909 -10.989V39.3632ZM656.114 -2.4032L724.479 -45.5697L764.72 -23.6166L662.579 38.9669L660.008 40.552L659.397 40.9218L619.971 65.411V-49.3475L654.358 -70.9836L656.088 -2.37679L656.114 -2.4032ZM502.813 -45.3848L557.587 -11.3588V34.3174L466.416 -21.7145L502.813 -45.3848ZM456.49 175.15V123.741L496.628 149.287L496.959 202.466C479.83 191.133 462.547 179.509 456.49 175.124V175.15ZM466.187 114.944L527.171 74.5515L456.541 35.9289L457.152 -13.9213L560.667 50.9341L569.728 56.5875L569.906 56.6932L602.155 76.5065L502.788 138.218L466.187 114.918V114.944ZM607.678 259.977L569.881 234.854V173.618L607.678 150.767V259.977ZM607.678 135.999L508.362 197.367L508.846 149.314L607.652 87.9453V135.999H607.678ZM607.678 65.0676L569.881 41.8729V-76.7162L607.678 -49.5588V65.0412V65.0676ZM578.229 -85.3019L613.863 -108.048L651.914 -84.3509L613.888 -60.4429L578.229 -85.3019ZM614.168 76.4801L614.041 76.2687H614.295L614.168 76.4801ZM719.134 197.315L657.997 162.681L656.139 238.236L619.971 260.453V87.4698L720.56 149.287L719.134 197.341V197.315ZM726.694 138.192L626.182 76.4272L662.553 53.8401L761.36 115.208L726.694 138.192ZM770.116 178.083L731.733 200.775L732.904 149.076L770.116 123.504V178.083Z" fill="#0F60FF"/>
<path d="M82.7273 288.469C82.429 287.432 82.0099 286.516 81.4702 285.72C80.9304 284.911 80.2699 284.229 79.4886 283.675C78.7216 283.107 77.8409 282.673 76.8466 282.375C75.8665 282.077 74.7798 281.928 73.5866 281.928C71.3565 281.928 69.3963 282.482 67.706 283.589C66.0298 284.697 64.723 286.31 63.7855 288.426C62.848 290.528 62.3793 293.099 62.3793 296.139C62.3793 299.179 62.8409 301.764 63.7642 303.895C64.6875 306.026 65.9943 307.652 67.6847 308.774C69.375 309.882 71.3707 310.436 73.6719 310.436C75.7599 310.436 77.5426 310.067 79.0199 309.328C80.5114 308.575 81.6477 307.517 82.429 306.153C83.2244 304.79 83.6222 303.178 83.6222 301.317L85.4972 301.594H74.2472V294.648H92.5071V300.145C92.5071 303.98 91.6974 307.276 90.0781 310.031C88.4588 312.773 86.2287 314.889 83.3878 316.381C80.5469 317.858 77.294 318.597 73.6293 318.597C69.5384 318.597 65.9446 317.695 62.848 315.891C59.7514 314.072 57.3366 311.494 55.6037 308.156C53.8849 304.804 53.0256 300.827 53.0256 296.224C53.0256 292.687 53.5369 289.534 54.5597 286.764C55.5966 283.98 57.0455 281.622 58.9062 279.69C60.767 277.759 62.9332 276.288 65.4048 275.28C67.8764 274.271 70.554 273.767 73.4375 273.767C75.9091 273.767 78.2102 274.129 80.3409 274.854C82.4716 275.564 84.3608 276.572 86.0085 277.879C87.6705 279.186 89.027 280.741 90.0781 282.545C91.1293 284.335 91.804 286.31 92.1023 288.469H82.7273ZM108.599 318.618C106.511 318.618 104.65 318.256 103.017 317.531C101.383 316.793 100.091 315.706 99.1388 314.271C98.2013 312.822 97.7326 311.018 97.7326 308.859C97.7326 307.041 98.0664 305.514 98.734 304.278C99.4016 303.043 100.311 302.048 101.461 301.295C102.612 300.543 103.919 299.974 105.382 299.591C106.859 299.207 108.407 298.938 110.027 298.781C111.93 298.582 113.464 298.398 114.629 298.227C115.794 298.043 116.639 297.773 117.164 297.418C117.69 297.062 117.953 296.537 117.953 295.841V295.713C117.953 294.364 117.527 293.32 116.674 292.581C115.836 291.842 114.643 291.473 113.095 291.473C111.461 291.473 110.162 291.835 109.196 292.56C108.23 293.27 107.591 294.165 107.278 295.244L98.8832 294.562C99.3093 292.574 100.147 290.855 101.397 289.406C102.647 287.943 104.26 286.821 106.234 286.04C108.223 285.244 110.524 284.847 113.137 284.847C114.956 284.847 116.696 285.06 118.358 285.486C120.034 285.912 121.518 286.572 122.811 287.467C124.118 288.362 125.147 289.513 125.9 290.919C126.653 292.311 127.029 293.98 127.029 295.926V318H118.422V313.462H118.166C117.64 314.484 116.937 315.386 116.056 316.168C115.176 316.935 114.118 317.538 112.882 317.979C111.646 318.405 110.218 318.618 108.599 318.618ZM111.199 312.354C112.534 312.354 113.713 312.091 114.735 311.565C115.758 311.026 116.561 310.301 117.143 309.392C117.725 308.483 118.017 307.453 118.017 306.303V302.83C117.733 303.014 117.342 303.185 116.845 303.341C116.362 303.483 115.815 303.618 115.204 303.746C114.593 303.859 113.983 303.966 113.372 304.065C112.761 304.151 112.207 304.229 111.71 304.3C110.645 304.456 109.714 304.705 108.919 305.045C108.123 305.386 107.505 305.848 107.065 306.43C106.625 306.999 106.404 307.709 106.404 308.561C106.404 309.797 106.852 310.741 107.747 311.395C108.656 312.034 109.806 312.354 111.199 312.354ZM134.071 318V285.273H142.722V291.047H143.105C143.787 289.129 144.924 287.616 146.515 286.509C148.105 285.401 150.009 284.847 152.225 284.847C154.469 284.847 156.38 285.408 157.956 286.53C159.533 287.638 160.584 289.143 161.11 291.047H161.451C162.118 289.172 163.326 287.673 165.073 286.551C166.834 285.415 168.915 284.847 171.316 284.847C174.37 284.847 176.848 285.82 178.752 287.766C180.669 289.697 181.628 292.439 181.628 295.99V318H172.573V297.78C172.573 295.962 172.09 294.598 171.124 293.689C170.158 292.78 168.951 292.325 167.502 292.325C165.854 292.325 164.569 292.851 163.645 293.902C162.722 294.939 162.26 296.31 162.26 298.014V318H153.461V297.588C153.461 295.983 152.999 294.705 152.076 293.753C151.167 292.801 149.966 292.325 148.475 292.325C147.466 292.325 146.557 292.581 145.748 293.092C144.952 293.589 144.32 294.293 143.851 295.202C143.382 296.097 143.148 297.148 143.148 298.355V318H134.071ZM203.713 318.639C200.346 318.639 197.449 317.957 195.02 316.594C192.605 315.216 190.744 313.27 189.437 310.756C188.13 308.227 187.477 305.237 187.477 301.786C187.477 298.419 188.13 295.464 189.437 292.922C190.744 290.379 192.583 288.398 194.956 286.977C197.342 285.557 200.14 284.847 203.35 284.847C205.51 284.847 207.52 285.195 209.38 285.891C211.255 286.572 212.889 287.602 214.281 288.98C215.687 290.358 216.781 292.091 217.562 294.179C218.343 296.253 218.734 298.682 218.734 301.466V303.959H191.099V298.334H210.19C210.19 297.027 209.906 295.869 209.338 294.861C208.77 293.852 207.981 293.064 206.973 292.496C205.978 291.913 204.821 291.622 203.5 291.622C202.122 291.622 200.9 291.942 199.835 292.581C198.784 293.206 197.96 294.051 197.363 295.116C196.767 296.168 196.461 297.339 196.447 298.632V303.98C196.447 305.599 196.745 306.999 197.342 308.178C197.953 309.357 198.812 310.266 199.92 310.905C201.028 311.544 202.342 311.864 203.862 311.864C204.87 311.864 205.794 311.722 206.632 311.438C207.47 311.153 208.187 310.727 208.784 310.159C209.38 309.591 209.835 308.895 210.147 308.071L218.542 308.625C218.116 310.642 217.243 312.403 215.922 313.909C214.615 315.401 212.924 316.565 210.85 317.403C208.791 318.227 206.412 318.639 203.713 318.639Z" fill="#0F60FF"/>
<path d="M53.3026 212.364H66.3636L77.4432 239.381H77.9545L89.0341 212.364H102.095V256H91.8253V229.196H91.4631L80.9801 255.723H74.4176L63.9347 229.047H63.5724V256H53.3026V212.364ZM118.113 256H106.777L121.5 212.364H135.542L150.265 256H138.929L128.681 223.358H128.34L118.113 256ZM116.6 238.827H140.293V246.838H116.6V238.827ZM171.092 256H154.963V212.364H171.071C175.517 212.364 179.345 213.237 182.555 214.984C185.779 216.717 188.265 219.217 190.012 222.484C191.76 225.737 192.633 229.629 192.633 234.161C192.633 238.706 191.76 242.612 190.012 245.879C188.279 249.146 185.801 251.653 182.576 253.401C179.352 255.134 175.524 256 171.092 256ZM165.51 247.009H170.687C173.13 247.009 175.197 246.597 176.887 245.773C178.592 244.935 179.877 243.578 180.744 241.703C181.625 239.814 182.065 237.3 182.065 234.161C182.065 231.021 181.625 228.521 180.744 226.661C179.863 224.786 178.564 223.436 176.845 222.612C175.14 221.774 173.038 221.355 170.538 221.355H165.51V247.009ZM231.497 238.741L200.645 251.696V242.023L221.014 234.395L220.716 234.885V233.756L221.014 234.224L200.645 226.618V216.923L231.497 229.878V238.741Z" fill="black"/>
<path d="M265.009 300.741L234.156 313.696V304.023L254.526 296.395L254.227 296.885V295.756L254.526 296.224L234.156 288.618V278.923L265.009 291.878V300.741ZM291.221 274.364H301.619V304.534C301.605 307.361 300.93 309.832 299.595 311.949C298.26 314.051 296.413 315.685 294.055 316.849C291.711 318.014 288.998 318.597 285.916 318.597C283.189 318.597 280.71 318.121 278.48 317.169C276.264 316.217 274.495 314.74 273.174 312.737C271.868 310.734 271.221 308.17 271.235 305.045H281.74C281.782 306.168 281.995 307.126 282.379 307.922C282.777 308.703 283.324 309.293 284.02 309.69C284.716 310.088 285.547 310.287 286.512 310.287C287.521 310.287 288.373 310.074 289.069 309.648C289.765 309.207 290.291 308.561 290.646 307.709C291.015 306.857 291.207 305.798 291.221 304.534V274.364ZM317.466 318.554C315.378 318.554 313.524 318.206 311.905 317.51C310.3 316.8 309.028 315.734 308.091 314.314C307.168 312.879 306.706 311.082 306.706 308.923C306.706 307.105 307.026 305.571 307.665 304.321C308.304 303.071 309.185 302.055 310.307 301.274C311.429 300.493 312.722 299.903 314.185 299.506C315.648 299.094 317.21 298.817 318.872 298.675C320.733 298.504 322.232 298.327 323.368 298.142C324.504 297.943 325.328 297.666 325.839 297.311C326.365 296.942 326.628 296.423 326.628 295.756V295.649C326.628 294.555 326.251 293.71 325.499 293.114C324.746 292.517 323.73 292.219 322.452 292.219C321.074 292.219 319.966 292.517 319.128 293.114C318.29 293.71 317.757 294.534 317.53 295.585L307.92 295.244C308.205 293.256 308.936 291.48 310.115 289.918C311.308 288.341 312.942 287.105 315.016 286.21C317.104 285.301 319.611 284.847 322.537 284.847C324.625 284.847 326.55 285.095 328.311 285.592C330.072 286.075 331.607 286.786 332.913 287.723C334.22 288.646 335.229 289.783 335.939 291.132C336.663 292.482 337.026 294.023 337.026 295.756V318H327.224V313.44H326.969C326.386 314.548 325.641 315.486 324.732 316.253C323.837 317.02 322.778 317.595 321.557 317.979C320.349 318.362 318.986 318.554 317.466 318.554ZM320.683 311.736C321.805 311.736 322.814 311.509 323.709 311.054C324.618 310.599 325.342 309.974 325.882 309.179C326.422 308.369 326.692 307.432 326.692 306.366V303.256C326.393 303.412 326.031 303.554 325.605 303.682C325.193 303.81 324.739 303.93 324.241 304.044C323.744 304.158 323.233 304.257 322.707 304.342C322.182 304.428 321.678 304.506 321.195 304.577C320.214 304.733 319.376 304.974 318.68 305.301C317.999 305.628 317.473 306.054 317.104 306.58C316.749 307.091 316.571 307.702 316.571 308.412C316.571 309.491 316.955 310.315 317.722 310.884C318.503 311.452 319.49 311.736 320.683 311.736ZM343.396 318V285.273H353.304V291.281H353.666C354.348 289.293 355.499 287.723 357.118 286.572C358.737 285.422 360.669 284.847 362.913 284.847C365.186 284.847 367.132 285.429 368.751 286.594C370.371 287.759 371.401 289.321 371.841 291.281H372.182C372.793 289.335 373.986 287.78 375.761 286.615C377.537 285.436 379.632 284.847 382.047 284.847C385.143 284.847 387.658 285.841 389.589 287.83C391.521 289.804 392.487 292.517 392.487 295.969V318H382.068V298.355C382.068 296.722 381.649 295.479 380.811 294.626C379.973 293.76 378.886 293.327 377.551 293.327C376.116 293.327 374.987 293.795 374.163 294.733C373.354 295.656 372.949 296.899 372.949 298.462V318H362.935V298.249C362.935 296.729 362.523 295.528 361.699 294.648C360.875 293.767 359.788 293.327 358.439 293.327C357.53 293.327 356.727 293.547 356.031 293.987C355.335 294.413 354.788 295.024 354.391 295.82C354.007 296.615 353.815 297.553 353.815 298.632V318H343.396Z" fill="black"/>
</g>
<defs>
<clipPath id="clip0_2899_61">
<rect width="731" height="370" fill="white"/>
</clipPath>
</defs>
</svg>
