<svg width="96" height="109" viewBox="0 0 96 109" fill="none" xmlns="http://www.w3.org/2000/svg">
<path d="M4 92V6L68 4.5L78 6V31L82.5 49.5L88 51.5L92 58.5L86.5 67.5L55 99L40 104.5L41.5 92H25.5H4Z" fill="white"/>
<path d="M84.498 54.5C84.0602 54.501 83.6409 54.5633 83.2383 54.6855C82.8762 54.7955 82.5486 55.0024 82.2539 55.3223L82.2461 55.3311L82.2383 55.3389L46.0371 91.1611L44.4951 97.2031L50.6309 95.6777L86.833 59.9072C87.4718 59.2769 87.7861 58.5249 87.7861 57.623C87.7861 56.674 87.4808 55.95 86.8945 55.4004C86.2994 54.8425 85.5149 54.5322 84.498 54.5ZM82.0713 0.5V39.8877L81.6445 39.9512C79.3621 40.2873 77.1801 41.0266 75.0977 42.1719L74.3574 42.5791V8.125H8.21387V86.625H31.5947L31.4365 87.248L29.7578 93.873L29.6621 94.25H0.5V0.5H82.0713ZM21.6426 60.125V67.75H13.9287V60.125H21.6426ZM56.0381 60.125L55.1699 60.9805L48.4561 67.6055L48.3105 67.75H27.3574V60.125H56.0381ZM21.6426 40.25V47.875H13.9287V40.25H21.6426ZM68.6426 40.25V47.875H27.3574V40.25H68.6426ZM21.6426 20.375V28H13.9287V20.375H21.6426ZM68.6426 20.375V28H27.3574V20.375H68.6426ZM95.5 57.623C95.5 59.0356 95.2245 60.4117 94.6758 61.7471C94.1259 63.0854 93.3354 64.262 92.3086 65.2754L54.6992 102.49L54.6006 102.587L54.4668 102.62L34.6904 107.485L33.8828 107.685L34.0869 106.878L39.0176 87.3652L39.0518 87.2295L39.1504 87.1318L76.7617 49.9697C77.7913 48.9539 78.988 48.1902 80.3477 47.6826C81.6927 47.1805 83.0763 46.9109 84.4961 46.875H84.5088L85.0771 46.8877C86.3931 46.9467 87.6325 47.2122 88.791 47.6885C90.1066 48.2294 91.2775 48.9884 92.3018 49.9629C93.3329 50.944 94.1094 52.0917 94.626 53.4023C95.1372 54.6995 95.4267 56.0997 95.499 57.5986L95.5 57.6113V57.623Z" fill="#FA5302" stroke="#FA5302"/>
</svg>
