<svg width="88" height="111" viewBox="0 0 88 111" fill="none" xmlns="http://www.w3.org/2000/svg">
<path d="M12.5 66L45.5 104L63.5 88L81.5 51.5L77 29L63.5 11.5L42 6L8 26L12.5 66Z" fill="white"/>
<path d="M44 55.5C37.95 55.5 33 50.505 33 44.4C33 38.295 37.95 33.3 44 33.3C50.05 33.3 55 38.295 55 44.4C55 50.505 50.05 55.5 44 55.5ZM77 45.51C77 25.3635 62.425 11.1 44 11.1C25.575 11.1 11 25.3635 11 45.51C11 58.497 21.725 75.702 44 96.237C66.275 75.702 77 58.497 77 45.51ZM44 0C67.1 0 88 17.871 88 45.51C88 63.936 73.315 85.7475 44 111C14.685 85.7475 0 63.936 0 45.51C0 17.871 20.9 0 44 0Z" fill="#FA5302"/>
</svg>
