<svg width="122" height="242" viewBox="0 0 122 242" fill="none" xmlns="http://www.w3.org/2000/svg">
<path d="M17.7759 36.884V119.601L122 57.1235L91.2135 36.884L48.7921 60.1678L48.2869 17.7154L17.7759 36.884Z" fill="#FE8F00"/>
<path d="M91.5044 162.512V202.655L122 180.365V141.768L91.5044 162.512Z" fill="#FE8F00"/>
<path d="M121.709 57.2913L122 97.6479L84.8142 118.01L53.6449 98.0915L121.709 57.2913Z" fill="#FE8F00"/>
<path d="M17.7759 119.601V241.13L49.2972 222.022V178.729L91.5044 202.655V162.513L17.7759 119.601Z" fill="#FE8F00"/>
<path d="M-16.4858 179.294L17.7759 161.212V241.13L-16.4858 224.042V179.294Z" fill="#FE8F00"/>
<path d="M-87.1066 97.3422L-51.7886 119.601L-90 141.768L-58.5092 162.512L17.7758 119.601L-87.1066 57.1233V97.3422Z" fill="#FE8F00"/>
<path d="M122 141.768L53.645 98.0916L17.7759 119.601L91.5044 162.512L122 141.768Z" fill="#FE8F00"/>
<path d="M48.2868 17.7153L15.8928 0L-16.4858 17.7153L17.7759 36.8839L48.2868 17.7153Z" fill="#FE8F00"/>
<path d="M-16.4858 99.1782V17.7154L17.7759 36.884V119.601L-16.4858 99.1782Z" fill="#FE8F00"/>
<path d="M17.7758 119.601V161.212L-58.4633 201.171L-58.5093 162.513L17.7758 119.601Z" fill="#FE8F00"/>
</svg>
