<svg width="100" height="113" viewBox="0 0 100 113" fill="none" xmlns="http://www.w3.org/2000/svg">
<path d="M50.3113 19.2876V56.1239L97.1137 28.3009L83.2898 19.2876L64.233 29.6588L64.0072 10.752L50.3113 19.2876Z" fill="#FE8F00"/>
<path d="M16.0601 19.2876L34.9211 30.9197V47.0361L3.20752 28.3008L16.0601 19.2876Z" fill="#FDCC00"/>
<path d="M83.4177 75.2395V93.1167L97.1136 83.1857V66.0024L83.4177 75.2395Z" fill="#FA5302"/>
<path d="M50.3113 56.124V110.248L64.4664 101.742V82.4623L83.4178 93.117V75.2398L50.3113 56.124Z" fill="#FE8F00"/>
<path d="M34.9211 82.7157L50.3111 74.665V110.248L34.9211 102.645V82.7157Z" fill="#FA5302"/>
<path d="M16.0451 75.2395L1.90503 66.0024V84.5437L16.0602 92.4601L16.0451 75.2395Z" fill="#FA5302"/>
<path d="M3.2076 46.2153L19.0644 56.1238L1.90503 66.0026L16.0451 75.2396L50.3112 56.1238L3.2076 28.3008V46.2153Z" fill="#FE8F00"/>
<path d="M96.9856 28.3755L97.1136 46.3497L80.4135 55.4226L66.4089 46.5511L96.9856 28.3755Z" fill="#FDCC00"/>
<path d="M97.1137 66.0023L66.409 46.5508L50.3113 56.1236L83.4178 75.2394L97.1137 66.0023Z" fill="#FDCC00"/>
<path d="M64.007 10.7518L49.4603 2.86523L34.9211 10.7518L50.3111 19.2875L64.007 10.7518Z" fill="#FA5302"/>
<path d="M34.9211 47.0361V10.752L50.3111 19.2876V56.1239L34.9211 47.0361Z" fill="#FA5302"/>
<path d="M50.3112 56.124V74.6653L16.0602 92.4604L16.0452 75.2398L50.3112 56.124Z" fill="#FDCC00"/>
<path d="M82.3861 56.2356L97.5126 47.6327V25.5698L82.0021 17.4892L64.7147 27.3754L64.4286 8.67746L49.8292 0L33.4303 10.4309V26.868L18.1231 17.4444L0.685173 28.2707H0.564701L0.331293 46.4016L17.4229 55.3178L0 66.3456V84.4392L0.948693 85.2823C2.02539 86.2374 12.574 92.8928 15.774 94.9073L33.4303 84.7078V101.63L49.7991 112.031L65.7237 102.697L66.1679 85.5061L84.1404 94.3477L99.0335 85.9464V66.3158L82.3861 56.2281V56.2356ZM94.5008 45.2451L78.8849 54.1166L67.5157 47.2224L94.5008 31.2179V45.2451ZM62.1773 33.6056L82.1301 21.578L93.8759 27.6962L64.0672 45.1258L63.3143 45.566L63.1411 45.6704L51.6362 52.4975V20.526L61.6729 14.4972L62.1773 33.613V33.6056ZM17.4455 21.6302L33.4228 31.106V43.8275L6.82159 28.2185L17.4455 21.6228V21.6302ZM3.93032 83.0663V68.7481L15.6385 75.8662L15.7363 90.6843C10.7368 87.5207 5.69219 84.29 3.93032 83.0663ZM6.75382 66.2934L24.5532 55.0343L3.94538 44.2752L4.12608 30.3897L34.3263 48.4609L36.9691 50.0427L37.0218 50.0726L46.4335 55.5939L17.438 72.7921L6.76135 66.3008L6.75382 66.2934ZM48.0448 106.704L37.0143 99.7049V82.6485L48.0448 76.284V106.711V106.704ZM48.0448 72.1654L19.0643 89.2592L19.2074 75.8736L48.0448 58.7724V72.1654ZM48.0448 52.4005L37.0143 45.939V12.908L48.0448 20.4737V52.4005ZM39.4463 10.5055L49.8443 4.16339L60.9501 10.7666L49.8518 17.4295L39.4463 10.5055ZM49.9346 55.579L49.897 55.5193H49.9723L49.9346 55.579ZM80.5715 89.2517L62.7345 79.6043L62.1924 100.653L51.6362 106.838V58.6456L80.9932 75.8662L80.579 89.2517H80.5715ZM82.7701 72.7772L53.4433 55.5715L64.0597 49.2742L92.8895 66.3755L82.7701 72.7772ZM95.442 83.887L84.2383 90.2067L84.5771 75.8065L95.442 68.681V83.887Z" fill="black"/>
<path d="M49.897 55.5195L49.9346 55.5792L49.9723 55.5195H49.897ZM64.0597 45.126L63.3067 45.5737L64.0597 45.1334V45.126Z" fill="black"/>
<path d="M49.9716 55.5195L49.9343 55.5789L49.897 55.5195H49.9716Z" fill="black"/>
<path d="M36.9616 50.0353L34.3113 48.4833L34.3188 48.4609L36.9616 50.0353Z" fill="black"/>
<path d="M49.9716 55.519L49.9343 55.5785L49.897 55.519H49.9716Z" fill="black"/>
<path d="M49.9716 55.5195L49.9343 55.5789L49.897 55.5195H49.9716Z" fill="black"/>
</svg>
