<svg width="329" height="373" viewBox="0 0 329 373" fill="none" xmlns="http://www.w3.org/2000/svg">
<path d="M167.139 64.0752V186.449L322.622 94.0181L276.697 64.0752L213.389 98.5294L212.638 35.7188L167.139 64.0752Z" fill="#FE8F00"/>
<path d="M53.354 64.0742L116.012 102.717V156.258L10.6562 94.0171L53.354 64.0742Z" fill="#FDCC00"/>
<path d="M277.122 249.955V309.345L322.621 276.353V219.269L277.122 249.955Z" fill="#FA5302"/>
<path d="M167.139 186.45V366.256L214.164 337.999V273.949L277.123 309.345V249.955L167.139 186.45Z" fill="#FE8F00"/>
<path d="M116.011 274.791L167.138 248.046V366.256L116.011 340.998V274.791Z" fill="#FA5302"/>
<path d="M53.3026 249.955L6.32764 219.269V280.865L53.3527 307.164L53.3026 249.955Z" fill="#FA5302"/>
<path d="M10.6549 153.532L63.333 186.45L6.32764 219.268L53.3026 249.954L167.138 186.45L10.6549 94.0186V153.532Z" fill="#FE8F00"/>
<path d="M322.196 94.2646L322.621 153.977L267.142 184.118L220.617 154.646L322.196 94.2646Z" fill="#FDCC00"/>
<path d="M322.622 219.268L220.618 154.647L167.139 186.449L277.123 249.954L322.622 219.268Z" fill="#FDCC00"/>
<path d="M212.638 35.7186L164.312 9.51855L116.011 35.7186L167.138 64.0751L212.638 35.7186Z" fill="#FA5302"/>
<path d="M116.011 156.259V35.7188L167.138 64.0752V186.449L116.011 156.259Z" fill="#FA5302"/>
<path d="M167.139 186.45V248.046L53.3533 307.164L53.3032 249.955L167.139 186.45Z" fill="#FDCC00"/>
<path d="M273.696 186.821L323.947 158.241V84.9455L272.42 58.1011L214.989 90.944L214.039 28.8274L165.538 0L111.059 34.6524V89.2585L60.207 57.9523L2.27622 93.9185H1.876L1.10059 154.151L57.8808 183.772L0 220.407V280.516L3.15166 283.317C6.72857 286.49 41.7722 308.6 52.4029 315.292L111.059 281.408V337.626L165.438 372.179L218.341 341.17L219.817 284.061L279.524 313.433L329 285.523V220.308L273.696 186.796V186.821ZM313.942 150.309L262.064 179.781L224.294 156.878L313.942 103.709V150.309ZM206.56 111.641L272.845 71.6844L311.866 92.0099L212.838 149.913L210.337 151.375L209.762 151.722L171.541 174.402V68.1894L204.884 48.1614L206.56 111.666V111.641ZM57.9558 71.8579L111.034 103.338V145.6L22.662 93.745L57.9558 71.8331V71.8579ZM13.0569 275.955V228.389L51.9526 252.036L52.2778 301.263C35.669 290.753 18.9101 280.02 13.0569 275.955ZM22.4369 220.234L81.5684 182.83L13.107 147.087L13.7073 100.958L114.036 160.993L122.815 166.247L122.99 166.347L154.257 184.689L57.9308 241.823L22.4619 220.259L22.4369 220.234ZM159.61 354.481L122.965 331.231V274.567L159.61 253.424V354.506V354.481ZM159.61 239.741L63.3337 296.529L63.8089 252.06L159.61 195.248V239.741ZM159.61 174.08L122.965 152.614V42.8818L159.61 68.0159V174.08ZM131.045 34.9003L165.588 13.8312L202.483 35.7678L165.613 57.9028L131.045 34.9003ZM165.888 184.639L165.763 184.441H166.013L165.888 184.639ZM267.667 296.504L208.411 264.454L206.61 334.379L171.541 354.927V194.827L269.068 252.036L267.692 296.504H267.667ZM274.971 241.774L177.544 184.615L212.813 163.694L308.589 220.506L274.971 241.774ZM317.069 278.682L279.849 299.677L280.974 251.837L317.069 228.166V278.682Z" fill="black"/>
<path d="M165.763 184.443L165.888 184.641L166.013 184.443H165.763ZM212.813 149.914L210.312 151.401L212.813 149.939V149.914Z" fill="black"/>
<path d="M166.011 184.442L165.887 184.64L165.763 184.442H166.011Z" fill="black"/>
<path d="M122.79 166.223L113.985 161.068L114.01 160.993L122.79 166.223Z" fill="black"/>
<path d="M166.011 184.442L165.887 184.64L165.763 184.442H166.011Z" fill="black"/>
<path d="M166.011 184.442L165.887 184.64L165.763 184.442H166.011Z" fill="black"/>
</svg>
