<svg width="100" height="112" viewBox="0 0 100 112" fill="none" xmlns="http://www.w3.org/2000/svg">
<path d="M82.3861 55.9703L97.5126 47.4081V25.4492L82.0021 17.4067L64.7147 27.2463L64.4286 8.63652L49.8292 0L33.4303 10.3817V26.7413L18.1231 17.3622L0.685173 28.1374H0.564701L0.331293 46.1828L17.4229 55.0569L0 66.0327V84.0409L0.948693 84.88C2.02539 85.8306 12.574 92.4546 15.774 94.4597L33.4303 84.3082V101.151L49.7991 111.503L65.7237 102.212L66.1679 85.1028L84.1404 93.9027L99.0335 85.5409V66.003L82.3861 55.9629V55.9703ZM94.5008 45.0317L78.8849 53.8613L67.5157 46.9996L94.5008 31.0707V45.0317ZM62.1773 33.447L82.1301 21.4762L93.8759 27.5656L64.0672 44.9129L63.3143 45.351L63.1411 45.455L51.6362 52.2499V20.4291L61.6729 14.4289L62.1773 33.4545V33.447ZM17.4455 21.5282L33.4228 30.9593V43.6208L6.82159 28.0854L17.4455 21.5208V21.5282ZM3.93032 82.6745V68.4238L15.6385 75.5083L15.7363 90.2565C10.7368 87.1078 5.69219 83.8924 3.93032 82.6745ZM6.75382 65.9807L24.5532 54.7747L3.94538 44.0663L4.12608 30.2464L34.3263 48.2324L36.9691 49.8067L37.0218 49.8364L46.4335 55.3317L17.438 72.4488L6.76135 65.9881L6.75382 65.9807ZM48.0448 106.2L37.0143 99.2346V82.2586L48.0448 75.9242V106.208V106.2ZM48.0448 71.825L19.0643 88.8381L19.2074 75.5157L48.0448 58.4952V71.825ZM48.0448 52.1533L37.0143 45.7223V12.8471L48.0448 20.3771V52.1533ZM39.4463 10.4559L49.8443 4.14375L60.9501 10.7158L49.8518 17.3473L39.4463 10.4559ZM49.9346 55.3168L49.897 55.2574H49.9723L49.9346 55.3168ZM80.5715 88.8307L62.7345 79.2288L62.1924 100.178L51.6362 106.334V58.3689L80.9932 75.5083L80.579 88.8307H80.5715ZM82.7701 72.4339L53.4433 55.3094L64.0597 49.0418L92.8895 66.0624L82.7701 72.4339ZM95.442 83.4913L84.2383 89.7812L84.5771 75.4489L95.442 68.357V83.4913Z" fill="#AB31AA"/>
<path d="M49.8965 55.2574L49.9341 55.3168L49.9718 55.2574H49.8965ZM64.0592 44.9129L63.3062 45.3585L64.0592 44.9203V44.9129Z" fill="#AB31AA"/>
<path d="M49.9712 55.2574L49.9338 55.3169L49.8965 55.2574H49.9712Z" fill="#AB31AA"/>
<path d="M36.9618 49.7993L34.3115 48.2546L34.319 48.2324L36.9618 49.7993Z" fill="#AB31AA"/>
<path d="M49.9721 55.2574L49.9348 55.3168L49.8975 55.2574H49.9721Z" fill="#AB31AA"/>
<path d="M49.9712 55.2574L49.9338 55.3169L49.8965 55.2574H49.9712Z" fill="#AB31AA"/>
</svg>
