<svg width="100" height="113" viewBox="0 0 100 113" fill="none" xmlns="http://www.w3.org/2000/svg">
<path d="M82.3861 56.5034L97.5126 47.8596V25.6915L82.0021 17.5725L64.7147 27.5058L64.4286 8.71878L49.8292 0L33.4303 10.4805V26.996L18.1231 17.5275L0.685173 28.4054H0.564701L0.331293 46.6226L17.4229 55.5813L0 66.6615V84.8413L0.948693 85.6884C2.02539 86.648 12.574 93.3351 15.774 95.3593L33.4303 85.1112V102.114L49.7991 112.564L65.7237 103.186L66.1679 85.9133L84.1404 94.797L99.0335 86.3556V66.6316L82.3861 56.4959V56.5034ZM94.5008 45.4606L78.8849 54.3743L67.5157 47.4472L94.5008 31.3666V45.4606ZM62.1773 33.7656L82.1301 21.6807L93.8759 27.8281L64.0672 45.3406L63.3143 45.7829L63.1411 45.8879L51.6362 52.7475V20.6237L61.6729 14.5663L62.1773 33.7731V33.7656ZM17.4455 21.7332L33.4228 31.2542V44.0362L6.82159 28.3529L17.4455 21.7257V21.7332ZM3.93032 83.4619V69.0755L15.6385 76.2274L15.7363 91.1161C10.7368 87.9374 5.69219 84.6913 3.93032 83.4619ZM6.75382 66.6091L24.5532 55.2964L3.94538 44.486L4.12608 30.5345L34.3263 48.6917L36.9691 50.281L37.0218 50.311L46.4335 55.8586L17.438 73.1388L6.76135 66.6166L6.75382 66.6091ZM48.0448 107.212L37.0143 100.18V83.042L48.0448 76.6473V107.219V107.212ZM48.0448 72.509L19.0643 89.6842L19.2074 76.2349L48.0448 59.0523V72.509ZM48.0448 52.65L37.0143 46.1578V12.9695L48.0448 20.5712V52.65ZM39.4463 10.5555L49.8443 4.18321L60.9501 10.8179L49.8518 17.5125L39.4463 10.5555ZM49.9346 55.8437L49.897 55.7837H49.9723L49.9346 55.8437ZM80.5715 89.6767L62.7345 79.9833L62.1924 101.132L51.6362 107.347V58.9248L80.9932 76.2274L80.579 89.6767H80.5715ZM82.7701 73.1238L53.4433 55.8362L64.0597 49.5089L92.8895 66.6915L82.7701 73.1238ZM95.442 84.2865L84.2383 90.6363L84.5771 76.1675L95.442 69.008V84.2865Z" fill="#0F60FF"/>
<path d="M49.8965 55.7837L49.9341 55.8437L49.9718 55.7837H49.8965ZM64.0592 45.3406L63.3062 45.7904L64.0592 45.3481V45.3406Z" fill="#0F60FF"/>
<path d="M49.9712 55.7837L49.9338 55.8431L49.8965 55.7837H49.9712Z" fill="#0F60FF"/>
<path d="M36.9618 50.2735L34.3115 48.7142L34.319 48.6917L36.9618 50.2735Z" fill="#0F60FF"/>
<path d="M49.9721 55.7836L49.9348 55.843L49.8975 55.7836H49.9721Z" fill="#0F60FF"/>
<path d="M49.9712 55.7837L49.9338 55.8431L49.8965 55.7837H49.9712Z" fill="#0F60FF"/>
</svg>
