<svg width="111" height="127" viewBox="0 0 111 127" fill="none" xmlns="http://www.w3.org/2000/svg">
<g clip-path="url(#clip0_303_2089)">
<path d="M56.3843 22.2887V63.611L108.297 32.3965L92.9622 22.2887L71.8326 33.9236L71.5782 12.715L56.3843 22.2887Z" fill="white"/>
<path d="M18.4055 22.2888L39.3166 35.3368V53.4133L4.14551 32.3966L18.4055 22.2888Z" fill="white"/>
<path d="M93.103 85.0537V105.107L108.297 93.9704V74.6909L93.103 85.0537Z" fill="white"/>
<path d="M56.3843 63.6111V124.33L72.0871 114.783V93.1604L93.1029 105.107V85.0538L56.3843 63.6111Z" fill="white"/>
<path d="M39.3164 93.4364L56.3841 84.4056V124.33L39.3164 115.797V93.4364Z" fill="white"/>
<path d="M18.3875 85.0537L2.69971 74.6909V95.4916L18.4055 104.369L18.3875 85.0537Z" fill="white"/>
<path d="M4.14546 52.4952L21.731 63.6111L2.69971 74.6909L18.3875 85.0537L56.3843 63.6111L4.14546 32.3966V52.4952Z" fill="white"/>
<path d="M108.15 32.4866L108.297 52.6452L89.7713 62.822L74.2451 52.8732L108.15 32.4866Z" fill="white"/>
<path d="M108.297 74.6909L74.2452 52.8732L56.3843 63.611L93.1029 85.0537L108.297 74.6909Z" fill="white"/>
<path d="M71.578 12.715L55.4472 3.86133L39.3164 12.715L56.3841 22.2888L71.578 12.715Z" fill="white"/>
<path d="M39.3164 53.4132V12.715L56.3841 22.2887V63.611L39.3164 53.4132Z" fill="white"/>
<path d="M56.3845 63.6111V84.4057L18.4057 104.369L18.3877 85.0538L56.3845 63.6111Z" fill="white"/>
<path d="M91.9626 63.74L108.737 54.0882V29.3423L91.5316 20.2816L72.3596 31.3675L72.0423 10.3958L55.8487 0.660034L37.6614 12.364V30.8064L20.6835 20.2336L1.34392 32.3785H1.20922L0.951797 52.7171L19.9053 62.7229L0.577637 75.0899V95.3895L1.63127 96.3316C2.82559 97.3996 14.5234 104.864 18.0764 107.129L37.6614 95.6895V114.675L55.8187 126.34L73.4821 115.866L73.976 96.5806L93.9083 106.499L110.422 97.0726V75.0539L91.9626 63.737V63.74ZM105.402 51.406L88.0863 61.3608L75.4726 53.6262L105.402 35.6728V51.409V51.406ZM69.5459 38.355L91.6723 24.8629L104.699 31.7245L71.6412 51.28L70.8061 51.7751L70.6115 51.8891L57.8542 59.5457V23.6778L68.9862 16.9153L69.5489 38.355H69.5459ZM19.9382 24.9139L37.6614 35.5468V49.8219L8.15664 32.3095L19.9382 24.9139ZM4.94484 93.8384V77.7751L17.9327 85.7587L18.0435 102.38C12.4999 98.8338 6.90844 95.2035 4.94783 93.8354L4.94484 93.8384ZM8.0818 75.0209L27.8195 62.3929L4.95981 50.3229L5.15736 34.7427L38.6552 55.0123L41.5856 56.7825L41.6395 56.8185L52.0801 63.0139L19.9232 82.3055L8.0818 75.0239V75.0209ZM53.8731 120.351L41.6425 112.497V93.3613L53.8731 86.2208V120.354V120.351ZM53.8731 81.6094L21.7342 100.787L21.8928 85.7707L53.8731 66.5902V81.6124V81.6094ZM53.8731 59.4347L41.6425 52.1831V15.1302L53.8731 23.6178V59.4377V59.4347ZM44.3395 12.442L55.8726 5.3314L68.187 12.739L55.8816 20.2096L44.3365 12.445L44.3395 12.442ZM55.9714 63.0019L55.9325 62.9359H56.0133L55.9744 63.0019H55.9714ZM89.9452 100.772L70.1625 89.9501L69.5609 113.559L57.8542 120.501V66.4402L90.4091 85.7557L89.9452 100.772ZM92.3907 82.2935L59.8656 62.9929L71.6382 55.9304L103.613 75.1109L92.3937 82.2935H92.3907ZM106.441 94.7564L94.016 101.849L94.3932 85.6957L106.438 77.7001V94.7564H106.441Z" fill="white"/>
<path d="M55.9327 62.936L55.9716 63.002L56.0105 62.936H55.9297H55.9327ZM71.6355 51.2771L70.8033 51.7751L71.6384 51.28L71.6325 51.274L71.6355 51.2771Z" fill="white"/>
<path d="M56.0134 62.9359L55.9715 63.0019L55.9326 62.9359H56.0134Z" fill="white"/>
<path d="M41.5885 56.7825L38.6401 55.0363L38.6551 55.0123L41.5885 56.7825Z" fill="white"/>
<path d="M56.0129 62.9359L55.971 63.0019L55.9321 62.9359H56.0129Z" fill="white"/>
<path d="M56.0134 62.9359L55.9715 63.0019L55.9326 62.9359H56.0134Z" fill="white"/>
<path d="M58.3779 120.221L69.2148 113.794L69.8154 90.2139L69.8359 89.3945L70.5557 89.7871L89.835 100.333L90.2676 86.2656L58.3779 67.3447V120.221ZM41.9961 93.96V112.735L53.3555 120.033V87.3281L41.9961 93.96ZM4.91504 93.8916C6.95368 95.2951 11.9913 98.5692 17.1416 101.868L17.0391 86.2705L4.91504 78.8154V93.8916ZM95.2998 86.1992L94.9434 101.377L106.48 94.791V78.7783L95.2998 86.1992ZM22.0361 86.2861L21.8867 100.291L53.3555 81.5137V67.502L22.0361 86.2861ZM4.93262 49.8857L27.7627 61.9385L28.5215 62.3398L27.7988 62.8018L8.52148 75.1328L19.5488 81.9121L51.0654 63.0068L41.2373 57.1768L41.2266 57.1699L41.1738 57.1348L38.2197 55.3506L5.11914 35.3193L4.93262 49.8857ZM60.8838 62.9844L92.7627 81.9014L103.162 75.2441L71.8027 56.4326L60.8838 62.9844ZM76.6465 53.5283L88.4355 60.7578L105.427 50.9902V36.2637L76.6465 53.5283ZM58.3809 23.5361V58.6172L70.5156 51.3369L70.71 51.2207L70.7139 51.2188L71.5576 50.7207L104.191 31.416L92.0781 25.0371L69.9717 39.4189L69.1982 39.9219V38.085H69.1992L68.6523 17.2949L58.3809 23.5361ZM41.9961 51.7803L53.3555 58.5146V23.459L41.9961 15.5752V51.7803ZM8.61621 31.9707L36.9727 48.7988V35.5352L19.5693 25.0947L8.61621 31.9707ZM45.1455 11.9229L55.9004 19.1572L67.3545 12.2031L55.8809 5.30371L45.1455 11.9229ZM109.797 54.2812L109.546 54.4258L93.3252 63.7559L111.262 74.751L111.5 74.8965V97.7168L111.248 97.8613L94.5605 107.387L94.3281 107.519L94.0898 107.4L74.6504 97.7256L74.1738 116.431L74.167 116.707L73.9287 116.849L56.0801 127.433L55.8145 127.591L55.5547 127.424L37.2061 115.636L36.9756 115.488V96.8994L17.9365 108.021L17.6729 108.174L17.416 108.01C15.6199 106.865 11.7648 104.406 8.20801 102.098C6.42995 100.944 4.72471 99.8264 3.3877 98.9297C2.06889 98.0452 1.06652 97.3481 0.732422 97.0498L-0.333008 96.0986L-0.5 95.9492V74.9395L-0.269531 74.792L18.5381 62.7549L0.146484 53.0449L-0.124023 52.9023L-0.120117 52.5967L0.140625 32.0449L0.146484 31.5518H0.630859L20.0527 19.3574L20.3174 19.1904L20.583 19.3564L36.9727 29.5635V11.5537L37.2021 11.4062L55.5811 -0.420898L55.8428 -0.588867L56.1094 -0.428711L72.4707 9.41211L72.709 9.55566L72.7129 9.83301L73.0225 30.1719L91.6582 19.3955L91.8975 19.2578L92.1416 19.3857L109.53 28.543L109.797 28.6836V54.2812Z" fill="#FA5302" stroke="#FA5302"/>
<path d="M56.8916 62.4299L56.4473 63.1838L56.4082 63.2502L55.9775 63.9807L55.5469 63.2502L55.5078 63.1838L55.0635 62.4299H56.8916Z" fill="#FA5302" stroke="#FA5302"/>
<path d="M38.7373 54.4946L41.7012 56.2856L41.1875 57.144L38.209 55.3794L37.791 55.1323L38.0264 54.7065L38.042 54.6802L38.293 54.2261L38.7373 54.4946Z" fill="#FA5302" stroke="#FA5302"/>
<path d="M56.8916 62.4301L56.4473 63.184L56.4082 63.2504L55.9775 63.9808L55.5469 63.2504L55.5078 63.184L55.0635 62.4301H56.8916Z" fill="#FA5302" stroke="#FA5302"/>
<path d="M56.8916 62.4299L56.4473 63.1838L56.4082 63.2502L55.9775 63.9807L55.5469 63.2502L55.5078 63.1838L55.0635 62.4299H56.8916Z" fill="#FA5302" stroke="#FA5302"/>
</g>
<defs>
<clipPath id="clip0_303_2089">
<rect width="111" height="127" fill="white"/>
</clipPath>
</defs>
</svg>
