<svg width="346" height="128" viewBox="0 0 346 128" fill="none" xmlns="http://www.w3.org/2000/svg">
<path d="M11.6761 73.3636L22.223 106.517H22.6278L33.196 73.3636H43.4233L28.3807 117H16.4915L1.42756 73.3636H11.6761ZM48.505 117V84.2727H57.5817V117H48.505ZM53.0646 80.054C51.7152 80.054 50.5575 79.6065 49.5916 78.7116C48.6399 77.8026 48.1641 76.7159 48.1641 75.4517C48.1641 74.2017 48.6399 73.1293 49.5916 72.2344C50.5575 71.3253 51.7152 70.8707 53.0646 70.8707C54.4141 70.8707 55.5646 71.3253 56.5163 72.2344C57.4822 73.1293 57.9652 74.2017 57.9652 75.4517C57.9652 76.7159 57.4822 77.8026 56.5163 78.7116C55.5646 79.6065 54.4141 80.054 53.0646 80.054ZM76.9123 117.533C74.4265 117.533 72.1751 116.893 70.158 115.615C68.1552 114.322 66.5643 112.426 65.3853 109.926C64.2205 107.412 63.6381 104.33 63.6381 100.679C63.6381 96.929 64.2418 93.8111 65.4492 91.3253C66.6566 88.8253 68.2617 86.9574 70.2646 85.7216C72.2816 84.4716 74.4904 83.8466 76.891 83.8466C78.7234 83.8466 80.2504 84.1591 81.4719 84.7841C82.7077 85.3949 83.7021 86.1619 84.4549 87.0852C85.2219 87.9943 85.8043 88.8892 86.2021 89.7699H86.479V73.3636H95.5344V117H86.5856V111.759H86.2021C85.7759 112.668 85.1722 113.57 84.391 114.464C83.6239 115.345 82.6225 116.077 81.3867 116.659C80.1651 117.241 78.6737 117.533 76.9123 117.533ZM79.7887 110.31C81.2518 110.31 82.4876 109.912 83.4961 109.116C84.5188 108.307 85.3001 107.178 85.8398 105.729C86.3938 104.28 86.6708 102.582 86.6708 100.636C86.6708 98.6903 86.4009 97 85.8612 95.5653C85.3214 94.1307 84.5401 93.0227 83.5174 92.2415C82.4947 91.4602 81.2518 91.0696 79.7887 91.0696C78.2972 91.0696 77.0401 91.4744 76.0174 92.2841C74.9947 93.0937 74.2205 94.2159 73.695 95.6506C73.1694 97.0852 72.9066 98.7472 72.9066 100.636C72.9066 102.54 73.1694 104.223 73.695 105.686C74.2347 107.135 75.0089 108.271 76.0174 109.095C77.0401 109.905 78.2972 110.31 79.7887 110.31ZM117.912 117.639C114.545 117.639 111.648 116.957 109.219 115.594C106.804 114.216 104.943 112.27 103.636 109.756C102.33 107.227 101.676 104.237 101.676 100.786C101.676 97.419 102.33 94.4645 103.636 91.9219C104.943 89.3793 106.783 87.3977 109.155 85.9773C111.541 84.5568 114.339 83.8466 117.55 83.8466C119.709 83.8466 121.719 84.1946 123.58 84.8906C125.455 85.5724 127.088 86.6023 128.48 87.9801C129.886 89.358 130.98 91.0909 131.761 93.179C132.543 95.2528 132.933 97.6818 132.933 100.466V102.959H105.298V97.3338H124.389C124.389 96.027 124.105 94.8693 123.537 93.8608C122.969 92.8523 122.18 92.0639 121.172 91.4957C120.178 90.9134 119.02 90.6222 117.699 90.6222C116.321 90.6222 115.099 90.9418 114.034 91.581C112.983 92.206 112.159 93.0511 111.562 94.1165C110.966 95.1676 110.661 96.3395 110.646 97.6321V102.98C110.646 104.599 110.945 105.999 111.541 107.178C112.152 108.357 113.011 109.266 114.119 109.905C115.227 110.544 116.541 110.864 118.061 110.864C119.07 110.864 119.993 110.722 120.831 110.438C121.669 110.153 122.386 109.727 122.983 109.159C123.58 108.591 124.034 107.895 124.347 107.071L132.741 107.625C132.315 109.642 131.442 111.403 130.121 112.909C128.814 114.401 127.124 115.565 125.05 116.403C122.99 117.227 120.611 117.639 117.912 117.639ZM153.643 117.639C150.334 117.639 147.472 116.936 145.057 115.53C142.656 114.109 140.803 112.135 139.496 109.607C138.189 107.064 137.536 104.116 137.536 100.764C137.536 97.3835 138.189 94.429 139.496 91.9006C140.803 89.358 142.656 87.3835 145.057 85.9773C147.472 84.5568 150.334 83.8466 153.643 83.8466C156.953 83.8466 159.808 84.5568 162.209 85.9773C164.624 87.3835 166.484 89.358 167.791 91.9006C169.098 94.429 169.751 97.3835 169.751 100.764C169.751 104.116 169.098 107.064 167.791 109.607C166.484 112.135 164.624 114.109 162.209 115.53C159.808 116.936 156.953 117.639 153.643 117.639ZM153.686 110.608C155.192 110.608 156.449 110.182 157.457 109.33C158.466 108.463 159.226 107.284 159.737 105.793C160.263 104.301 160.526 102.604 160.526 100.7C160.526 98.7969 160.263 97.0994 159.737 95.608C159.226 94.1165 158.466 92.9375 157.457 92.071C156.449 91.2045 155.192 90.7713 153.686 90.7713C152.166 90.7713 150.888 91.2045 149.851 92.071C148.828 92.9375 148.054 94.1165 147.528 95.608C147.017 97.0994 146.761 98.7969 146.761 100.7C146.761 102.604 147.017 104.301 147.528 105.793C148.054 107.284 148.828 108.463 149.851 109.33C150.888 110.182 152.166 110.608 153.686 110.608Z" fill="#AB31AA"/>
<path d="M3.30256 11.3636H16.3636L27.4432 38.3807H27.9545L39.0341 11.3636H52.0952V55H41.8253V28.196H41.4631L30.9801 54.723H24.4176L13.9347 28.0469H13.5724V55H3.30256V11.3636ZM68.1126 55H56.7773L71.5004 11.3636H85.5415L100.265 55H88.9293L78.6808 22.358H78.3398L68.1126 55ZM66.5998 37.8267H90.293V45.8381H66.5998V37.8267ZM121.092 55H104.963V11.3636H121.071C125.517 11.3636 129.345 12.2372 132.555 13.9844C135.779 15.7173 138.265 18.2173 140.012 21.4844C141.76 24.7372 142.633 28.6293 142.633 33.1605C142.633 37.706 141.76 41.6122 140.012 44.8793C138.279 48.1463 135.801 50.6534 132.576 52.4006C129.352 54.1335 125.524 55 121.092 55ZM115.51 46.0085H120.687C123.13 46.0085 125.197 45.5966 126.887 44.7727C128.592 43.9347 129.877 42.5781 130.744 40.7031C131.625 38.8139 132.065 36.2997 132.065 33.1605C132.065 30.0213 131.625 27.5213 130.744 25.6605C129.863 23.7855 128.564 22.4361 126.845 21.6122C125.14 20.7741 123.038 20.3551 120.538 20.3551H115.51V46.0085ZM181.497 37.7415L150.645 50.696V41.0227L171.014 33.3949L170.716 33.8849V32.7557L171.014 33.2244L150.645 25.6179V15.9233L181.497 28.8778V37.7415Z" fill="black"/>
<path d="M215.009 99.7415L184.156 112.696V103.023L204.526 95.3949L204.227 95.8849V94.7557L204.526 95.2244L184.156 87.6179V77.9233L215.009 90.8778V99.7415ZM241.221 73.3636H251.619V103.534C251.605 106.361 250.93 108.832 249.595 110.949C248.26 113.051 246.413 114.685 244.055 115.849C241.711 117.014 238.998 117.597 235.916 117.597C233.189 117.597 230.71 117.121 228.48 116.169C226.264 115.217 224.495 113.74 223.174 111.737C221.868 109.734 221.221 107.17 221.235 104.045H231.74C231.782 105.168 231.995 106.126 232.379 106.922C232.777 107.703 233.324 108.293 234.02 108.69C234.716 109.088 235.547 109.287 236.512 109.287C237.521 109.287 238.373 109.074 239.069 108.648C239.765 108.207 240.291 107.561 240.646 106.709C241.015 105.857 241.207 104.798 241.221 103.534V73.3636ZM267.466 117.554C265.378 117.554 263.524 117.206 261.905 116.51C260.3 115.8 259.028 114.734 258.091 113.314C257.168 111.879 256.706 110.082 256.706 107.923C256.706 106.105 257.026 104.571 257.665 103.321C258.304 102.071 259.185 101.055 260.307 100.274C261.429 99.4929 262.722 98.9034 264.185 98.5057C265.648 98.0937 267.21 97.8168 268.872 97.6747C270.733 97.5043 272.232 97.3267 273.368 97.142C274.504 96.9432 275.328 96.6662 275.839 96.3111C276.365 95.9418 276.628 95.4233 276.628 94.7557V94.6491C276.628 93.5554 276.251 92.7102 275.499 92.1136C274.746 91.517 273.73 91.2188 272.452 91.2188C271.074 91.2188 269.966 91.517 269.128 92.1136C268.29 92.7102 267.757 93.5341 267.53 94.5852L257.92 94.2443C258.205 92.2557 258.936 90.4801 260.115 88.9176C261.308 87.3409 262.942 86.1051 265.016 85.2102C267.104 84.3011 269.611 83.8466 272.537 83.8466C274.625 83.8466 276.55 84.0952 278.311 84.5923C280.072 85.0753 281.607 85.7855 282.913 86.723C284.22 87.6463 285.229 88.7827 285.939 90.1321C286.663 91.4815 287.026 93.0227 287.026 94.7557V117H277.224V112.44H276.969C276.386 113.548 275.641 114.486 274.732 115.253C273.837 116.02 272.778 116.595 271.557 116.979C270.349 117.362 268.986 117.554 267.466 117.554ZM270.683 110.736C271.805 110.736 272.814 110.509 273.709 110.054C274.618 109.599 275.342 108.974 275.882 108.179C276.422 107.369 276.692 106.432 276.692 105.366V102.256C276.393 102.412 276.031 102.554 275.605 102.682C275.193 102.81 274.739 102.93 274.241 103.044C273.744 103.158 273.233 103.257 272.707 103.342C272.182 103.428 271.678 103.506 271.195 103.577C270.214 103.733 269.376 103.974 268.68 104.301C267.999 104.628 267.473 105.054 267.104 105.58C266.749 106.091 266.571 106.702 266.571 107.412C266.571 108.491 266.955 109.315 267.722 109.884C268.503 110.452 269.49 110.736 270.683 110.736ZM293.396 117V84.2727H303.304V90.2812H303.666C304.348 88.2926 305.499 86.723 307.118 85.5724C308.737 84.4219 310.669 83.8466 312.913 83.8466C315.186 83.8466 317.132 84.429 318.751 85.5938C320.371 86.7585 321.401 88.321 321.841 90.2812H322.182C322.793 88.3352 323.986 86.7798 325.761 85.6151C327.537 84.4361 329.632 83.8466 332.047 83.8466C335.143 83.8466 337.658 84.8409 339.589 86.8295C341.521 88.804 342.487 91.517 342.487 94.9688V117H332.068V97.3551C332.068 95.7216 331.649 94.4787 330.811 93.6264C329.973 92.7599 328.886 92.3267 327.551 92.3267C326.116 92.3267 324.987 92.7955 324.163 93.733C323.354 94.6562 322.949 95.8991 322.949 97.4616V117H312.935V97.2486C312.935 95.7287 312.523 94.5284 311.699 93.6477C310.875 92.767 309.788 92.3267 308.439 92.3267C307.53 92.3267 306.727 92.5469 306.031 92.9872C305.335 93.4134 304.788 94.0241 304.391 94.8196C304.007 95.6151 303.815 96.5526 303.815 97.6321V117H293.396Z" fill="black"/>
</svg>
