<svg width="475" height="132" viewBox="0 0 475 132" fill="none" xmlns="http://www.w3.org/2000/svg">
<path d="M11.3139 121H1.42756L16.4915 77.3636H28.3807L43.4233 121H33.5369L22.6065 87.3352H22.2656L11.3139 121ZM10.696 103.848H34.0483V111.05H10.696V103.848ZM57.5817 102.08V121H48.505V88.2727H57.1555V94.0469H57.5391C58.2635 92.1435 59.478 90.6378 61.1825 89.5298C62.8871 88.4077 64.9538 87.8466 67.3828 87.8466C69.6555 87.8466 71.6371 88.3438 73.3274 89.3381C75.0178 90.3324 76.3317 91.7528 77.2692 93.5994C78.2067 95.4318 78.6754 97.6193 78.6754 100.162V121H69.5987V101.781C69.6129 99.7784 69.1016 98.2159 68.0646 97.0938C67.0277 95.9574 65.6001 95.3892 63.782 95.3892C62.5604 95.3892 61.4808 95.652 60.5433 96.1776C59.62 96.7031 58.8956 97.4702 58.37 98.4787C57.8587 99.473 57.5959 100.673 57.5817 102.08ZM85.8292 121V88.2727H94.9059V121H85.8292ZM90.3888 84.054C89.0394 84.054 87.8817 83.6065 86.9158 82.7116C85.9641 81.8026 85.4883 80.7159 85.4883 79.4517C85.4883 78.2017 85.9641 77.1293 86.9158 76.2344C87.8817 75.3253 89.0394 74.8707 90.3888 74.8707C91.7383 74.8707 92.8888 75.3253 93.8406 76.2344C94.8065 77.1293 95.2894 78.2017 95.2894 79.4517C95.2894 80.7159 94.8065 81.8026 93.8406 82.7116C92.8888 83.6065 91.7383 84.054 90.3888 84.054ZM102.177 121V88.2727H110.827V94.0469H111.211C111.893 92.1293 113.029 90.6165 114.62 89.5085C116.211 88.4006 118.114 87.8466 120.33 87.8466C122.575 87.8466 124.485 88.4077 126.062 89.5298C127.638 90.6378 128.69 92.1435 129.215 94.0469H129.556C130.224 92.1719 131.431 90.6733 133.178 89.5511C134.94 88.4148 137.021 87.8466 139.421 87.8466C142.475 87.8466 144.954 88.8196 146.857 90.7656C148.775 92.6974 149.734 95.4389 149.734 98.9901V121H140.678V100.78C140.678 98.9616 140.195 97.598 139.229 96.6889C138.263 95.7798 137.056 95.3253 135.607 95.3253C133.96 95.3253 132.674 95.8509 131.751 96.902C130.827 97.9389 130.366 99.3097 130.366 101.014V121H121.566V100.588C121.566 98.983 121.104 97.7045 120.181 96.7528C119.272 95.8011 118.072 95.3253 116.58 95.3253C115.572 95.3253 114.663 95.581 113.853 96.0923C113.058 96.5895 112.425 97.2926 111.957 98.2017C111.488 99.0966 111.254 100.148 111.254 101.355V121H102.177ZM166.236 121.618C164.148 121.618 162.287 121.256 160.653 120.531C159.02 119.793 157.727 118.706 156.776 117.271C155.838 115.822 155.369 114.018 155.369 111.859C155.369 110.041 155.703 108.514 156.371 107.278C157.038 106.043 157.947 105.048 159.098 104.295C160.249 103.543 161.555 102.974 163.018 102.591C164.496 102.207 166.044 101.938 167.663 101.781C169.567 101.582 171.101 101.398 172.266 101.227C173.43 101.043 174.276 100.773 174.801 100.418C175.327 100.062 175.589 99.5369 175.589 98.8409V98.7131C175.589 97.3636 175.163 96.3196 174.311 95.581C173.473 94.8423 172.28 94.473 170.732 94.473C169.098 94.473 167.798 94.8352 166.832 95.5597C165.866 96.2699 165.227 97.1648 164.915 98.2443L156.52 97.5625C156.946 95.5739 157.784 93.8551 159.034 92.4062C160.284 90.9432 161.896 89.821 163.871 89.0398C165.859 88.2443 168.161 87.8466 170.774 87.8466C172.592 87.8466 174.332 88.0597 175.994 88.4858C177.67 88.9119 179.155 89.5724 180.447 90.4673C181.754 91.3622 182.784 92.5128 183.537 93.919C184.29 95.3111 184.666 96.9801 184.666 98.9261V121H176.058V116.462H175.803C175.277 117.484 174.574 118.386 173.693 119.168C172.812 119.935 171.754 120.538 170.518 120.979C169.283 121.405 167.855 121.618 166.236 121.618ZM168.835 115.354C170.17 115.354 171.349 115.091 172.372 114.565C173.395 114.026 174.197 113.301 174.78 112.392C175.362 111.483 175.653 110.453 175.653 109.303V105.83C175.369 106.014 174.979 106.185 174.482 106.341C173.999 106.483 173.452 106.618 172.841 106.746C172.23 106.859 171.619 106.966 171.009 107.065C170.398 107.151 169.844 107.229 169.347 107.3C168.281 107.456 167.351 107.705 166.555 108.045C165.76 108.386 165.142 108.848 164.702 109.43C164.261 109.999 164.041 110.709 164.041 111.561C164.041 112.797 164.489 113.741 165.384 114.395C166.293 115.034 167.443 115.354 168.835 115.354ZM209.116 88.2727V95.0909H189.407V88.2727H209.116ZM193.881 80.4318H202.958V110.943C202.958 111.781 203.086 112.435 203.342 112.903C203.597 113.358 203.952 113.678 204.407 113.862C204.876 114.047 205.415 114.139 206.026 114.139C206.452 114.139 206.879 114.104 207.305 114.033C207.731 113.947 208.058 113.884 208.285 113.841L209.712 120.595C209.258 120.737 208.619 120.901 207.795 121.085C206.971 121.284 205.969 121.405 204.79 121.447C202.603 121.533 200.685 121.241 199.038 120.574C197.404 119.906 196.133 118.869 195.224 117.463C194.315 116.057 193.867 114.281 193.881 112.136V80.4318ZM215.028 121V88.2727H224.105V121H215.028ZM219.588 84.054C218.239 84.054 217.081 83.6065 216.115 82.7116C215.163 81.8026 214.688 80.7159 214.688 79.4517C214.688 78.2017 215.163 77.1293 216.115 76.2344C217.081 75.3253 218.239 74.8707 219.588 74.8707C220.938 74.8707 222.088 75.3253 223.04 76.2344C224.006 77.1293 224.489 78.2017 224.489 79.4517C224.489 80.7159 224.006 81.8026 223.04 82.7116C222.088 83.6065 220.938 84.054 219.588 84.054ZM246.163 121.639C242.853 121.639 239.991 120.936 237.576 119.53C235.176 118.109 233.322 116.135 232.015 113.607C230.708 111.064 230.055 108.116 230.055 104.764C230.055 101.384 230.708 98.429 232.015 95.9006C233.322 93.358 235.176 91.3835 237.576 89.9773C239.991 88.5568 242.853 87.8466 246.163 87.8466C249.473 87.8466 252.328 88.5568 254.728 89.9773C257.143 91.3835 259.004 93.358 260.311 95.9006C261.618 98.429 262.271 101.384 262.271 104.764C262.271 108.116 261.618 111.064 260.311 113.607C259.004 116.135 257.143 118.109 254.728 119.53C252.328 120.936 249.473 121.639 246.163 121.639ZM246.206 114.608C247.711 114.608 248.968 114.182 249.977 113.33C250.985 112.463 251.745 111.284 252.257 109.793C252.782 108.301 253.045 106.604 253.045 104.7C253.045 102.797 252.782 101.099 252.257 99.608C251.745 98.1165 250.985 96.9375 249.977 96.071C248.968 95.2045 247.711 94.7713 246.206 94.7713C244.686 94.7713 243.407 95.2045 242.37 96.071C241.348 96.9375 240.574 98.1165 240.048 99.608C239.537 101.099 239.281 102.797 239.281 104.7C239.281 106.604 239.537 108.301 240.048 109.793C240.574 111.284 241.348 112.463 242.37 113.33C243.407 114.182 244.686 114.608 246.206 114.608ZM277.25 102.08V121H268.173V88.2727H276.824V94.0469H277.207C277.931 92.1435 279.146 90.6378 280.85 89.5298C282.555 88.4077 284.622 87.8466 287.051 87.8466C289.324 87.8466 291.305 88.3438 292.995 89.3381C294.686 90.3324 296 91.7528 296.937 93.5994C297.875 95.4318 298.343 97.6193 298.343 100.162V121H289.267V101.781C289.281 99.7784 288.77 98.2159 287.733 97.0938C286.696 95.9574 285.268 95.3892 283.45 95.3892C282.228 95.3892 281.149 95.652 280.211 96.1776C279.288 96.7031 278.564 97.4702 278.038 98.4787C277.527 99.473 277.264 100.673 277.25 102.08Z" fill="#FE0000"/>
<path d="M3.30256 11.3636H16.3636L27.4432 38.3807H27.9545L39.0341 11.3636H52.0952V55H41.8253V28.196H41.4631L30.9801 54.723H24.4176L13.9347 28.0469H13.5724V55H3.30256V11.3636ZM68.1126 55H56.7773L71.5004 11.3636H85.5415L100.265 55H88.9293L78.6808 22.358H78.3398L68.1126 55ZM66.5998 37.8267H90.293V45.8381H66.5998V37.8267ZM121.092 55H104.963V11.3636H121.071C125.517 11.3636 129.345 12.2372 132.555 13.9844C135.779 15.7173 138.265 18.2173 140.012 21.4844C141.76 24.7372 142.633 28.6293 142.633 33.1605C142.633 37.706 141.76 41.6122 140.012 44.8793C138.279 48.1463 135.801 50.6534 132.576 52.4006C129.352 54.1335 125.524 55 121.092 55ZM115.51 46.0085H120.687C123.13 46.0085 125.197 45.5966 126.887 44.7727C128.592 43.9347 129.877 42.5781 130.744 40.7031C131.625 38.8139 132.065 36.2997 132.065 33.1605C132.065 30.0213 131.625 27.5213 130.744 25.6605C129.863 23.7855 128.564 22.4361 126.845 21.6122C125.14 20.7741 123.038 20.3551 120.538 20.3551H115.51V46.0085ZM181.497 37.7415L150.645 50.696V41.0227L171.014 33.3949L170.716 33.8849V32.7557L171.014 33.2244L150.645 25.6179V15.9233L181.497 28.8778V37.7415Z" fill="black"/>
<path d="M344.009 103.741L313.156 116.696V107.023L333.526 99.3949L333.227 99.8849V98.7557L333.526 99.2244L313.156 91.6179V81.9233L344.009 94.8778V103.741ZM370.221 77.3636H380.619V107.534C380.605 110.361 379.93 112.832 378.595 114.949C377.26 117.051 375.413 118.685 373.055 119.849C370.711 121.014 367.998 121.597 364.916 121.597C362.189 121.597 359.71 121.121 357.48 120.169C355.264 119.217 353.495 117.74 352.174 115.737C350.868 113.734 350.221 111.17 350.235 108.045H360.74C360.782 109.168 360.995 110.126 361.379 110.922C361.777 111.703 362.324 112.293 363.02 112.69C363.716 113.088 364.547 113.287 365.512 113.287C366.521 113.287 367.373 113.074 368.069 112.648C368.765 112.207 369.291 111.561 369.646 110.709C370.015 109.857 370.207 108.798 370.221 107.534V77.3636ZM396.466 121.554C394.378 121.554 392.524 121.206 390.905 120.51C389.3 119.8 388.028 118.734 387.091 117.314C386.168 115.879 385.706 114.082 385.706 111.923C385.706 110.105 386.026 108.571 386.665 107.321C387.304 106.071 388.185 105.055 389.307 104.274C390.429 103.493 391.722 102.903 393.185 102.506C394.648 102.094 396.21 101.817 397.872 101.675C399.733 101.504 401.232 101.327 402.368 101.142C403.504 100.943 404.328 100.666 404.839 100.311C405.365 99.9418 405.628 99.4233 405.628 98.7557V98.6491C405.628 97.5554 405.251 96.7102 404.499 96.1136C403.746 95.517 402.73 95.2188 401.452 95.2188C400.074 95.2188 398.966 95.517 398.128 96.1136C397.29 96.7102 396.757 97.5341 396.53 98.5852L386.92 98.2443C387.205 96.2557 387.936 94.4801 389.115 92.9176C390.308 91.3409 391.942 90.1051 394.016 89.2102C396.104 88.3011 398.611 87.8466 401.537 87.8466C403.625 87.8466 405.55 88.0952 407.311 88.5923C409.072 89.0753 410.607 89.7855 411.913 90.723C413.22 91.6463 414.229 92.7827 414.939 94.1321C415.663 95.4815 416.026 97.0227 416.026 98.7557V121H406.224V116.44H405.969C405.386 117.548 404.641 118.486 403.732 119.253C402.837 120.02 401.778 120.595 400.557 120.979C399.349 121.362 397.986 121.554 396.466 121.554ZM399.683 114.736C400.805 114.736 401.814 114.509 402.709 114.054C403.618 113.599 404.342 112.974 404.882 112.179C405.422 111.369 405.692 110.432 405.692 109.366V106.256C405.393 106.412 405.031 106.554 404.605 106.682C404.193 106.81 403.739 106.93 403.241 107.044C402.744 107.158 402.233 107.257 401.707 107.342C401.182 107.428 400.678 107.506 400.195 107.577C399.214 107.733 398.376 107.974 397.68 108.301C396.999 108.628 396.473 109.054 396.104 109.58C395.749 110.091 395.571 110.702 395.571 111.412C395.571 112.491 395.955 113.315 396.722 113.884C397.503 114.452 398.49 114.736 399.683 114.736ZM422.396 121V88.2727H432.304V94.2812H432.666C433.348 92.2926 434.499 90.723 436.118 89.5724C437.737 88.4219 439.669 87.8466 441.913 87.8466C444.186 87.8466 446.132 88.429 447.751 89.5938C449.371 90.7585 450.401 92.321 450.841 94.2812H451.182C451.793 92.3352 452.986 90.7798 454.761 89.6151C456.537 88.4361 458.632 87.8466 461.047 87.8466C464.143 87.8466 466.658 88.8409 468.589 90.8295C470.521 92.804 471.487 95.517 471.487 98.9688V121H461.068V101.355C461.068 99.7216 460.649 98.4787 459.811 97.6264C458.973 96.7599 457.886 96.3267 456.551 96.3267C455.116 96.3267 453.987 96.7955 453.163 97.733C452.354 98.6562 451.949 99.8991 451.949 101.462V121H441.935V101.249C441.935 99.7287 441.523 98.5284 440.699 97.6477C439.875 96.767 438.788 96.3267 437.439 96.3267C436.53 96.3267 435.727 96.5469 435.031 96.9872C434.335 97.4134 433.788 98.0241 433.391 98.8196C433.007 99.6151 432.815 100.553 432.815 101.632V121H422.396Z" fill="black"/>
</svg>
