<svg width="346" height="128" viewBox="0 0 346 128" fill="none" xmlns="http://www.w3.org/2000/svg">
<path d="M32.7273 87.4688C32.429 86.4318 32.0099 85.5156 31.4702 84.7202C30.9304 83.9105 30.2699 83.2287 29.4886 82.6747C28.7216 82.1065 27.8409 81.6733 26.8466 81.375C25.8665 81.0767 24.7798 80.9276 23.5866 80.9276C21.3565 80.9276 19.3963 81.4815 17.706 82.5895C16.0298 83.6974 14.723 85.3097 13.7855 87.4261C12.848 89.5284 12.3793 92.0994 12.3793 95.1392C12.3793 98.179 12.8409 100.764 13.7642 102.895C14.6875 105.026 15.9943 106.652 17.6847 107.774C19.375 108.882 21.3707 109.436 23.6719 109.436C25.7599 109.436 27.5426 109.067 29.0199 108.328C30.5114 107.575 31.6477 106.517 32.429 105.153C33.2244 103.79 33.6222 102.178 33.6222 100.317L35.4972 100.594H24.2472V93.6477H42.5071V99.1449C42.5071 102.98 41.6974 106.276 40.0781 109.031C38.4588 111.773 36.2287 113.889 33.3878 115.381C30.5469 116.858 27.294 117.597 23.6293 117.597C19.5384 117.597 15.9446 116.695 12.848 114.891C9.75142 113.072 7.33665 110.494 5.60369 107.156C3.88494 103.804 3.02557 99.8267 3.02557 95.2244C3.02557 91.6875 3.53693 88.5341 4.55966 85.7642C5.59659 82.9801 7.04545 80.6222 8.90625 78.6903C10.767 76.7585 12.9332 75.2884 15.4048 74.2798C17.8764 73.2713 20.554 72.767 23.4375 72.767C25.9091 72.767 28.2102 73.1293 30.3409 73.8537C32.4716 74.5639 34.3608 75.5724 36.0085 76.8793C37.6705 78.1861 39.027 79.7415 40.0781 81.5455C41.1293 83.3352 41.804 85.3097 42.1023 87.4688H32.7273ZM58.5991 117.618C56.511 117.618 54.6502 117.256 53.0167 116.531C51.3832 115.793 50.0906 114.706 49.1388 113.271C48.2013 111.822 47.7326 110.018 47.7326 107.859C47.7326 106.041 48.0664 104.514 48.734 103.278C49.4016 102.043 50.3107 101.048 51.4613 100.295C52.6119 99.5426 53.9187 98.9744 55.3817 98.5909C56.859 98.2074 58.4073 97.9375 60.0266 97.7812C61.93 97.5824 63.4641 97.3977 64.6289 97.2273C65.7937 97.0426 66.6389 96.7727 67.1644 96.4176C67.69 96.0625 67.9528 95.5369 67.9528 94.8409V94.7131C67.9528 93.3636 67.5266 92.3196 66.6744 91.581C65.8363 90.8423 64.6431 90.473 63.0948 90.473C61.4613 90.473 60.1616 90.8352 59.1957 91.5597C58.2298 92.2699 57.5906 93.1648 57.2781 94.2443L48.8832 93.5625C49.3093 91.5739 50.1474 89.8551 51.3974 88.4062C52.6474 86.9432 54.2596 85.821 56.234 85.0398C58.2227 84.2443 60.5238 83.8466 63.1374 83.8466C64.9556 83.8466 66.6957 84.0597 68.3576 84.4858C70.0337 84.9119 71.5181 85.5724 72.8107 86.4673C74.1175 87.3622 75.1474 88.5128 75.9002 89.919C76.6531 91.3111 77.0295 92.9801 77.0295 94.9261V117H68.4215V112.462H68.1658C67.6403 113.484 66.9371 114.386 66.0565 115.168C65.1758 115.935 64.1175 116.538 62.8817 116.979C61.646 117.405 60.2184 117.618 58.5991 117.618ZM61.1985 111.354C62.5337 111.354 63.7127 111.091 64.7354 110.565C65.7582 110.026 66.5607 109.301 67.1431 108.392C67.7255 107.483 68.0167 106.453 68.0167 105.303V101.83C67.7326 102.014 67.342 102.185 66.8448 102.341C66.3619 102.483 65.815 102.618 65.2042 102.746C64.5934 102.859 63.9826 102.966 63.3718 103.065C62.761 103.151 62.207 103.229 61.7099 103.3C60.6445 103.456 59.7141 103.705 58.9187 104.045C58.1232 104.386 57.5053 104.848 57.065 105.43C56.6246 105.999 56.4045 106.709 56.4045 107.561C56.4045 108.797 56.8519 109.741 57.7468 110.395C58.6559 111.034 59.8065 111.354 61.1985 111.354ZM84.0714 117V84.2727H92.7219V90.0469H93.1055C93.7873 88.1293 94.9237 86.6165 96.5146 85.5085C98.1055 84.4006 100.009 83.8466 102.225 83.8466C104.469 83.8466 106.38 84.4077 107.956 85.5298C109.533 86.6378 110.584 88.1435 111.11 90.0469H111.451C112.118 88.1719 113.326 86.6733 115.073 85.5511C116.834 84.4148 118.915 83.8466 121.316 83.8466C124.37 83.8466 126.848 84.8196 128.752 86.7656C130.669 88.6974 131.628 91.4389 131.628 94.9901V117H122.573V96.7798C122.573 94.9616 122.09 93.598 121.124 92.6889C120.158 91.7798 118.951 91.3253 117.502 91.3253C115.854 91.3253 114.569 91.8509 113.645 92.902C112.722 93.9389 112.26 95.3097 112.26 97.0142V117H103.461V96.5881C103.461 94.983 102.999 93.7045 102.076 92.7528C101.167 91.8011 99.9663 91.3253 98.4748 91.3253C97.4663 91.3253 96.5572 91.581 95.7475 92.0923C94.9521 92.5895 94.32 93.2926 93.8512 94.2017C93.3825 95.0966 93.1481 96.1477 93.1481 97.3551V117H84.0714ZM153.713 117.639C150.346 117.639 147.449 116.957 145.02 115.594C142.605 114.216 140.744 112.27 139.437 109.756C138.13 107.227 137.477 104.237 137.477 100.786C137.477 97.419 138.13 94.4645 139.437 91.9219C140.744 89.3793 142.583 87.3977 144.956 85.9773C147.342 84.5568 150.14 83.8466 153.35 83.8466C155.51 83.8466 157.52 84.1946 159.38 84.8906C161.255 85.5724 162.889 86.6023 164.281 87.9801C165.687 89.358 166.781 91.0909 167.562 93.179C168.343 95.2528 168.734 97.6818 168.734 100.466V102.959H141.099V97.3338H160.19C160.19 96.027 159.906 94.8693 159.338 93.8608C158.77 92.8523 157.981 92.0639 156.973 91.4957C155.978 90.9134 154.821 90.6222 153.5 90.6222C152.122 90.6222 150.9 90.9418 149.835 91.581C148.784 92.206 147.96 93.0511 147.363 94.1165C146.767 95.1676 146.461 96.3395 146.447 97.6321V102.98C146.447 104.599 146.745 105.999 147.342 107.178C147.953 108.357 148.812 109.266 149.92 109.905C151.028 110.544 152.342 110.864 153.862 110.864C154.87 110.864 155.794 110.722 156.632 110.438C157.47 110.153 158.187 109.727 158.784 109.159C159.38 108.591 159.835 107.895 160.147 107.071L168.542 107.625C168.116 109.642 167.243 111.403 165.922 112.909C164.615 114.401 162.924 115.565 160.85 116.403C158.791 117.227 156.412 117.639 153.713 117.639Z" fill="#0F60FF"/>
<path d="M3.30256 11.3636H16.3636L27.4432 38.3807H27.9545L39.0341 11.3636H52.0952V55H41.8253V28.196H41.4631L30.9801 54.723H24.4176L13.9347 28.0469H13.5724V55H3.30256V11.3636ZM68.1126 55H56.7773L71.5004 11.3636H85.5415L100.265 55H88.9293L78.6808 22.358H78.3398L68.1126 55ZM66.5998 37.8267H90.293V45.8381H66.5998V37.8267ZM121.092 55H104.963V11.3636H121.071C125.517 11.3636 129.345 12.2372 132.555 13.9844C135.779 15.7173 138.265 18.2173 140.012 21.4844C141.76 24.7372 142.633 28.6293 142.633 33.1605C142.633 37.706 141.76 41.6122 140.012 44.8793C138.279 48.1463 135.801 50.6534 132.576 52.4006C129.352 54.1335 125.524 55 121.092 55ZM115.51 46.0085H120.687C123.13 46.0085 125.197 45.5966 126.887 44.7727C128.592 43.9347 129.877 42.5781 130.744 40.7031C131.625 38.8139 132.065 36.2997 132.065 33.1605C132.065 30.0213 131.625 27.5213 130.744 25.6605C129.863 23.7855 128.564 22.4361 126.845 21.6122C125.14 20.7741 123.038 20.3551 120.538 20.3551H115.51V46.0085ZM181.497 37.7415L150.645 50.696V41.0227L171.014 33.3949L170.716 33.8849V32.7557L171.014 33.2244L150.645 25.6179V15.9233L181.497 28.8778V37.7415Z" fill="black"/>
<path d="M215.009 99.7415L184.156 112.696V103.023L204.526 95.3949L204.227 95.8849V94.7557L204.526 95.2244L184.156 87.6179V77.9233L215.009 90.8778V99.7415ZM241.221 73.3636H251.619V103.534C251.605 106.361 250.93 108.832 249.595 110.949C248.26 113.051 246.413 114.685 244.055 115.849C241.711 117.014 238.998 117.597 235.916 117.597C233.189 117.597 230.71 117.121 228.48 116.169C226.264 115.217 224.495 113.74 223.174 111.737C221.868 109.734 221.221 107.17 221.235 104.045H231.74C231.782 105.168 231.995 106.126 232.379 106.922C232.777 107.703 233.324 108.293 234.02 108.69C234.716 109.088 235.547 109.287 236.512 109.287C237.521 109.287 238.373 109.074 239.069 108.648C239.765 108.207 240.291 107.561 240.646 106.709C241.015 105.857 241.207 104.798 241.221 103.534V73.3636ZM267.466 117.554C265.378 117.554 263.524 117.206 261.905 116.51C260.3 115.8 259.028 114.734 258.091 113.314C257.168 111.879 256.706 110.082 256.706 107.923C256.706 106.105 257.026 104.571 257.665 103.321C258.304 102.071 259.185 101.055 260.307 100.274C261.429 99.4929 262.722 98.9034 264.185 98.5057C265.648 98.0937 267.21 97.8168 268.872 97.6747C270.733 97.5043 272.232 97.3267 273.368 97.142C274.504 96.9432 275.328 96.6662 275.839 96.3111C276.365 95.9418 276.628 95.4233 276.628 94.7557V94.6491C276.628 93.5554 276.251 92.7102 275.499 92.1136C274.746 91.517 273.73 91.2188 272.452 91.2188C271.074 91.2188 269.966 91.517 269.128 92.1136C268.29 92.7102 267.757 93.5341 267.53 94.5852L257.92 94.2443C258.205 92.2557 258.936 90.4801 260.115 88.9176C261.308 87.3409 262.942 86.1051 265.016 85.2102C267.104 84.3011 269.611 83.8466 272.537 83.8466C274.625 83.8466 276.55 84.0952 278.311 84.5923C280.072 85.0753 281.607 85.7855 282.913 86.723C284.22 87.6463 285.229 88.7827 285.939 90.1321C286.663 91.4815 287.026 93.0227 287.026 94.7557V117H277.224V112.44H276.969C276.386 113.548 275.641 114.486 274.732 115.253C273.837 116.02 272.778 116.595 271.557 116.979C270.349 117.362 268.986 117.554 267.466 117.554ZM270.683 110.736C271.805 110.736 272.814 110.509 273.709 110.054C274.618 109.599 275.342 108.974 275.882 108.179C276.422 107.369 276.692 106.432 276.692 105.366V102.256C276.393 102.412 276.031 102.554 275.605 102.682C275.193 102.81 274.739 102.93 274.241 103.044C273.744 103.158 273.233 103.257 272.707 103.342C272.182 103.428 271.678 103.506 271.195 103.577C270.214 103.733 269.376 103.974 268.68 104.301C267.999 104.628 267.473 105.054 267.104 105.58C266.749 106.091 266.571 106.702 266.571 107.412C266.571 108.491 266.955 109.315 267.722 109.884C268.503 110.452 269.49 110.736 270.683 110.736ZM293.396 117V84.2727H303.304V90.2812H303.666C304.348 88.2926 305.499 86.723 307.118 85.5724C308.737 84.4219 310.669 83.8466 312.913 83.8466C315.186 83.8466 317.132 84.429 318.751 85.5938C320.371 86.7585 321.401 88.321 321.841 90.2812H322.182C322.793 88.3352 323.986 86.7798 325.761 85.6151C327.537 84.4361 329.632 83.8466 332.047 83.8466C335.143 83.8466 337.658 84.8409 339.589 86.8295C341.521 88.804 342.487 91.517 342.487 94.9688V117H332.068V97.3551C332.068 95.7216 331.649 94.4787 330.811 93.6264C329.973 92.7599 328.886 92.3267 327.551 92.3267C326.116 92.3267 324.987 92.7955 324.163 93.733C323.354 94.6562 322.949 95.8991 322.949 97.4616V117H312.935V97.2486C312.935 95.7287 312.523 94.5284 311.699 93.6477C310.875 92.767 309.788 92.3267 308.439 92.3267C307.53 92.3267 306.727 92.5469 306.031 92.9872C305.335 93.4134 304.788 94.0241 304.391 94.8196C304.007 95.6151 303.815 96.5526 303.815 97.6321V117H293.396Z" fill="black"/>
</svg>
