<svg width="346" height="128" viewBox="0 0 346 128" fill="none" xmlns="http://www.w3.org/2000/svg">
<path d="M3.79261 117V73.3636H21.0085C24.3182 73.3636 27.1378 73.9957 29.4673 75.2599C31.7969 76.5099 33.5724 78.25 34.794 80.4801C36.0298 82.696 36.6477 85.2528 36.6477 88.1506C36.6477 91.0483 36.0227 93.6051 34.7727 95.821C33.5227 98.0369 31.7116 99.7628 29.3395 100.999C26.9815 102.234 24.1264 102.852 20.7741 102.852H9.80114V95.4588H19.2827C21.0582 95.4588 22.5213 95.1534 23.6719 94.5426C24.8366 93.9176 25.7031 93.0582 26.2713 91.9645C26.8537 90.8565 27.1449 89.5852 27.1449 88.1506C27.1449 86.7017 26.8537 85.4375 26.2713 84.358C25.7031 83.2642 24.8366 82.419 23.6719 81.8224C22.5071 81.2116 21.0298 80.9062 19.2401 80.9062H13.0185V117H3.79261ZM51.5465 98.0795V117H42.4698V73.3636H51.2908V90.0469H51.6744C52.413 88.1151 53.6062 86.6023 55.2539 85.5085C56.9016 84.4006 58.9684 83.8466 61.4542 83.8466C63.7269 83.8466 65.7085 84.3438 67.3988 85.3381C69.1033 86.3182 70.4244 87.7315 71.3619 89.5781C72.3136 91.4105 72.7823 93.6051 72.7681 96.1619V117H63.6914V97.7812C63.7056 95.7642 63.1942 94.1946 62.1573 93.0724C61.1346 91.9503 59.6999 91.3892 57.8533 91.3892C56.6175 91.3892 55.5238 91.652 54.5721 92.1776C53.6346 92.7031 52.896 93.4702 52.3562 94.4787C51.8306 95.473 51.5607 96.6733 51.5465 98.0795ZM94.6982 117.639C91.3885 117.639 88.5263 116.936 86.1115 115.53C83.7109 114.109 81.8572 112.135 80.5504 109.607C79.2436 107.064 78.5902 104.116 78.5902 100.764C78.5902 97.3835 79.2436 94.429 80.5504 91.9006C81.8572 89.358 83.7109 87.3835 86.1115 85.9773C88.5263 84.5568 91.3885 83.8466 94.6982 83.8466C98.0078 83.8466 100.863 84.5568 103.263 85.9773C105.678 87.3835 107.539 89.358 108.846 91.9006C110.153 94.429 110.806 97.3835 110.806 100.764C110.806 104.116 110.153 107.064 108.846 109.607C107.539 112.135 105.678 114.109 103.263 115.53C100.863 116.936 98.0078 117.639 94.6982 117.639ZM94.7408 110.608C96.2464 110.608 97.5036 110.182 98.5121 109.33C99.5206 108.463 100.281 107.284 100.792 105.793C101.317 104.301 101.58 102.604 101.58 100.7C101.58 98.7969 101.317 97.0994 100.792 95.608C100.281 94.1165 99.5206 92.9375 98.5121 92.071C97.5036 91.2045 96.2464 90.7713 94.7408 90.7713C93.2209 90.7713 91.9425 91.2045 90.9055 92.071C89.8828 92.9375 89.1087 94.1165 88.5831 95.608C88.0717 97.0994 87.8161 98.7969 87.8161 100.7C87.8161 102.604 88.0717 104.301 88.5831 105.793C89.1087 107.284 89.8828 108.463 90.9055 109.33C91.9425 110.182 93.2209 110.608 94.7408 110.608ZM134.116 84.2727V91.0909H114.407V84.2727H134.116ZM118.881 76.4318H127.958V106.943C127.958 107.781 128.086 108.435 128.342 108.903C128.597 109.358 128.952 109.678 129.407 109.862C129.876 110.047 130.415 110.139 131.026 110.139C131.452 110.139 131.879 110.104 132.305 110.033C132.731 109.947 133.058 109.884 133.285 109.841L134.712 116.595C134.258 116.737 133.619 116.901 132.795 117.085C131.971 117.284 130.969 117.405 129.79 117.447C127.603 117.533 125.685 117.241 124.038 116.574C122.404 115.906 121.133 114.869 120.224 113.463C119.315 112.057 118.867 110.281 118.881 108.136V76.4318ZM154.464 117.639C151.154 117.639 148.292 116.936 145.877 115.53C143.477 114.109 141.623 112.135 140.316 109.607C139.009 107.064 138.356 104.116 138.356 100.764C138.356 97.3835 139.009 94.429 140.316 91.9006C141.623 89.358 143.477 87.3835 145.877 85.9773C148.292 84.5568 151.154 83.8466 154.464 83.8466C157.773 83.8466 160.629 84.5568 163.029 85.9773C165.444 87.3835 167.305 89.358 168.612 91.9006C169.918 94.429 170.572 97.3835 170.572 100.764C170.572 104.116 169.918 107.064 168.612 109.607C167.305 112.135 165.444 114.109 163.029 115.53C160.629 116.936 157.773 117.639 154.464 117.639ZM154.506 110.608C156.012 110.608 157.269 110.182 158.278 109.33C159.286 108.463 160.046 107.284 160.558 105.793C161.083 104.301 161.346 102.604 161.346 100.7C161.346 98.7969 161.083 97.0994 160.558 95.608C160.046 94.1165 159.286 92.9375 158.278 92.071C157.269 91.2045 156.012 90.7713 154.506 90.7713C152.987 90.7713 151.708 91.2045 150.671 92.071C149.648 92.9375 148.874 94.1165 148.349 95.608C147.837 97.0994 147.582 98.7969 147.582 100.7C147.582 102.604 147.837 104.301 148.349 105.793C148.874 107.284 149.648 108.463 150.671 109.33C151.708 110.182 152.987 110.608 154.506 110.608Z" fill="#22B751"/>
<path d="M3.30256 11.3636H16.3636L27.4432 38.3807H27.9545L39.0341 11.3636H52.0952V55H41.8253V28.196H41.4631L30.9801 54.723H24.4176L13.9347 28.0469H13.5724V55H3.30256V11.3636ZM68.1126 55H56.7773L71.5004 11.3636H85.5415L100.265 55H88.9293L78.6808 22.358H78.3398L68.1126 55ZM66.5998 37.8267H90.293V45.8381H66.5998V37.8267ZM121.092 55H104.963V11.3636H121.071C125.517 11.3636 129.345 12.2372 132.555 13.9844C135.779 15.7173 138.265 18.2173 140.012 21.4844C141.76 24.7372 142.633 28.6293 142.633 33.1605C142.633 37.706 141.76 41.6122 140.012 44.8793C138.279 48.1463 135.801 50.6534 132.576 52.4006C129.352 54.1335 125.524 55 121.092 55ZM115.51 46.0085H120.687C123.13 46.0085 125.197 45.5966 126.887 44.7727C128.592 43.9347 129.877 42.5781 130.744 40.7031C131.625 38.8139 132.065 36.2997 132.065 33.1605C132.065 30.0213 131.625 27.5213 130.744 25.6605C129.863 23.7855 128.564 22.4361 126.845 21.6122C125.14 20.7741 123.038 20.3551 120.538 20.3551H115.51V46.0085ZM181.497 37.7415L150.645 50.696V41.0227L171.014 33.3949L170.716 33.8849V32.7557L171.014 33.2244L150.645 25.6179V15.9233L181.497 28.8778V37.7415Z" fill="black"/>
<path d="M215.009 99.7415L184.156 112.696V103.023L204.526 95.3949L204.227 95.8849V94.7557L204.526 95.2244L184.156 87.6179V77.9233L215.009 90.8778V99.7415ZM241.221 73.3636H251.619V103.534C251.605 106.361 250.93 108.832 249.595 110.949C248.26 113.051 246.413 114.685 244.055 115.849C241.711 117.014 238.998 117.597 235.916 117.597C233.189 117.597 230.71 117.121 228.48 116.169C226.264 115.217 224.495 113.74 223.174 111.737C221.868 109.734 221.221 107.17 221.235 104.045H231.74C231.782 105.168 231.995 106.126 232.379 106.922C232.777 107.703 233.324 108.293 234.02 108.69C234.716 109.088 235.547 109.287 236.512 109.287C237.521 109.287 238.373 109.074 239.069 108.648C239.765 108.207 240.291 107.561 240.646 106.709C241.015 105.857 241.207 104.798 241.221 103.534V73.3636ZM267.466 117.554C265.378 117.554 263.524 117.206 261.905 116.51C260.3 115.8 259.028 114.734 258.091 113.314C257.168 111.879 256.706 110.082 256.706 107.923C256.706 106.105 257.026 104.571 257.665 103.321C258.304 102.071 259.185 101.055 260.307 100.274C261.429 99.4929 262.722 98.9034 264.185 98.5057C265.648 98.0937 267.21 97.8168 268.872 97.6747C270.733 97.5043 272.232 97.3267 273.368 97.142C274.504 96.9432 275.328 96.6662 275.839 96.3111C276.365 95.9418 276.628 95.4233 276.628 94.7557V94.6491C276.628 93.5554 276.251 92.7102 275.499 92.1136C274.746 91.517 273.73 91.2188 272.452 91.2188C271.074 91.2188 269.966 91.517 269.128 92.1136C268.29 92.7102 267.757 93.5341 267.53 94.5852L257.92 94.2443C258.205 92.2557 258.936 90.4801 260.115 88.9176C261.308 87.3409 262.942 86.1051 265.016 85.2102C267.104 84.3011 269.611 83.8466 272.537 83.8466C274.625 83.8466 276.55 84.0952 278.311 84.5923C280.072 85.0753 281.607 85.7855 282.913 86.723C284.22 87.6463 285.229 88.7827 285.939 90.1321C286.663 91.4815 287.026 93.0227 287.026 94.7557V117H277.224V112.44H276.969C276.386 113.548 275.641 114.486 274.732 115.253C273.837 116.02 272.778 116.595 271.557 116.979C270.349 117.362 268.986 117.554 267.466 117.554ZM270.683 110.736C271.805 110.736 272.814 110.509 273.709 110.054C274.618 109.599 275.342 108.974 275.882 108.179C276.422 107.369 276.692 106.432 276.692 105.366V102.256C276.393 102.412 276.031 102.554 275.605 102.682C275.193 102.81 274.739 102.93 274.241 103.044C273.744 103.158 273.233 103.257 272.707 103.342C272.182 103.428 271.678 103.506 271.195 103.577C270.214 103.733 269.376 103.974 268.68 104.301C267.999 104.628 267.473 105.054 267.104 105.58C266.749 106.091 266.571 106.702 266.571 107.412C266.571 108.491 266.955 109.315 267.722 109.884C268.503 110.452 269.49 110.736 270.683 110.736ZM293.396 117V84.2727H303.304V90.2812H303.666C304.348 88.2926 305.499 86.723 307.118 85.5724C308.737 84.4219 310.669 83.8466 312.913 83.8466C315.186 83.8466 317.132 84.429 318.751 85.5938C320.371 86.7585 321.401 88.321 321.841 90.2812H322.182C322.793 88.3352 323.986 86.7798 325.761 85.6151C327.537 84.4361 329.632 83.8466 332.047 83.8466C335.143 83.8466 337.658 84.8409 339.589 86.8295C341.521 88.804 342.487 91.517 342.487 94.9688V117H332.068V97.3551C332.068 95.7216 331.649 94.4787 330.811 93.6264C329.973 92.7599 328.886 92.3267 327.551 92.3267C326.116 92.3267 324.987 92.7955 324.163 93.733C323.354 94.6562 322.949 95.8991 322.949 97.4616V117H312.935V97.2486C312.935 95.7287 312.523 94.5284 311.699 93.6477C310.875 92.767 309.788 92.3267 308.439 92.3267C307.53 92.3267 306.727 92.5469 306.031 92.9872C305.335 93.4134 304.788 94.0241 304.391 94.8196C304.007 95.6151 303.815 96.5526 303.815 97.6321V117H293.396Z" fill="black"/>
</svg>
