<svg width="80" height="79" viewBox="0 0 80 79" fill="none" xmlns="http://www.w3.org/2000/svg">
<path d="M36.1686 27.2329L31.8795 29.0201L5.25815 41.1226C4.88322 41.2928 4.56521 41.5673 4.34211 41.9134C4.119 42.2594 4.00024 42.6624 4 43.0742V43.5603C4.00024 43.972 4.119 44.375 4.34211 44.7211C4.56521 45.0671 4.88322 45.3416 5.25815 45.5118L36.7834 59.8447C37.7128 60.2674 38.7219 60.4861 39.7429 60.4861C40.7639 60.4861 41.773 60.2674 42.7024 59.8447L74.2277 45.5118C74.6026 45.3416 74.9206 45.0671 75.1437 44.7211C75.3668 44.375 75.4856 43.972 75.4858 43.5603V43.0742C75.4856 42.6624 75.3668 42.2594 75.1437 41.9134C74.9206 41.5673 74.6026 41.2928 74.2277 41.1226L47.6064 29.0201L43.3172 27.2329" stroke="#FE0000" stroke-width="8"/>
<path d="M75.4858 43.3171V58.0146C75.4857 58.4278 75.3661 58.8321 75.1417 59.1789C74.9172 59.5258 74.5973 59.8004 74.2205 59.9698L42.6774 74.1669C41.7548 74.5822 40.7546 74.7969 39.7429 74.7969C38.7312 74.7969 37.731 74.5822 36.8084 74.1669L5.2653 59.9698C4.88848 59.8004 4.56861 59.5258 4.34414 59.1789C4.11968 58.8321 4.00017 58.4278 4 58.0146V43.3171" stroke="#FE0000" stroke-width="8"/>
<path d="M39.7429 25.4457C36.899 25.4457 34.1716 24.316 32.1607 22.3051C30.1497 20.2942 29.02 17.5668 29.02 14.7229C29.02 11.879 30.1497 9.15159 32.1607 7.14066C34.1716 5.12973 36.899 4 39.7429 4C42.5868 4 45.3142 5.12973 47.3251 7.14066C49.336 9.15159 50.4658 11.879 50.4658 14.7229C50.4658 17.5668 49.336 20.2942 47.3251 22.3051C45.3142 24.316 42.5868 25.4457 39.7429 25.4457Z" stroke="#FE0000" stroke-width="8" stroke-linecap="round" stroke-linejoin="round"/>
<path d="M36.1685 25.4458V43.3173C36.1685 44.2652 36.545 45.1744 37.2153 45.8447C37.8857 46.515 38.7948 46.8915 39.7427 46.8915C40.6907 46.8915 41.5998 46.515 42.2702 45.8447C42.9405 45.1744 43.317 44.2652 43.317 43.3173V25.4458" stroke="#FE0000" stroke-width="8"/>
<path d="M54.0405 43.3171H57.6148" stroke="#FE0000" stroke-width="8" stroke-linecap="round" stroke-linejoin="round"/>
</svg>
