<svg width="269" height="81" viewBox="0 0 269 81" fill="none" xmlns="http://www.w3.org/2000/svg">
<g clip-path="url(#clip0_2658_865)">
<path d="M9.13867 2.18036H19.5009L28.2948 23.2688H28.6983L37.4921 2.18036H47.8544V36.2394H39.7077V15.3232H39.4184L31.1042 36.0297H25.8965L17.5823 15.2109H17.293V36.2469H9.13867V2.18785V2.18036Z" fill="black"/>
<path d="M60.5846 36.2394H51.5928L63.2722 2.18036H74.4111L86.0905 36.2394H77.0987L68.9673 10.7625H68.6932L60.577 36.2394H60.5846ZM59.3816 22.8344H78.1799V29.0876H59.3816V22.8344Z" fill="black"/>
<path d="M102.635 36.2394H89.8359V2.18036H102.619C106.145 2.18036 109.19 2.86184 111.741 4.21731C114.291 5.57278 116.263 7.52736 117.649 10.0735C119.035 12.6197 119.727 15.6602 119.727 19.1949C119.727 22.7296 119.035 25.7925 117.656 28.3387C116.278 30.8849 114.306 32.8395 111.748 34.2024C109.19 35.5579 106.152 36.2394 102.635 36.2394ZM98.2034 29.2224H102.315C104.256 29.2224 105.893 28.9004 107.241 28.2489C108.589 27.5973 109.609 26.5414 110.302 25.0736C110.994 23.6058 111.345 21.6437 111.345 19.1949C111.345 16.7461 110.994 14.7915 110.294 13.3312C109.594 11.8709 108.566 10.8224 107.21 10.1709C105.855 9.51937 104.18 9.19736 102.201 9.19736H98.211V29.2224H98.2034Z" fill="black"/>
<path d="M150.548 22.7671L126.07 32.8769V25.3282L142.234 19.3746L141.998 19.7566V18.8729L142.234 19.2398L126.07 13.3012V5.73755L150.548 15.8474V22.7671Z" fill="black"/>
<path d="M16.1792 46.0797H24.4325V69.6245C24.4249 71.8336 23.8843 73.7583 22.826 75.4058C21.7677 77.0533 20.3058 78.3264 18.4405 79.2401C16.5751 80.1462 14.4205 80.603 11.9765 80.603C9.81416 80.603 7.84982 80.2286 6.08344 79.4872C4.31706 78.7458 2.91614 77.5925 1.87306 76.0274C0.82998 74.4622 0.312247 72.4627 0.327475 70.0214H8.66449C8.69494 70.8975 8.87006 71.6389 9.18222 72.2605C9.49438 72.8746 9.92075 73.3389 10.4766 73.6459C11.0324 73.953 11.6871 74.1102 12.4561 74.1102C13.2251 74.1102 13.9332 73.938 14.4814 73.601C15.0295 73.264 15.4559 72.7623 15.7376 72.0958C16.0269 71.4293 16.1716 70.6055 16.1868 69.617V46.0722L16.1792 46.0797Z" fill="black"/>
<path d="M36.9873 80.573C35.3275 80.573 33.8657 80.2959 32.5866 79.7493C31.3075 79.2026 30.2949 78.3713 29.5639 77.2555C28.833 76.1397 28.46 74.7393 28.46 73.0543C28.46 71.6389 28.7112 70.4407 29.2213 69.4597C29.7315 68.4861 30.4243 67.6923 31.3151 67.0782C32.2059 66.4716 33.2338 66.0073 34.391 65.6928C35.5483 65.3783 36.7894 65.1611 38.1141 65.0562C39.5912 64.9214 40.7789 64.7792 41.685 64.6294C42.5834 64.4796 43.2458 64.2624 43.6569 63.9779C44.0681 63.6933 44.2736 63.2964 44.2736 62.7722V62.6898C44.2736 61.8361 43.9767 61.177 43.3752 60.7127C42.7814 60.2484 41.9743 60.0163 40.9541 60.0163C39.8577 60.0163 38.9821 60.2484 38.3197 60.7127C37.6573 61.177 37.231 61.8211 37.0482 62.6449L29.4269 62.3753C29.6553 60.8251 30.234 59.4322 31.1781 58.2115C32.1222 56.9833 33.4165 56.0248 35.0687 55.3208C36.7208 54.6169 38.708 54.2649 41.0302 54.2649C42.69 54.2649 44.2127 54.4596 45.6137 54.8415C47.0146 55.2235 48.2252 55.7776 49.2682 56.504C50.3037 57.2305 51.1108 58.1216 51.6742 59.1701C52.2452 60.226 52.5269 61.4242 52.5269 62.7797V80.1387H44.7533V76.5815H44.5477C44.0833 77.4427 43.497 78.1766 42.7813 78.7757C42.0657 79.3748 41.2282 79.8241 40.2612 80.1237C39.2943 80.4232 38.2131 80.573 37.0102 80.573H36.9873ZM39.5455 75.2485C40.4363 75.2485 41.2358 75.0688 41.9515 74.7168C42.6671 74.3648 43.2382 73.8706 43.6645 73.2415C44.0909 72.6124 44.3041 71.886 44.3041 71.0548V68.6284C44.0681 68.7482 43.7864 68.8606 43.4514 68.9579C43.1164 69.0553 42.7585 69.1526 42.3626 69.2425C41.9667 69.3323 41.5632 69.4072 41.1444 69.4746C40.7256 69.542 40.3297 69.6019 39.9414 69.6544C39.1648 69.7742 38.5024 69.9614 37.9543 70.216C37.4061 70.4706 36.9873 70.8002 36.7056 71.2045C36.4163 71.6089 36.2716 72.0882 36.2716 72.6424C36.2716 73.4886 36.5762 74.1252 37.1929 74.5745C37.8096 75.0163 38.5862 75.241 39.5379 75.241L39.5455 75.2485Z" fill="black"/>
<path d="M57.5523 80.1387V54.5944H65.4173V59.2824H65.7066C66.2472 57.7323 67.1608 56.5041 68.4476 55.6054C69.7343 54.7068 71.2646 54.2574 73.0462 54.2574C74.8278 54.2574 76.3963 54.7143 77.6754 55.6204C78.9621 56.5266 79.7768 57.7472 80.127 59.2824H80.3935C80.8807 57.7622 81.8248 56.549 83.2334 55.6354C84.6419 54.7217 86.3017 54.2649 88.2204 54.2649C90.6796 54.2649 92.6744 55.0363 94.2047 56.5865C95.7351 58.1292 96.5041 60.256 96.5041 62.9444V80.1387H88.2356V64.8092C88.2356 63.5361 87.9006 62.5625 87.2382 61.8885C86.5758 61.2145 85.7078 60.885 84.6495 60.885C83.5075 60.885 82.6167 61.252 81.9695 61.9709C81.3223 62.6973 80.995 63.6709 80.995 64.8915V80.1387H73.0462V64.7268C73.0462 63.5435 72.7189 62.6074 72.0641 61.9185C71.4093 61.2295 70.5489 60.885 69.4754 60.885C68.7521 60.885 68.1202 61.0573 67.5644 61.3943C67.0086 61.7313 66.5822 62.2105 66.27 62.8321C65.9579 63.4537 65.8056 64.1876 65.8056 65.0263V80.1387H57.5371H57.5523Z" fill="black"/>
<path d="M127.59 69.864L103.112 79.9739V72.4252L119.276 66.4716L119.04 66.8536V65.9699L119.276 66.3368L103.112 60.3982V52.8345L127.59 62.9444V69.864Z" fill="black"/>
<path d="M134.321 80.1387V46.0797H157.954V52.7671H142.689V59.7542H156.454V66.4566H142.689V80.1462H134.321V80.1387Z" fill="black"/>
<path d="M172.397 80.618C169.679 80.618 167.342 80.0863 165.37 79.0303C163.405 77.9744 161.89 76.4617 160.84 74.4921C159.789 72.5226 159.256 70.1861 159.256 67.4676C159.256 64.7492 159.789 62.5175 160.847 60.5405C161.905 58.5635 163.398 57.0208 165.324 55.9199C167.25 54.8191 169.519 54.2649 172.138 54.2649C173.988 54.2649 175.679 54.5495 177.209 55.1111C178.739 55.6728 180.064 56.5115 181.183 57.6199C182.303 58.7282 183.171 60.0987 183.787 61.7163C184.404 63.3413 184.716 65.1985 184.716 67.2954V69.3249H162.149V64.5994H177.026C177.019 63.7382 176.805 62.9669 176.402 62.2854C175.998 61.6114 175.443 61.0797 174.735 60.6978C174.026 60.3158 173.219 60.1211 172.306 60.1211C171.392 60.1211 170.555 60.3233 169.824 60.7277C169.093 61.1321 168.514 61.6788 168.08 62.3753C167.654 63.0717 167.425 63.8505 167.403 64.7267V69.5345C167.403 70.5755 167.608 71.4891 168.027 72.268C168.446 73.0468 169.032 73.6534 169.801 74.0877C170.57 74.5221 171.483 74.7393 172.542 74.7393C173.273 74.7393 173.943 74.6419 174.537 74.4397C175.13 74.2375 175.648 73.9454 176.075 73.556C176.501 73.1666 176.821 72.6948 177.041 72.1257L184.632 72.3428C184.32 74.0203 183.627 75.4732 182.561 76.7088C181.496 77.9445 180.102 78.903 178.374 79.5845C176.653 80.266 174.651 80.6105 172.39 80.6105L172.397 80.618Z" fill="black"/>
<path d="M211.639 62.3903L204.048 62.5925C203.972 62.0607 203.759 61.5889 203.408 61.1696C203.058 60.7502 202.609 60.4282 202.045 60.1885C201.49 59.9489 200.842 59.8291 200.112 59.8291C199.152 59.8291 198.338 60.0163 197.668 60.3907C196.998 60.7652 196.67 61.2744 196.678 61.9185C196.67 62.4202 196.876 62.8471 197.295 63.214C197.721 63.581 198.475 63.873 199.571 64.0977L204.573 65.0263C207.162 65.5131 209.096 66.3219 210.367 67.4527C211.639 68.5835 212.278 70.0812 212.286 71.9459C212.278 73.6983 211.745 75.2185 210.702 76.5216C209.659 77.8172 208.235 78.8281 206.431 79.5396C204.627 80.251 202.563 80.6105 200.241 80.6105C196.533 80.6105 193.609 79.8616 191.478 78.3564C189.338 76.8511 188.12 74.8366 187.815 72.3129L195.985 72.1107C196.168 73.0393 196.632 73.7508 197.386 74.2375C198.14 74.7243 199.107 74.9714 200.279 74.9714C201.337 74.9714 202.198 74.7767 202.868 74.3873C203.53 73.9979 203.873 73.4811 203.88 72.8371C203.873 72.2605 203.606 71.7962 203.104 71.4517C202.594 71.0997 201.802 70.8301 200.721 70.6279L196.191 69.7817C193.587 69.3174 191.645 68.4562 190.374 67.1981C189.102 65.9399 188.47 64.3373 188.478 62.3828C188.47 60.6753 188.927 59.215 189.864 58.0018C190.8 56.7886 192.132 55.86 193.853 55.216C195.581 54.572 197.614 54.2499 199.959 54.2499C203.477 54.2499 206.248 54.9763 208.273 56.4217C210.299 57.867 211.426 59.859 211.639 62.3828V62.3903Z" fill="black"/>
<path d="M231.891 54.5944V60.578H214.607V54.5944H231.891ZM218.232 48.4761H226.949V72.1032C226.949 72.605 227.033 73.0019 227.208 73.3089C227.383 73.616 227.634 73.8331 227.969 73.9604C228.305 74.0877 228.7 74.1552 229.165 74.1552C229.5 74.1552 229.85 74.1252 230.223 74.0653C230.596 74.0054 230.878 73.953 231.068 73.908L232.385 79.7792C231.967 79.8916 231.38 80.0264 230.627 80.1986C229.873 80.3708 228.974 80.4682 227.924 80.5131C225.876 80.603 224.125 80.3783 222.67 79.8391C221.216 79.2999 220.105 78.4612 219.336 77.3229C218.567 76.1846 218.193 74.7468 218.224 73.0169V48.4911L218.232 48.4761Z" fill="black"/>
</g>
<defs>
<clipPath id="clip0_2658_865">
<rect width="269" height="80.6179" fill="white"/>
</clipPath>
</defs>
</svg>
