<svg width="83" height="67" viewBox="0 0 83 67" fill="none" xmlns="http://www.w3.org/2000/svg">
<path d="M12.3896 0.25H45.4277C46.4567 0.25 47.4443 0.659111 48.1719 1.38672C48.8992 2.11429 49.3076 3.10107 49.3076 4.12988C49.3076 5.29144 49.7695 6.40521 50.5908 7.22656C51.4122 8.0479 52.526 8.50972 53.6875 8.50977C54.849 8.50977 55.9628 8.04787 56.7842 7.22656C57.6055 6.4052 58.0674 5.29146 58.0674 4.12988C58.0674 3.10091 58.4765 2.11432 59.2041 1.38672C59.9317 0.659119 60.9183 0.250008 61.9473 0.25H70.207C73.4266 0.250024 76.5144 1.52909 78.791 3.80566C81.0675 6.08224 82.3467 9.17013 82.3467 12.3896V53.6875C82.3467 56.907 81.0675 59.9949 78.791 62.2715C76.5144 64.5481 73.4266 65.8271 70.207 65.8271H61.9473C60.9183 65.8271 59.9317 65.418 59.2041 64.6904C58.4765 63.9628 58.0674 62.9762 58.0674 61.9473C58.0674 60.7857 57.6056 59.672 56.7842 58.8506C55.9628 58.0293 54.8491 57.5674 53.6875 57.5674C52.526 57.5674 51.4122 58.0292 50.5908 58.8506C49.7695 59.6719 49.3076 60.7857 49.3076 61.9473C49.3076 62.9761 48.8993 63.9629 48.1719 64.6904C47.4443 65.418 46.4567 65.8271 45.4277 65.8271H12.3896C9.17007 65.8271 6.08225 64.5481 3.80566 62.2715C1.52907 59.9949 0.25 56.9071 0.25 53.6875V12.3896C0.25 9.17006 1.52907 6.08225 3.80566 3.80566C6.08225 1.52907 9.17006 0.25 12.3896 0.25ZM12.3896 8.00977C11.228 8.00977 10.1134 8.47062 9.29199 9.29199C8.47062 10.1134 8.00977 11.228 8.00977 12.3896V53.6875C8.00977 54.8489 8.47091 55.9629 9.29199 56.7842C10.1134 57.6056 11.228 58.0674 12.3896 58.0674H42.1768L42.2363 57.9004C43.0724 55.5312 44.6229 53.4795 46.6738 52.0283C48.7247 50.5772 51.1751 49.7979 53.6875 49.7979C56.2 49.7979 58.6511 50.5771 60.7021 52.0283C62.753 53.4795 64.3036 55.5311 65.1396 57.9004L65.1982 58.0674H70.207C71.3686 58.0674 72.4824 57.6055 73.3037 56.7842C74.125 55.9628 74.5869 54.849 74.5869 53.6875V12.3896C74.5869 11.228 74.1251 10.1134 73.3037 9.29199C72.4824 8.47086 71.3684 8.00979 70.207 8.00977H65.1982L65.1396 8.17676C64.3036 10.546 62.753 12.5976 60.7021 14.0488C58.6511 15.5001 56.2 16.2793 53.6875 16.2793C51.1751 16.2793 48.7247 15.4999 46.6738 14.0488C44.6229 12.5976 43.0724 10.546 42.2363 8.17676L42.1768 8.00977H12.3896ZM53.6875 35.3535C54.7165 35.3535 55.7031 35.7626 56.4307 36.4902C57.1583 37.2178 57.5674 38.2044 57.5674 39.2334V41.2979C57.5674 42.3268 57.1583 43.3144 56.4307 44.042C55.7031 44.7694 54.7163 45.1777 53.6875 45.1777C52.6587 45.1777 51.6719 44.7694 50.9443 44.042C50.2167 43.3144 49.8076 42.3268 49.8076 41.2979V39.2334C49.8076 38.2045 50.2168 37.2178 50.9443 36.4902C51.6719 35.7627 52.6586 35.3536 53.6875 35.3535ZM53.6875 20.8994C54.7163 20.8994 55.7031 21.3078 56.4307 22.0352C57.1583 22.7628 57.5674 23.7503 57.5674 24.7793V26.8438C57.5674 27.8727 57.1583 28.8593 56.4307 29.5869C55.7031 30.3145 54.7165 30.7236 53.6875 30.7236C52.6586 30.7236 51.6719 30.3145 50.9443 29.5869C50.2168 28.8593 49.8076 27.8727 49.8076 26.8438V24.7793C49.8076 23.7503 50.2167 22.7628 50.9443 22.0352C51.6719 21.3077 52.6587 20.8995 53.6875 20.8994Z" fill="#AB31AA" stroke="white" stroke-width="0.5"/>
</svg>
