<svg width="291" height="332" viewBox="0 0 291 332" fill="none" xmlns="http://www.w3.org/2000/svg">
<g clip-path="url(#clip0_315_4265)">
<path d="M242.096 166.633L286.526 141.136V75.7698L240.94 51.8218L190.159 81.1134L189.308 25.7146L146.427 0L98.2439 30.9273V79.6521L53.2682 51.7128L2.02947 83.7961H1.68031L1.00382 137.515L51.2169 163.95L0 196.622V250.254L2.79325 252.74C5.95748 255.554 36.9451 275.293 46.3505 281.269L98.2439 251.039V301.204L146.34 332.022L193.127 304.344L194.436 253.395L247.246 279.589L291 254.682V196.513L242.096 166.611V166.633ZM277.71 134.048L231.84 160.351L198.43 139.915L277.71 92.4767V134.048ZM182.718 99.5651L241.332 63.9267L275.834 82.0512L188.261 133.72L186.057 135.029L185.533 135.334L151.73 155.553V60.8078L181.212 42.9449L182.696 99.5869L182.718 99.5651ZM51.2823 64.0794L98.2439 92.1713V129.882L20.0765 83.5998L51.2823 64.0575V64.0794ZM11.5658 246.154V203.71L45.9795 224.801L46.2632 268.706C31.5768 259.349 16.7595 249.752 11.5658 246.132V246.154ZM19.8801 196.447L72.1663 163.099L11.6094 131.212L12.1332 90.0557L100.884 143.601L108.653 148.268L108.806 148.355L136.455 164.713L51.2605 215.663L19.8801 196.426V196.447ZM141.19 316.187L108.784 295.446V244.889L141.19 226.023V316.187ZM141.19 213.831L56.0396 264.496L56.4542 224.823L141.168 174.157V213.831H141.19ZM141.19 155.269L108.784 136.12V38.2121L141.19 60.6333V155.247V155.269ZM115.942 31.1236L146.493 12.3448L179.117 31.9088L146.515 51.6474L115.942 31.1236ZM146.755 164.691L146.646 164.517H146.864L146.755 164.691ZM236.75 264.453L184.333 235.859L182.74 298.237L151.73 316.58V173.765L237.972 224.801L236.75 264.475V264.453ZM243.231 215.641L157.055 164.648L188.239 146L272.953 196.666L243.231 215.641ZM280.46 248.575L247.552 267.31L248.556 224.627L280.46 203.514V248.575Z" fill="#22B751"/>
<path d="M146.646 164.517L146.755 164.691L146.864 164.517H146.646Z" fill="#22B751"/>
<path d="M146.864 164.517L146.755 164.691L146.646 164.517H146.864Z" fill="#22B751"/>
<path d="M108.653 148.246L100.841 143.644L100.884 143.579L108.653 148.246Z" fill="#22B751"/>
<path d="M146.864 164.517L146.755 164.692L146.646 164.517H146.864Z" fill="#22B751"/>
<path d="M146.864 164.517L146.755 164.691L146.646 164.517H146.864Z" fill="#22B751"/>
</g>
<defs>
<clipPath id="clip0_315_4265">
<rect width="291" height="332" fill="white"/>
</clipPath>
</defs>
</svg>
