<svg width="731" height="370" viewBox="0 0 731 370" fill="none" xmlns="http://www.w3.org/2000/svg">
<g clip-path="url(#clip0_223_799)">
<rect width="731" height="370" fill="white"/>
<path d="M725.37 78.8312L777.191 47.9489V-31.2249L724.021 -60.2315L664.793 -24.7526L663.8 -91.8535L613.761 -123L557.562 -85.5397V-26.5226L505.104 -60.3636L445.342 -21.5032H444.934L444.145 43.5636L502.712 75.5818L443 115.156V180.117L446.258 183.128C449.949 186.536 486.091 210.444 497.061 217.683L557.587 181.068V241.828L613.685 279.157L668.255 245.633L669.782 183.921L731.377 215.648L782.409 185.479V115.023L725.37 78.8048V78.8312ZM766.909 39.3632L713.407 71.2229L674.44 46.4695L766.909 -10.989V39.3632ZM656.114 -2.4032L724.479 -45.5697L764.72 -23.6166L662.579 38.9669L660.008 40.552L659.397 40.9218L619.971 65.411V-49.3475L654.358 -70.9836L656.088 -2.37679L656.114 -2.4032ZM502.813 -45.3848L557.587 -11.3588V34.3174L466.416 -21.7145L502.813 -45.3848ZM456.49 175.15V123.741L496.628 149.287L496.959 202.466C479.83 191.133 462.547 179.509 456.49 175.124V175.15ZM466.187 114.944L527.171 74.5515L456.541 35.9289L457.152 -13.9213L560.667 50.9341L569.728 56.5875L569.906 56.6932L602.155 76.5065L502.788 138.218L466.187 114.918V114.944ZM607.678 259.977L569.881 234.854V173.618L607.678 150.767V259.977ZM607.678 135.999L508.362 197.367L508.846 149.314L607.652 87.9453V135.999H607.678ZM607.678 65.0676L569.881 41.8729V-76.7162L607.678 -49.5588V65.0412V65.0676ZM578.229 -85.3019L613.863 -108.048L651.914 -84.3509L613.888 -60.4429L578.229 -85.3019ZM614.168 76.4801L614.041 76.2687H614.295L614.168 76.4801ZM719.134 197.315L657.997 162.681L656.139 238.236L619.971 260.453V87.4698L720.56 149.287L719.134 197.341V197.315ZM726.694 138.192L626.182 76.4272L662.553 53.8401L761.36 115.208L726.694 138.192ZM770.116 178.083L731.733 200.775L732.904 149.076L770.116 123.504V178.083Z" fill="#22B751"/>
<path d="M53.7926 318V274.364H71.0085C74.3182 274.364 77.1378 274.996 79.4673 276.26C81.7969 277.51 83.5724 279.25 84.794 281.48C86.0298 283.696 86.6477 286.253 86.6477 289.151C86.6477 292.048 86.0227 294.605 84.7727 296.821C83.5227 299.037 81.7116 300.763 79.3395 301.999C76.9815 303.234 74.1264 303.852 70.7741 303.852H59.8011V296.459H69.2827C71.0582 296.459 72.5213 296.153 73.6719 295.543C74.8366 294.918 75.7031 294.058 76.2713 292.964C76.8537 291.857 77.1449 290.585 77.1449 289.151C77.1449 287.702 76.8537 286.437 76.2713 285.358C75.7031 284.264 74.8366 283.419 73.6719 282.822C72.5071 282.212 71.0298 281.906 69.2401 281.906H63.0185V318H53.7926ZM101.547 299.08V318H92.4698V274.364H101.291V291.047H101.674C102.413 289.115 103.606 287.602 105.254 286.509C106.902 285.401 108.968 284.847 111.454 284.847C113.727 284.847 115.708 285.344 117.399 286.338C119.103 287.318 120.424 288.732 121.362 290.578C122.314 292.411 122.782 294.605 122.768 297.162V318H113.691V298.781C113.706 296.764 113.194 295.195 112.157 294.072C111.135 292.95 109.7 292.389 107.853 292.389C106.618 292.389 105.524 292.652 104.572 293.178C103.635 293.703 102.896 294.47 102.356 295.479C101.831 296.473 101.561 297.673 101.547 299.08ZM144.698 318.639C141.388 318.639 138.526 317.936 136.112 316.53C133.711 315.109 131.857 313.135 130.55 310.607C129.244 308.064 128.59 305.116 128.59 301.764C128.59 298.384 129.244 295.429 130.55 292.901C131.857 290.358 133.711 288.384 136.112 286.977C138.526 285.557 141.388 284.847 144.698 284.847C148.008 284.847 150.863 285.557 153.263 286.977C155.678 288.384 157.539 290.358 158.846 292.901C160.153 295.429 160.806 298.384 160.806 301.764C160.806 305.116 160.153 308.064 158.846 310.607C157.539 313.135 155.678 315.109 153.263 316.53C150.863 317.936 148.008 318.639 144.698 318.639ZM144.741 311.608C146.246 311.608 147.504 311.182 148.512 310.33C149.521 309.463 150.281 308.284 150.792 306.793C151.317 305.301 151.58 303.604 151.58 301.7C151.58 299.797 151.317 298.099 150.792 296.608C150.281 295.116 149.521 293.937 148.512 293.071C147.504 292.205 146.246 291.771 144.741 291.771C143.221 291.771 141.942 292.205 140.906 293.071C139.883 293.937 139.109 295.116 138.583 296.608C138.072 298.099 137.816 299.797 137.816 301.7C137.816 303.604 138.072 305.301 138.583 306.793C139.109 308.284 139.883 309.463 140.906 310.33C141.942 311.182 143.221 311.608 144.741 311.608ZM184.116 285.273V292.091H164.407V285.273H184.116ZM168.881 277.432H177.958V307.943C177.958 308.781 178.086 309.435 178.342 309.903C178.597 310.358 178.952 310.678 179.407 310.862C179.876 311.047 180.415 311.139 181.026 311.139C181.452 311.139 181.879 311.104 182.305 311.033C182.731 310.947 183.058 310.884 183.285 310.841L184.712 317.595C184.258 317.737 183.619 317.901 182.795 318.085C181.971 318.284 180.969 318.405 179.79 318.447C177.603 318.533 175.685 318.241 174.038 317.574C172.404 316.906 171.133 315.869 170.224 314.463C169.315 313.057 168.867 311.281 168.881 309.136V277.432ZM204.464 318.639C201.154 318.639 198.292 317.936 195.877 316.53C193.477 315.109 191.623 313.135 190.316 310.607C189.009 308.064 188.356 305.116 188.356 301.764C188.356 298.384 189.009 295.429 190.316 292.901C191.623 290.358 193.477 288.384 195.877 286.977C198.292 285.557 201.154 284.847 204.464 284.847C207.773 284.847 210.629 285.557 213.029 286.977C215.444 288.384 217.305 290.358 218.612 292.901C219.918 295.429 220.572 298.384 220.572 301.764C220.572 305.116 219.918 308.064 218.612 310.607C217.305 313.135 215.444 315.109 213.029 316.53C210.629 317.936 207.773 318.639 204.464 318.639ZM204.506 311.608C206.012 311.608 207.269 311.182 208.278 310.33C209.286 309.463 210.046 308.284 210.558 306.793C211.083 305.301 211.346 303.604 211.346 301.7C211.346 299.797 211.083 298.099 210.558 296.608C210.046 295.116 209.286 293.937 208.278 293.071C207.269 292.205 206.012 291.771 204.506 291.771C202.987 291.771 201.708 292.205 200.671 293.071C199.648 293.937 198.874 295.116 198.349 296.608C197.837 298.099 197.582 299.797 197.582 301.7C197.582 303.604 197.837 305.301 198.349 306.793C198.874 308.284 199.648 309.463 200.671 310.33C201.708 311.182 202.987 311.608 204.506 311.608Z" fill="#22B751"/>
<path d="M53.3026 212.364H66.3636L77.4432 239.381H77.9545L89.0341 212.364H102.095V256H91.8253V229.196H91.4631L80.9801 255.723H74.4176L63.9347 229.047H63.5724V256H53.3026V212.364ZM118.113 256H106.777L121.5 212.364H135.542L150.265 256H138.929L128.681 223.358H128.34L118.113 256ZM116.6 238.827H140.293V246.838H116.6V238.827ZM171.092 256H154.963V212.364H171.071C175.517 212.364 179.345 213.237 182.555 214.984C185.779 216.717 188.265 219.217 190.012 222.484C191.76 225.737 192.633 229.629 192.633 234.161C192.633 238.706 191.76 242.612 190.012 245.879C188.279 249.146 185.801 251.653 182.576 253.401C179.352 255.134 175.524 256 171.092 256ZM165.51 247.009H170.687C173.13 247.009 175.197 246.597 176.887 245.773C178.592 244.935 179.877 243.578 180.744 241.703C181.625 239.814 182.065 237.3 182.065 234.161C182.065 231.021 181.625 228.521 180.744 226.661C179.863 224.786 178.564 223.436 176.845 222.612C175.14 221.774 173.038 221.355 170.538 221.355H165.51V247.009ZM231.497 238.741L200.645 251.696V242.023L221.014 234.395L220.716 234.885V233.756L221.014 234.224L200.645 226.618V216.923L231.497 229.878V238.741Z" fill="black"/>
<path d="M265.009 300.741L234.156 313.696V304.023L254.526 296.395L254.227 296.885V295.756L254.526 296.224L234.156 288.618V278.923L265.009 291.878V300.741ZM291.221 274.364H301.619V304.534C301.605 307.361 300.93 309.832 299.595 311.949C298.26 314.051 296.413 315.685 294.055 316.849C291.711 318.014 288.998 318.597 285.916 318.597C283.189 318.597 280.71 318.121 278.48 317.169C276.264 316.217 274.495 314.74 273.174 312.737C271.868 310.734 271.221 308.17 271.235 305.045H281.74C281.782 306.168 281.995 307.126 282.379 307.922C282.777 308.703 283.324 309.293 284.02 309.69C284.716 310.088 285.547 310.287 286.512 310.287C287.521 310.287 288.373 310.074 289.069 309.648C289.765 309.207 290.291 308.561 290.646 307.709C291.015 306.857 291.207 305.798 291.221 304.534V274.364ZM317.466 318.554C315.378 318.554 313.524 318.206 311.905 317.51C310.3 316.8 309.028 315.734 308.091 314.314C307.168 312.879 306.706 311.082 306.706 308.923C306.706 307.105 307.026 305.571 307.665 304.321C308.304 303.071 309.185 302.055 310.307 301.274C311.429 300.493 312.722 299.903 314.185 299.506C315.648 299.094 317.21 298.817 318.872 298.675C320.733 298.504 322.232 298.327 323.368 298.142C324.504 297.943 325.328 297.666 325.839 297.311C326.365 296.942 326.628 296.423 326.628 295.756V295.649C326.628 294.555 326.251 293.71 325.499 293.114C324.746 292.517 323.73 292.219 322.452 292.219C321.074 292.219 319.966 292.517 319.128 293.114C318.29 293.71 317.757 294.534 317.53 295.585L307.92 295.244C308.205 293.256 308.936 291.48 310.115 289.918C311.308 288.341 312.942 287.105 315.016 286.21C317.104 285.301 319.611 284.847 322.537 284.847C324.625 284.847 326.55 285.095 328.311 285.592C330.072 286.075 331.607 286.786 332.913 287.723C334.22 288.646 335.229 289.783 335.939 291.132C336.663 292.482 337.026 294.023 337.026 295.756V318H327.224V313.44H326.969C326.386 314.548 325.641 315.486 324.732 316.253C323.837 317.02 322.778 317.595 321.557 317.979C320.349 318.362 318.986 318.554 317.466 318.554ZM320.683 311.736C321.805 311.736 322.814 311.509 323.709 311.054C324.618 310.599 325.342 309.974 325.882 309.179C326.422 308.369 326.692 307.432 326.692 306.366V303.256C326.393 303.412 326.031 303.554 325.605 303.682C325.193 303.81 324.739 303.93 324.241 304.044C323.744 304.158 323.233 304.257 322.707 304.342C322.182 304.428 321.678 304.506 321.195 304.577C320.214 304.733 319.376 304.974 318.68 305.301C317.999 305.628 317.473 306.054 317.104 306.58C316.749 307.091 316.571 307.702 316.571 308.412C316.571 309.491 316.955 310.315 317.722 310.884C318.503 311.452 319.49 311.736 320.683 311.736ZM343.396 318V285.273H353.304V291.281H353.666C354.348 289.293 355.499 287.723 357.118 286.572C358.737 285.422 360.669 284.847 362.913 284.847C365.186 284.847 367.132 285.429 368.751 286.594C370.371 287.759 371.401 289.321 371.841 291.281H372.182C372.793 289.335 373.986 287.78 375.761 286.615C377.537 285.436 379.632 284.847 382.047 284.847C385.143 284.847 387.658 285.841 389.589 287.83C391.521 289.804 392.487 292.517 392.487 295.969V318H382.068V298.355C382.068 296.722 381.649 295.479 380.811 294.626C379.973 293.76 378.886 293.327 377.551 293.327C376.116 293.327 374.987 293.795 374.163 294.733C373.354 295.656 372.949 296.899 372.949 298.462V318H362.935V298.249C362.935 296.729 362.523 295.528 361.699 294.648C360.875 293.767 359.788 293.327 358.439 293.327C357.53 293.327 356.727 293.547 356.031 293.987C355.335 294.413 354.788 295.024 354.391 295.82C354.007 296.615 353.815 297.553 353.815 298.632V318H343.396Z" fill="black"/>
</g>
<rect x="5" y="5" width="721" height="360" stroke="#22B751" stroke-width="10"/>
<defs>
<clipPath id="clip0_223_799">
<rect width="731" height="370" fill="white"/>
</clipPath>
</defs>
</svg>
