<svg width="131" height="149" viewBox="0 0 131 149" fill="none" xmlns="http://www.w3.org/2000/svg">
<g clip-path="url(#clip0_2898_1382)">
<path d="M112.156 100.42V125.225L131 111.452V87.6021L112.156 100.42Z" fill="#AB31AA"/>
<path d="M130.82 35.402L131 60.3393L108.022 72.9214L88.7617 60.6134L130.82 35.402Z" fill="#AB31AA"/>
<path d="M66.5972 22.7914V73.9044L131 35.2979L111.976 22.7914L85.7628 37.1791L85.4506 10.9467L66.5972 22.7914Z" fill="#AB31AA"/>
<path d="M19.4875 22.7915L45.4264 38.928V61.2846L1.78809 35.298L19.4875 22.7915Z" fill="#AB31AA"/>
<path d="M66.5972 73.9044V149L86.075 137.193V110.441L112.156 125.225V100.42L66.5972 73.9044Z" fill="#AB31AA"/>
<path d="M45.4263 110.791L66.5974 99.6169V149L45.4263 138.441V110.791Z" fill="#AB31AA"/>
<path d="M19.4589 100.42L0 87.6021V113.333L19.4873 124.309L19.4589 100.42Z" fill="#AB31AA"/>
<path d="M1.78791 60.1502L23.6118 73.9045L0 87.6021L19.4589 100.42L66.5973 73.9045L1.78791 35.298V60.1502Z" fill="#AB31AA"/>
<path d="M131 87.602L88.7616 60.6134L66.5972 73.9045L112.156 100.42L131 87.602Z" fill="#AB31AA"/>
<path d="M85.4509 10.9467L65.4339 0L45.4263 10.9467L66.5974 22.7915L85.4509 10.9467Z" fill="#AB31AA"/>
<path d="M45.4263 61.2845V10.9467L66.5974 22.7914V73.9044L45.4263 61.2845Z" fill="#AB31AA"/>
<path d="M66.5974 73.9044V99.6169L19.4874 124.308L19.459 100.42L66.5974 73.9044Z" fill="#AB31AA"/>
</g>
<path d="M77.107 58.539L47 88.6527L51.349 93.0027L81.4561 62.889L77.107 58.539Z" fill="white"/>
<path d="M82.6571 92.9172L76.5066 92.6999L77.6158 62.3877L47.3062 63.4929L47.0889 57.3411L84.002 56L82.6571 92.9172Z" fill="white"/>
<defs>
<clipPath id="clip0_2898_1382">
<rect width="131" height="149" fill="white"/>
</clipPath>
</defs>
</svg>
