<svg width="78" height="90" viewBox="0 0 78 90" fill="none" xmlns="http://www.w3.org/2000/svg">
<path d="M39.655 13.6635V44.306L78.0032 21.1612L66.6756 13.6635L51.0671 22.2889L50.8812 6.5625L39.655 13.6635Z" fill="#FE0000"/>
<path d="M77.896 21.2236L78.003 36.1737L64.3209 43.7167L52.8525 36.338L77.896 21.2236Z" fill="#FE0000"/>
<path d="M66.7827 60.202V75.0721L78.0028 66.8153V52.5176L66.7827 60.202Z" fill="#FE0000"/>
<path d="M11.6037 13.6636L27.0488 23.3375V36.7404L1.0647 21.1613L11.6037 13.6636Z" fill="#FE0000"/>
<path d="M39.655 44.3062V89.3263L51.253 82.248V66.2098L66.7826 75.0733V60.2026L39.655 44.3062Z" fill="#FE0000"/>
<path d="M27.0488 66.4193L39.6551 59.7207V89.3261L27.0488 82.9958V66.4193Z" fill="#FE0000"/>
<path d="M11.5862 60.202L0 52.5176V67.943L11.6031 74.5224L11.5862 60.202Z" fill="#FE0000"/>
<path d="M1.0646 36.0602L14.0595 44.3059L0 52.5177L11.5867 60.2024L39.655 44.3059L1.0646 21.1611V36.0602Z" fill="#FE0000"/>
<path d="M78.0032 52.5177L52.8527 36.3379L39.655 44.306L66.7826 60.2024L78.0032 52.5177Z" fill="#FE0000"/>
<path d="M50.8803 6.56234L38.9617 0L27.0488 6.56234L39.6545 13.663L50.8803 6.56234Z" fill="#FE0000"/>
<path d="M27.0488 36.7403V6.5625L39.6551 13.6635V44.306L27.0488 36.7403Z" fill="#FE0000"/>
<path d="M39.655 44.3062V59.7209L11.6036 74.5236L11.5867 60.2026L39.655 44.3062Z" fill="#FE0000"/>
<path d="M45.9129 35.1593L27.9858 53.0903L30.5755 55.6805L48.5025 37.7495L45.9129 35.1593Z" fill="white"/>
<path d="M49.2166 55.6282L45.5545 55.4988L46.2149 37.4503L28.168 38.1084L28.0386 34.4455L50.0174 33.647L49.2166 55.6282Z" fill="white"/>
</svg>
