<svg width="281" height="166" viewBox="0 0 281 166" fill="none" xmlns="http://www.w3.org/2000/svg">
<mask id="mask0_407_1495" style="mask-type:alpha" maskUnits="userSpaceOnUse" x="0" y="0" width="281" height="166">
<rect width="281" height="166" fill="#D9D9D9"/>
</mask>
<g mask="url(#mask0_407_1495)">
<path d="M205.434 -83.0895V8.41212L322.525 -60.7006L287.94 -83.0895L240.263 -57.3274L239.698 -104.292L205.434 -83.0895Z" fill="#FE8F00"/>
<path d="M205.434 8.4126V142.857L240.847 121.729V73.8371L288.26 100.303V55.8963L205.434 8.4126Z" fill="#FE8F00"/>
<path d="M166.931 74.4665L205.434 54.4685V142.856L166.931 123.97V74.4665Z" fill="#FA5302"/>
<path d="M119.705 55.8966L84.3291 32.9517V79.0083L119.743 98.6727L119.705 55.8966Z" fill="#FA5302"/>
<path d="M87.5879 -16.2009L127.259 8.41205L84.3291 32.9509L119.705 55.8958L205.432 8.41205L87.5879 -60.7007V-16.2009Z" fill="#FE8F00"/>
<path d="M322.204 -60.5164L322.524 -15.8683L280.743 6.66885L245.707 -15.3679L322.204 -60.5164Z" fill="#FDCC00"/>
<path d="M322.525 32.9503L245.707 -15.3674L205.434 8.4115L288.26 55.8952L322.525 32.9503Z" fill="#FDCC00"/>
<path d="M166.931 -14.1621V-104.292L205.434 -83.0895V8.41212L166.931 -14.1621Z" fill="#FA5302"/>
<path d="M205.437 8.4126V54.4692L119.748 98.6725L119.71 55.8963L205.437 8.4126Z" fill="#FDCC00"/>
<path d="M285.681 8.68962L323.525 -12.6799V-67.4845L284.72 -87.5567L241.471 -62.9993L240.755 -109.445L204.23 -131L163.203 -105.09V-64.2596L124.907 -87.6679L81.2806 -60.7753H80.9792L80.3952 -15.738L123.155 6.40996L79.5664 33.803V78.7476L81.9399 80.8419C84.6336 83.2142 111.024 99.7464 119.03 104.751L163.203 79.4148V121.45L204.155 147.286L243.995 124.1L245.106 81.3979L290.07 103.361L327.33 82.4914V33.7289L285.681 8.67108V8.68962ZM315.99 -18.6107L276.922 3.42601L248.478 -13.6993L315.99 -53.4544V-18.6107ZM235.123 -47.5236L285.041 -77.4001L314.426 -62.2024L239.851 -18.9073L237.967 -17.8138L237.534 -17.5543L208.751 -0.59584V-80.0134L233.861 -94.9888L235.123 -47.505V-47.5236ZM123.212 -77.2704L163.184 -53.7324V-22.1322L96.6327 -60.905L123.212 -77.2889V-77.2704ZM89.3993 75.3374V39.7709L118.691 57.4522L118.936 94.2604C106.428 86.4021 93.8072 78.3769 89.3993 75.3374ZM96.4632 33.6732L140.994 5.70567L89.437 -21.0201L89.8891 -55.5117L165.444 -10.6226L172.056 -6.69347L172.188 -6.61934L195.734 7.09572L123.193 49.8163L96.482 33.6918L96.4632 33.6732ZM199.765 134.053L172.169 116.668V74.2995L199.765 58.4901V134.071V134.053ZM199.765 48.2594L127.262 90.7205L127.62 57.4707L199.765 14.9911V48.2594ZM199.765 -0.836777L172.169 -16.8871V-98.9365L199.765 -80.1431V-0.836777ZM178.254 -104.904L204.268 -120.658L232.052 -104.256L204.286 -87.7049L178.254 -104.904ZM204.494 7.05865L204.399 6.91039H204.588L204.494 7.05865ZM281.141 90.7019L236.517 66.7377L235.16 119.022L208.751 134.386V14.6761L282.196 57.4522L281.16 90.7019H281.141ZM286.642 49.7792L213.272 7.04012L239.832 -8.60246L311.959 33.8771L286.642 49.7792ZM318.345 77.3761L290.315 93.0743L291.163 57.3039L318.345 39.6041V77.3761Z" fill="black"/>
<path d="M204.396 6.91092L204.49 7.05919L204.584 6.91092H204.396ZM239.828 -18.9067L237.945 -17.7947L239.828 -18.8882V-18.9067Z" fill="black"/>
<path d="M204.583 6.91113L204.489 7.05872L204.396 6.91113H204.583Z" fill="black"/>
<path d="M204.582 6.91113L204.489 7.05872L204.396 6.91113H204.582Z" fill="black"/>
<path d="M204.583 6.91113L204.489 7.05872L204.396 6.91113H204.583Z" fill="black"/>
<path d="M84.5713 120.91V212.412L201.662 143.299L167.077 120.91L119.401 146.673L118.836 99.7078L84.5713 120.91Z" fill="#FE8F00"/>
<path d="M-1.11861 120.909L46.0682 149.804V189.837L-33.2734 143.298L-1.11861 120.909Z" fill="#FDCC00"/>
<path d="M-33.2744 187.799L6.39641 212.412L-36.5332 236.951L-1.15726 259.896L84.5701 212.412L-33.2744 143.299V187.799Z" fill="#FE8F00"/>
<path d="M201.341 143.484L201.662 188.132L159.881 210.669L124.844 188.632L201.341 143.484Z" fill="#FDCC00"/>
<path d="M118.84 99.7075L82.4471 80.1172L46.0728 99.7075L84.5756 120.91L118.84 99.7075Z" fill="#FA5302"/>
<path d="M46.0688 189.838V99.7078L84.5717 120.91V212.412L46.0688 189.838Z" fill="#FA5302"/>
<path d="M164.819 212.69L202.662 191.32V136.516L163.858 116.443L120.608 141.001L119.893 94.5549L83.3675 73L42.3405 98.9103V139.74L4.04484 116.332L-39.5817 143.225H-39.8831L-40.4671 188.262L2.29298 210.41L-41.2959 237.803V282.748L-38.9224 284.842C-36.2287 287.214 -9.83807 303.746 -1.83233 308.751L42.3405 283.415V325.45L83.2922 351.286L123.133 328.1L124.244 285.398L169.208 307.361L206.468 286.491V237.729L164.819 212.671V212.69ZM195.128 185.389L156.06 207.426L127.616 190.301L195.128 150.546V185.389ZM114.26 156.476L164.178 126.6L193.564 141.798L118.988 185.093L117.105 186.186L116.671 186.446L87.8884 203.404V123.987L112.998 109.011L114.26 156.495V156.476ZM2.34949 126.73L42.3217 150.268V181.868L-24.2296 143.095L2.34949 126.711V126.73ZM-31.463 279.337V243.771L-2.17138 261.452L-1.92652 298.26C-14.4343 290.402 -27.0551 282.377 -31.463 279.337ZM-24.3991 237.673L20.1317 209.706L-31.4253 182.98L-30.9732 148.488L44.5821 193.377L51.1939 197.307L51.3258 197.381L74.8721 211.096L2.33067 253.816L-24.3803 237.692L-24.3991 237.673ZM78.9032 338.053L51.3069 320.668V278.299L78.9032 262.49V338.071V338.053ZM78.9032 252.259L6.39947 294.72L6.75735 261.471L78.9032 218.991V252.259ZM78.9032 203.163L51.3069 187.113V105.064L78.9032 123.857V203.163ZM57.3913 99.0957L83.4053 83.3419L111.19 99.7444L83.424 116.295L57.3913 99.0957ZM83.6313 211.059L83.5371 210.91H83.7254L83.6313 211.059ZM160.279 294.702L115.654 270.738L114.298 323.022L87.8884 338.386V218.676L161.334 261.452L160.298 294.702H160.279ZM165.78 253.779L92.4093 211.04L118.97 195.398L191.097 237.877L165.78 253.779ZM197.482 281.376L169.453 297.074L170.3 261.304L197.482 243.604V281.376Z" fill="black"/>
</g>
</svg>
