<svg width="101" height="102" viewBox="0 0 101 102" fill="none" xmlns="http://www.w3.org/2000/svg">
<path d="M4.5 51C4.5 25.5942 25.0942 5 50.5 5C75.9058 5 96.5 25.5942 96.5 51C96.5 76.4058 75.9058 97 50.5 97C25.0942 97 4.5 76.4058 4.5 51Z" fill="white"/>
<path fill-rule="evenodd" clip-rule="evenodd" d="M69.0667 39.0876C69.0667 42.3188 68.2535 45.1402 66.6313 47.5497C65.2938 49.5746 63.0521 51.7689 59.9 54.1321C58.0858 55.3864 56.891 56.5667 56.3194 57.6757C55.5997 59.0259 55.2447 61.0496 55.2447 63.75H45.1448C45.1448 59.6532 45.5766 56.6642 46.4359 54.7842C47.4372 52.5172 49.6096 50.2268 52.9506 47.9129C54.5281 46.7068 55.6736 45.4785 56.3899 44.2253C57.248 42.8263 57.6798 41.2363 57.6798 39.4522C57.6798 36.6076 56.842 34.4878 55.172 33.0874C53.8378 32.0767 52.2125 31.5706 50.3029 31.5706C47.2 31.5706 44.9555 32.6079 43.5716 34.6805C42.5689 36.2225 42.0661 38.1993 42.0661 40.6093V40.6819H31.3283C31.3283 34.3654 33.3072 29.5938 37.2675 26.3626C40.61 23.6653 44.7417 22.3129 49.6574 22.3129C53.9562 22.3129 57.7276 23.1575 60.9721 24.8441C66.37 27.6418 69.0667 32.3917 69.0667 39.0876ZM101 51.0001C101 79.1664 78.3903 102 50.4999 102C22.6097 102 0 79.1664 0 50.9999C0 22.8333 22.6097 0 50.4999 0C78.3901 0 101 22.8333 101 50.9999M90.8999 50.9999C90.8999 28.5024 72.7765 10.1998 50.4999 10.1998C28.2232 10.1998 10.1001 28.5027 10.1001 50.9999C10.1001 73.4971 28.2232 91.7999 50.4999 91.7999C72.7765 91.7999 90.8999 73.4971 90.8999 50.9999ZM50.4996 67.5748C47.0133 67.5748 44.1871 70.4287 44.1871 73.9496C44.1871 77.4705 47.0135 80.3247 50.4996 80.3247C53.9858 80.3247 56.8122 77.4705 56.8122 73.9496C56.8122 70.4287 53.9858 67.5748 50.4996 67.5748Z" fill="#FA5302"/>
</svg>
