<svg width="645" height="417" viewBox="0 0 645 417" fill="none" xmlns="http://www.w3.org/2000/svg">
<mask id="mask0_2706_590" style="mask-type:alpha" maskUnits="userSpaceOnUse" x="0" y="0" width="645" height="417">
<rect x="645" y="417" width="645" height="417" transform="rotate(-180 645 417)" fill="white"/>
</mask>
<g mask="url(#mask0_2706_590)">
<path d="M172.003 523.043L145.961 537.999L145.961 576.349L172.674 590.397L202.437 573.213L202.932 605.714L228.077 620.804L256.315 602.661L256.315 574.079L282.677 590.469L312.709 571.645L312.915 571.645L313.317 540.124L283.893 524.621L313.894 505.457L313.894 473.998L312.255 472.533C310.399 470.883 292.234 459.31 286.718 455.803L256.315 473.534L256.315 444.107L228.129 426.025L200.705 442.26L199.942 472.152L168.993 456.783L143.353 471.388L143.353 505.509L172.014 523.043L172.003 523.043ZM151.137 542.156L178.024 526.726L197.612 538.711L151.147 566.539L151.147 542.156L151.137 542.156ZM206.809 562.383L172.457 583.29L152.23 572.656L203.561 542.352L205.159 541.413L224.964 529.552L224.964 585.137L207.685 595.616L206.809 562.393L206.809 562.383ZM283.832 583.218L256.315 566.735L256.315 544.611L302.131 571.748L283.842 583.208L283.832 583.218ZM307.111 476.391L307.111 501.29L286.945 488.913L286.78 463.147C295.389 468.645 304.069 474.266 307.111 476.391ZM302.244 505.56L271.594 525.127L307.09 543.827L306.781 567.973L254.769 536.566L250.222 533.822L250.14 533.77L233.933 524.168L283.862 494.266L302.244 505.55L302.244 505.56ZM231.15 435.308L250.14 447.479L250.14 477.134L231.15 488.201L231.15 435.298L231.15 435.308ZM231.15 495.349L281.048 465.633L280.801 488.902L231.15 518.629L231.15 495.349ZM231.15 529.717L250.14 540.96L250.14 598.38L231.15 585.229L231.15 529.717ZM245.944 602.547L228.036 613.574L208.912 602.094L228.015 590.51L245.944 602.547ZM227.881 524.188L227.943 524.291L227.82 524.291L227.881 524.188ZM175.138 465.654L205.85 482.425L206.788 445.839L224.964 435.081L224.964 518.866L174.416 488.933L175.138 465.664L175.138 465.654ZM171.344 494.287L221.85 524.199L203.571 535.142L153.931 505.416L171.354 494.287L171.344 494.287ZM149.529 474.978L168.818 463.983L168.23 489.016L149.529 501.404L149.529 474.968L149.529 474.978Z" fill="#AB31AA"/>
<path d="M227.943 524.291L227.881 524.188L227.82 524.291L227.943 524.291ZM203.561 542.362L204.85 541.589L203.551 542.352L203.561 542.362Z" fill="#AB31AA"/>
<path d="M227.82 524.291L227.881 524.188L227.943 524.291L227.82 524.291Z" fill="#AB31AA"/>
<path d="M250.222 533.822L254.789 536.524L254.769 536.566L250.222 533.822Z" fill="#AB31AA"/>
<path d="M227.82 524.291L227.881 524.188L227.943 524.291L227.82 524.291Z" fill="#AB31AA"/>
<path d="M227.82 524.291L227.881 524.188L227.943 524.291L227.82 524.291Z" fill="#AB31AA"/>
<path d="M682.338 523.91L656.492 538.752L656.492 576.823L683.009 590.758L712.556 573.708L713.051 605.972L738 620.948L766.032 602.939L766.032 574.564L792.197 590.83L822.003 572.151L822.209 572.151L822.611 540.867L793.404 525.478L823.188 506.447L823.188 475.225L821.559 473.771C819.714 472.131 801.693 460.641 796.218 457.165L766.032 474.761L766.032 445.551L738.052 427.603L710.834 443.715L710.071 473.379L679.349 458.124L653.894 472.626L653.894 506.499L682.349 523.91L682.338 523.91ZM661.627 542.888L688.308 527.571L707.752 539.474L661.627 567.097L661.627 542.888ZM716.886 562.96L682.782 583.713L662.709 573.161L713.659 543.084L714.948 542.321L715.247 542.146L734.907 530.367L734.907 585.539L717.752 595.946L716.886 562.96ZM793.342 583.641L766.032 567.282L766.032 545.323L811.507 572.254L793.352 583.631L793.342 583.641ZM816.446 477.618L816.446 502.332L796.435 490.047L796.27 464.478C804.816 469.934 813.435 475.514 816.456 477.618L816.446 477.618ZM811.61 506.561L781.187 525.983L816.415 544.549L816.105 568.52L759.97 534.616L759.887 534.565L743.804 525.034L793.362 495.359L811.61 506.561ZM741.041 436.835L759.887 448.913L759.887 478.351L741.041 489.336L741.041 436.825L741.041 436.835ZM741.041 496.422L790.569 466.922L790.321 490.027L741.041 519.536L741.041 496.422ZM741.041 530.532L759.887 541.682L759.887 598.69L741.041 585.632L741.041 530.532ZM755.732 602.826L737.959 613.77L718.979 602.372L737.938 590.882L755.732 602.826ZM737.804 525.044L737.866 525.148L737.742 525.148L737.804 525.044ZM685.452 466.953L715.937 483.601L716.865 447.283L734.907 436.608L734.907 519.774L684.73 490.058L685.442 466.953L685.452 466.953ZM681.679 495.37L731.804 525.065L713.659 535.926L664.379 506.416L681.668 495.37L681.679 495.37ZM660.029 476.205L679.173 465.293L678.586 490.14L660.018 502.435L660.018 476.195L660.029 476.205Z" fill="#AB31AA"/>
<path d="M737.866 525.148L737.804 525.044L737.742 525.148L737.866 525.148ZM713.669 543.084L714.948 542.321L713.659 543.084L713.669 543.084Z" fill="#AB31AA"/>
<path d="M737.742 525.148L737.804 525.044L737.866 525.148L737.742 525.148Z" fill="#AB31AA"/>
<path d="M759.98 534.616L764.516 537.298L764.496 537.339L759.98 534.616Z" fill="#AB31AA"/>
<path d="M737.742 525.148L737.804 525.044L737.866 525.148L737.742 525.148Z" fill="#AB31AA"/>
<path d="M737.742 525.148L737.804 525.044L737.866 525.148L737.742 525.148Z" fill="#AB31AA"/>
<path d="M852.88 523.043L826.961 537.927L826.961 576.091L853.55 590.067L883.169 572.965L883.664 605.312L908.686 620.319L936.779 602.269L936.779 573.822L963.007 590.129L992.884 571.398L993.09 571.398L993.492 540.031L964.213 524.601L994.07 505.529L994.07 474.225L992.441 472.771C990.595 471.12 972.523 459.609 967.038 456.123L936.779 473.771L936.779 444.488L908.727 426.5L881.437 442.652L880.674 472.399L849.88 457.103L824.363 471.636L824.363 505.591L852.88 523.043ZM832.116 542.063L858.87 526.715L878.355 538.649L832.116 566.333L832.116 542.063ZM887.52 562.197L853.333 583.001L833.209 572.419L884.283 542.259L885.571 541.496L885.87 541.321L905.582 529.511L905.582 584.827L888.386 595.255L887.52 562.187L887.52 562.197ZM964.161 582.919L936.779 566.519L936.779 544.508L982.368 571.511L964.161 582.919ZM987.327 476.628L987.327 501.404L967.265 489.088L967.1 463.457C975.667 468.923 984.306 474.524 987.337 476.628L987.327 476.628ZM982.482 505.643L951.986 525.117L987.307 543.734L986.997 567.757L935.243 536.504L930.717 533.77L930.635 533.719L914.51 524.168L964.192 494.421L982.492 505.653L982.482 505.643ZM911.737 435.742L930.635 447.851L930.635 477.361L911.737 488.376L911.737 435.742ZM911.737 495.483L961.388 465.911L961.141 489.067L911.737 518.649L911.737 495.483ZM911.737 529.686L930.635 540.867L930.635 598.009L911.737 584.92L911.737 529.686ZM926.459 602.155L908.644 613.12L889.613 601.702L908.624 590.18L926.459 602.155ZM908.49 524.178L908.552 524.281L908.428 524.281L908.49 524.178ZM855.993 465.932L886.561 482.621L887.489 446.211L905.582 435.504L905.582 518.876L855.282 489.088L855.993 465.932ZM852.22 494.431L902.469 524.199L884.283 535.091L834.879 505.509L852.21 494.431L852.22 494.431ZM830.518 475.215L849.715 464.282L849.127 489.191L830.518 501.517L830.518 475.215Z" fill="#AB31AA"/>
<path d="M908.552 524.281L908.49 524.178L908.428 524.281L908.552 524.281ZM884.293 542.259L885.582 541.486L884.293 542.249L884.293 542.259Z" fill="#AB31AA"/>
<path d="M908.428 524.281L908.49 524.178L908.552 524.281L908.428 524.281Z" fill="#AB31AA"/>
<path d="M930.717 533.77L935.264 536.463L935.243 536.504L930.717 533.77Z" fill="#AB31AA"/>
<path d="M908.428 524.281L908.49 524.178L908.552 524.281L908.428 524.281Z" fill="#AB31AA"/>
<path d="M908.428 524.281L908.49 524.178L908.552 524.281L908.428 524.281Z" fill="#AB31AA"/>
<path d="M343.204 523.043L317.111 538.03L317.111 576.462L343.885 590.531L373.711 573.316L374.205 605.879L399.392 621L427.681 602.826L427.681 574.183L454.094 590.603L484.188 571.748L484.394 571.748L484.796 540.165L455.311 524.632L485.374 505.426L485.374 473.905L483.735 472.44C481.879 470.78 463.672 459.186 458.146 455.669L427.681 473.441L427.681 443.952L399.433 425.84L371.948 442.106L371.185 472.059L340.173 456.649L314.482 471.285L314.482 505.478L343.204 523.054L343.204 523.043ZM322.286 542.197L349.225 526.736L368.844 538.752L322.276 566.632L322.276 542.197L322.286 542.197ZM378.071 562.465L343.648 583.414L323.379 572.759L374.814 542.393L376.412 541.455L396.258 529.562L396.258 585.26L378.938 595.76L378.061 562.465L378.071 562.465ZM455.259 583.332L427.681 566.818L427.681 544.652L473.59 571.841L455.259 583.332ZM478.58 476.298L478.58 501.249L458.373 488.851L458.198 463.034C466.816 468.542 475.518 474.184 478.569 476.298L478.58 476.298ZM473.703 505.519L442.991 525.127L478.559 543.868L478.25 568.066L421.578 533.832L421.495 533.781L405.258 524.157L455.29 494.204L473.714 505.509L473.703 505.519ZM402.464 435.123L421.495 447.325L421.495 477.041L402.464 488.129L402.464 435.123ZM402.464 495.287L452.466 465.509L452.218 488.83L402.464 518.618L402.464 495.287ZM402.464 529.727L421.495 540.991L421.495 598.535L402.464 585.353L402.464 529.727ZM417.289 602.702L399.34 613.749L380.185 602.248L399.33 590.644L417.289 602.702ZM399.196 524.188L399.258 524.291L399.134 524.291L399.196 524.188ZM346.339 465.53L377.123 482.332L378.061 445.664L396.278 434.885L396.278 518.845L345.627 488.851L346.349 465.53L346.339 465.53ZM342.534 494.225L393.144 524.199L374.824 535.163L325.08 505.375L342.534 494.225ZM320.668 474.875L339.998 463.859L339.411 488.944L320.668 501.362L320.668 474.875Z" fill="#AB31AA"/>
<path d="M399.258 524.291L399.196 524.188L399.134 524.291L399.258 524.291ZM374.824 542.393L376.113 541.62L374.814 542.383L374.824 542.393Z" fill="#AB31AA"/>
<path d="M399.134 524.291L399.196 524.188L399.258 524.291L399.134 524.291Z" fill="#AB31AA"/>
<path d="M421.578 533.843L426.155 536.555L426.135 536.597L421.578 533.843Z" fill="#AB31AA"/>
<path d="M399.134 524.291L399.196 524.188L399.258 524.291L399.134 524.291Z" fill="#AB31AA"/>
<path d="M399.134 524.291L399.196 524.188L399.258 524.291L399.134 524.291Z" fill="#AB31AA"/>
<path d="M513.457 523.043L487.724 537.814L487.724 575.699L514.117 589.572L543.52 572.594L544.004 604.703L568.84 619.608L596.738 601.681L596.738 573.44L622.78 589.623L652.451 571.026L652.657 571.026L653.049 539.887L623.976 524.57L653.616 505.633L653.616 474.555L651.997 473.111C650.162 471.481 632.224 460.042 626.77 456.577L596.728 474.091L596.728 445.025L568.881 427.16L541.788 443.199L541.035 472.729L510.457 457.546L485.126 471.976L485.126 505.684L513.447 523.012L513.457 523.043ZM492.848 541.929L519.406 526.684L538.757 538.525L492.848 566.013L492.848 541.919L492.848 541.929ZM547.84 561.908L513.9 582.568L493.92 572.058L544.633 542.115L545.912 541.362L546.211 541.187L565.778 529.469L565.778 584.384L548.706 594.739L547.84 561.908ZM623.935 582.496L596.748 566.22L596.748 544.363L642.007 571.171L623.935 582.496ZM646.935 476.969L646.935 501.569L627.017 489.346L626.852 463.9C635.358 469.326 643.935 474.885 646.935 476.979L646.935 476.969ZM642.121 505.777L611.842 525.106L646.904 543.59L646.595 567.447L590.717 533.698L590.635 533.647L574.624 524.168L623.955 494.627L642.121 505.777ZM571.882 436.371L590.645 448.397L590.645 477.701L571.882 488.634L571.882 436.371ZM571.882 495.689L621.182 466.334L620.935 489.325L571.882 518.691L571.882 495.689ZM571.882 529.634L590.645 540.733L590.645 597.473L571.882 584.476L571.882 529.634ZM586.511 601.588L568.82 612.48L549.932 601.145L568.809 589.706L586.521 601.598L586.511 601.588ZM568.665 524.178L568.727 524.281L568.603 524.281L568.665 524.178ZM516.55 466.345L546.891 482.91L547.819 446.757L565.778 436.123L565.778 518.897L515.839 489.325L516.55 466.334L516.55 466.345ZM512.808 494.637L562.696 524.188L544.633 534.998L495.591 505.632L512.797 494.637L512.808 494.637ZM491.25 475.555L510.313 464.694L509.735 489.428L491.261 501.672L491.261 475.555L491.25 475.555Z" fill="#AB31AA"/>
<path d="M568.727 524.271L568.665 524.168L568.603 524.271L568.727 524.271ZM544.633 542.125L545.912 541.362L544.633 542.115L544.633 542.125Z" fill="#AB31AA"/>
<path d="M568.603 524.271L568.665 524.178L568.727 524.271L568.603 524.271Z" fill="#AB31AA"/>
<path d="M590.727 533.698L595.243 536.37L595.222 536.411L590.727 533.698Z" fill="#AB31AA"/>
<path d="M568.603 524.271L568.665 524.178L568.727 524.271L568.603 524.271Z" fill="#AB31AA"/>
<path d="M568.603 524.271L568.665 524.178L568.727 524.271L568.603 524.271Z" fill="#AB31AA"/>
<path d="M256.934 377.434L230.892 392.39L230.892 430.739L257.604 444.787L287.368 427.603L287.863 460.104L312.997 475.194L341.235 457.051L341.235 428.47L367.597 444.86L397.629 426.036L397.835 426.036L398.237 394.515L368.814 379.012L398.814 359.848L398.814 328.388L397.175 326.924C395.319 325.273 377.154 313.701 371.638 310.194L341.235 327.924L341.235 298.497L313.049 280.416L285.625 296.651L284.863 326.542L253.913 311.173L228.273 325.779L228.273 359.899L256.934 377.434ZM236.067 396.546L262.955 381.116L282.543 393.101L236.078 420.93L236.078 396.546L236.067 396.546ZM291.739 416.773L257.387 437.681L237.16 427.046L288.491 396.742L290.089 395.804L309.894 383.942L309.894 439.527L292.615 450.006L291.739 416.783L291.739 416.773ZM368.762 437.608L341.246 421.126L341.246 399.001L387.062 426.139L368.772 437.598L368.762 437.608ZM392.031 330.792L392.031 355.691L371.865 343.313L371.7 317.548C380.309 323.045 388.989 328.667 392.031 330.792ZM387.165 359.951L356.514 379.517L392.01 398.217L391.701 422.364L335.142 388.212L335.06 388.161L318.853 378.558L368.783 348.656L387.165 359.94L387.165 359.951ZM316.07 289.699L335.06 301.87L335.06 331.524L316.07 342.591L316.07 289.688L316.07 289.699ZM316.07 349.739L365.968 320.023L365.721 343.293L316.07 373.019L316.07 349.739ZM316.07 384.107L335.06 395.35L335.06 452.781L316.07 439.63L316.07 384.107ZM330.874 456.938L312.966 467.964L293.842 456.484L312.946 444.901L330.874 456.938ZM312.812 378.579L312.874 378.682L312.75 378.682L312.812 378.579ZM260.058 320.044L290.77 336.815L291.708 300.23L309.884 289.472L309.884 373.256L259.336 343.324L260.058 320.054L260.058 320.044ZM256.264 348.677L306.77 378.589L288.491 389.533L238.851 359.806L256.274 348.677L256.264 348.677ZM234.449 329.368L253.738 318.373L253.15 343.406L234.449 355.794L234.449 329.358L234.449 329.368Z" fill="#AB31AA"/>
<path d="M312.874 378.682L312.812 378.579L312.75 378.682L312.874 378.682ZM288.491 396.753L289.78 395.979L288.481 396.742L288.491 396.753Z" fill="#AB31AA"/>
<path d="M312.75 378.682L312.812 378.579L312.874 378.682L312.75 378.682Z" fill="#AB31AA"/>
<path d="M335.142 388.212L339.72 390.925L339.699 390.956L335.142 388.212Z" fill="#AB31AA"/>
<path d="M312.75 378.682L312.812 378.579L312.874 378.682L312.75 378.682Z" fill="#AB31AA"/>
<path d="M312.75 378.682L312.812 378.579L312.874 378.682L312.75 378.682Z" fill="#AB31AA"/>
<path d="M767.269 378.311L741.423 393.153L741.423 431.224L767.939 445.159L797.486 428.109L797.981 460.373L822.93 475.349L850.962 457.34L850.962 428.965L877.128 445.231L906.933 426.551L907.139 426.551L907.541 395.268L878.334 379.878L908.119 360.848L908.119 329.626L906.49 328.172C904.644 326.532 886.623 315.041 881.149 311.565L850.962 329.162L850.962 299.951L822.982 282.004L795.765 298.115L795.002 327.78L764.279 312.525L738.825 327.027L738.825 360.9L767.279 378.311L767.269 378.311ZM746.557 397.279L773.238 381.962L792.682 393.865L746.557 421.487L746.557 397.279ZM801.816 417.361L767.712 438.114L747.639 427.562L798.589 397.485L799.878 396.722L800.177 396.547L819.838 384.767L819.838 439.94L802.682 450.347L801.816 417.361ZM878.262 438.031L850.952 421.673L850.952 399.713L896.427 426.644L878.272 438.021L878.262 438.031ZM901.366 332.009L901.366 356.722L881.355 344.438L881.19 318.868C889.737 324.325 898.355 329.905 901.376 332.009L901.366 332.009ZM896.541 360.951L866.117 380.373L901.345 398.94L901.036 422.91L849.416 391.73L844.9 389.007L844.818 388.955L828.735 379.424L878.293 349.75L896.541 360.951ZM825.972 291.225L844.818 303.304L844.818 332.741L825.972 343.726L825.972 291.215L825.972 291.225ZM825.972 350.822L875.499 321.323L875.252 344.427L825.972 373.937L825.972 350.822ZM825.972 384.932L844.818 396.082L844.818 453.08L825.972 440.022L825.972 384.922L825.972 384.932ZM840.663 457.216L822.889 468.16L803.909 456.762L822.869 445.272L840.663 457.216ZM822.734 379.445L822.796 379.548L822.673 379.548L822.734 379.445ZM770.372 321.344L800.858 337.991L801.785 301.674L819.827 290.998L819.827 374.164L769.65 344.448L770.362 321.344L770.372 321.344ZM766.609 349.77L816.734 379.466L798.589 390.327L749.31 360.817L766.599 349.77L766.609 349.77ZM744.949 330.596L764.094 319.683L763.506 344.531L744.938 356.825L744.938 330.585L744.949 330.596Z" fill="#AB31AA"/>
<path d="M822.796 379.538L822.734 379.435L822.673 379.538L822.796 379.538ZM798.589 397.475L799.868 396.712L798.579 397.475L798.589 397.475Z" fill="#AB31AA"/>
<path d="M822.673 379.538L822.734 379.445L822.796 379.538L822.673 379.538Z" fill="#AB31AA"/>
<path d="M844.9 389.007L849.436 391.699L849.416 391.73L844.9 389.007Z" fill="#AB31AA"/>
<path d="M822.673 379.538L822.734 379.445L822.796 379.538L822.673 379.538Z" fill="#AB31AA"/>
<path d="M822.673 379.538L822.734 379.445L822.796 379.538L822.673 379.538Z" fill="#AB31AA"/>
<path d="M937.81 377.434L911.892 392.318L911.892 430.481L938.48 444.457L968.1 427.356L968.595 459.702L993.606 474.72L1021.7 456.67L1021.7 428.222L1047.93 444.53L1077.81 425.798L1078.02 425.798L1078.42 394.432L1049.14 379.002L1079 359.93L1079 328.626L1077.37 327.171C1075.53 325.521 1057.45 314.01 1051.97 310.524L1021.71 328.172L1021.71 298.889L993.657 280.901L966.368 297.053L965.605 326.8L934.81 311.504L909.294 326.037L909.294 359.992L937.81 377.444L937.81 377.434ZM917.047 396.454L943.8 381.106L963.285 393.04L917.047 420.724L917.047 396.454ZM972.44 416.588L938.253 437.392L918.129 426.809L969.203 396.65L970.492 395.886L970.791 395.711L990.502 383.901L990.502 439.218L973.306 449.646L972.44 416.577L972.44 416.588ZM1049.09 437.309L1021.71 420.909L1021.71 398.898L1067.3 425.902L1049.09 437.309ZM1072.25 331.019L1072.25 355.794L1052.18 343.479L1052.02 317.847C1060.59 323.314 1069.23 328.914 1072.26 331.019L1072.25 331.019ZM1067.41 360.044L1036.92 379.517L1072.24 398.135L1071.93 422.157L1015.65 388.171L1015.57 388.12L999.441 378.568L1049.12 348.821L1067.42 360.054L1067.41 360.044ZM996.657 290.132L1015.55 302.241L1015.55 331.751L996.657 342.767L996.657 290.132ZM996.657 349.884L1046.31 320.312L1046.06 343.468L996.657 373.05L996.657 349.884ZM996.657 384.076L1015.55 395.257L1015.55 452.399L996.657 439.31L996.657 384.076ZM1011.39 456.546L993.575 467.51L974.543 456.092L993.554 444.571L1011.39 456.546ZM993.41 378.579L993.472 378.682L993.348 378.682L993.41 378.579ZM940.924 320.333L971.492 337.022L972.419 300.612L990.513 289.905L990.513 373.277L940.212 343.489L940.924 320.333ZM937.15 348.821L987.399 378.589L969.213 389.481L919.81 359.899L937.14 348.821L937.15 348.821ZM915.438 329.606L934.635 318.672L934.047 343.582L915.438 355.907L915.438 329.606Z" fill="#AB31AA"/>
<path d="M993.472 378.672L993.41 378.568L993.348 378.672L993.472 378.672ZM969.213 396.66L970.502 395.886L969.213 396.65L969.213 396.66Z" fill="#AB31AA"/>
<path d="M993.348 378.672L993.41 378.579L993.472 378.672L993.348 378.672Z" fill="#AB31AA"/>
<path d="M1015.64 388.161L1020.19 390.853L1020.16 390.894L1015.64 388.161Z" fill="#AB31AA"/>
<path d="M993.348 378.672L993.41 378.579L993.472 378.672L993.348 378.672Z" fill="#AB31AA"/>
<path d="M993.348 378.672L993.41 378.579L993.472 378.672L993.348 378.672Z" fill="#AB31AA"/>
<path d="M428.125 377.434L402.031 392.421L402.031 430.852L428.805 444.921L458.631 427.707L459.126 460.269L484.312 475.39L512.601 457.216L512.601 428.573L539.015 444.994L569.108 426.139L569.314 426.139L569.717 394.556L540.231 379.022L570.294 359.817L570.294 328.296L568.655 326.831C566.799 325.17 548.592 313.577 543.066 310.06L512.601 327.831L512.601 298.342L484.353 280.23L456.868 296.496L456.105 326.449L425.094 311.039L399.402 325.676L399.402 359.868L428.125 377.444L428.125 377.434ZM407.217 396.588L434.156 381.126L453.775 393.143L407.206 421.023L407.206 396.588L407.217 396.588ZM463.002 416.856L428.578 437.804L408.31 427.15L459.744 396.784L461.342 395.845L481.188 383.953L481.188 439.651L463.868 450.151L462.992 416.856L463.002 416.856ZM540.18 437.732L512.601 421.219L512.601 399.053L558.51 426.242L540.18 437.732ZM563.51 330.689L563.51 355.639L543.303 343.241L543.128 317.424C551.747 322.932 560.448 328.574 563.5 330.689L563.51 330.689ZM558.634 359.92L527.921 379.528L563.49 398.269L563.18 422.467L506.508 388.233L506.426 388.181L490.188 378.558L540.221 348.605L558.644 359.909L558.634 359.92ZM487.384 289.523L506.416 301.725L506.416 331.441L487.384 342.53L487.384 289.523ZM487.384 349.688L537.386 319.91L537.138 343.231L487.384 373.019L487.384 349.688ZM487.384 384.118L506.416 395.381L506.416 452.925L487.384 439.744L487.384 384.118ZM502.22 457.103L484.271 468.15L465.115 456.649L484.26 445.045L502.22 457.103ZM484.116 378.579L484.178 378.682L484.054 378.682L484.116 378.579ZM431.259 319.93L462.043 336.733L462.981 300.065L481.198 289.286L481.198 373.246L430.547 343.252L431.269 319.93L431.259 319.93ZM427.454 348.625L478.064 378.599L459.744 389.564L410 359.775L427.454 348.625ZM405.598 329.265L424.929 318.249L424.341 343.334L405.598 355.753L405.598 329.265Z" fill="#AB31AA"/>
<path d="M484.178 378.682L484.116 378.579L484.054 378.682L484.178 378.682ZM459.744 396.784L461.033 396.01L459.734 396.773L459.744 396.784Z" fill="#AB31AA"/>
<path d="M484.054 378.682L484.116 378.579L484.178 378.682L484.054 378.682Z" fill="#AB31AA"/>
<path d="M506.498 388.233L511.086 390.946L511.055 390.987L506.498 388.233Z" fill="#AB31AA"/>
<path d="M484.054 378.682L484.116 378.579L484.178 378.682L484.054 378.682Z" fill="#AB31AA"/>
<path d="M484.054 378.682L484.116 378.579L484.178 378.682L484.054 378.682Z" fill="#AB31AA"/>
<path d="M598.388 377.444L572.655 392.214L572.655 430.1L599.047 443.973L628.45 426.995L628.935 459.104L653.771 474.008L681.668 456.082L681.668 427.841L707.71 444.024L737.381 425.427L737.588 425.427L737.979 394.288L708.906 378.971L738.546 360.033L738.546 328.956L736.928 327.512C735.093 325.882 717.154 314.443 711.7 310.978L681.658 328.492L681.658 299.425L653.812 281.561L626.718 297.6L625.966 327.13L595.387 311.947L570.057 326.377L570.057 360.085L598.377 377.413L598.388 377.444ZM577.768 396.32L604.326 381.075L623.677 392.916L577.768 420.404L577.768 396.309L577.768 396.32ZM632.77 416.309L598.831 436.969L578.851 426.459L629.564 396.516L630.842 395.763L631.141 395.587L650.709 383.87L650.709 438.784L633.636 449.14L632.77 416.309ZM708.865 436.886L681.679 420.61L681.679 398.754L726.938 425.561L708.865 436.886ZM731.855 331.359L731.855 355.959L711.937 343.736L711.772 318.291C720.278 323.716 728.855 329.275 731.855 331.369L731.855 331.359ZM727.051 360.167L696.772 379.497L731.835 397.98L731.526 421.838L675.648 388.089L675.565 388.037L659.554 378.558L708.886 349.017L727.051 360.167ZM656.812 290.761L675.575 302.788L675.575 332.091L656.812 343.025L656.812 290.761ZM656.812 350.08L706.112 320.725L705.865 343.716L656.812 373.081L656.812 350.08ZM656.812 384.025L675.575 395.123L675.575 451.863L656.812 438.867L656.812 384.025ZM671.431 455.979L653.74 466.871L634.853 455.535L653.729 444.096L671.441 455.989L671.431 455.979ZM653.585 378.568L653.647 378.672L653.523 378.672L653.585 378.568ZM601.48 320.745L631.821 337.31L632.749 301.158L650.709 290.524L650.709 373.298L600.769 343.726L601.48 320.735L601.48 320.745ZM597.728 349.038L647.616 378.589L629.553 389.399L580.511 360.033L597.717 349.038L597.728 349.038ZM576.17 329.956L595.233 319.095L594.655 343.829L576.181 356.072L576.181 329.956L576.17 329.956Z" fill="#AB31AA"/>
<path d="M653.647 378.672L653.585 378.568L653.523 378.672L653.647 378.672ZM629.564 396.526L630.842 395.763L629.564 396.516L629.564 396.526Z" fill="#AB31AA"/>
<path d="M653.523 378.672L653.585 378.568L653.647 378.672L653.523 378.672Z" fill="#AB31AA"/>
<path d="M675.658 388.089L680.173 390.76L680.153 390.801L675.658 388.089Z" fill="#AB31AA"/>
<path d="M653.523 378.672L653.585 378.568L653.647 378.672L653.523 378.672Z" fill="#AB31AA"/>
<path d="M653.523 378.672L653.585 378.568L653.647 378.672L653.523 378.672Z" fill="#AB31AA"/>
<path d="M173.601 234.155L147.559 249.111L147.559 287.46L174.272 301.509L204.035 284.325L204.53 316.826L229.665 331.916L257.903 313.773L257.903 285.191L284.265 301.581L314.296 282.757L314.503 282.757L314.905 251.236L285.481 235.733L315.482 216.569L315.482 185.11L313.843 183.645C311.987 181.995 293.822 170.422 288.306 166.915L257.903 184.646L257.903 155.218L229.716 137.137L202.293 153.372L201.53 183.264L170.581 167.895L144.941 182.5L144.941 216.621L173.601 234.155ZM152.735 253.268L179.622 237.837L199.21 249.823L152.745 277.651L152.745 253.268L152.735 253.268ZM208.407 273.495L174.055 294.402L153.828 283.768L205.159 253.464L206.757 252.525L226.562 240.664L226.562 296.248L209.283 306.728L208.407 273.505L208.407 273.495ZM285.43 294.32L257.913 277.837L257.913 255.713L303.729 282.85L285.44 294.309L285.43 294.32ZM308.698 187.503L308.698 212.402L288.533 200.025L288.368 174.259C296.976 179.757 305.657 185.378 308.698 187.503ZM303.832 216.672L273.182 236.239L308.678 254.939L308.368 279.085L251.81 244.934L251.728 244.882L235.521 235.28L285.45 205.378L303.832 216.662L303.832 216.672ZM232.737 146.42L251.728 158.591L251.728 188.245L232.737 199.313L232.737 146.41L232.737 146.42ZM232.737 206.461L282.636 176.745L282.388 200.014L232.737 229.741L232.737 206.461ZM232.737 240.818L251.728 252.061L251.728 309.492L232.737 296.341L232.737 240.818ZM247.542 313.649L229.634 324.675L210.51 313.195L229.613 301.612L247.542 313.649ZM229.479 235.29L229.541 235.393L229.418 235.393L229.479 235.29ZM176.725 176.765L207.437 193.537L208.376 156.951L226.551 146.193L226.551 229.978L176.004 200.045L176.725 176.776L176.725 176.765ZM172.931 205.398L223.438 235.31L205.159 246.254L155.518 216.528L172.942 205.398L172.931 205.398ZM151.116 186.079L170.405 175.084L169.818 200.117L151.116 212.505L151.116 186.069L151.116 186.079Z" fill="#AB31AA"/>
<path d="M229.541 235.393L229.479 235.29L229.418 235.393L229.541 235.393ZM205.159 253.464L206.448 252.69L205.149 253.454L205.159 253.464Z" fill="#AB31AA"/>
<path d="M229.418 235.393L229.479 235.29L229.541 235.393L229.418 235.393Z" fill="#AB31AA"/>
<path d="M251.81 244.934L256.387 247.636L256.367 247.678L251.81 244.934Z" fill="#AB31AA"/>
<path d="M229.418 235.393L229.479 235.29L229.541 235.393L229.418 235.393Z" fill="#AB31AA"/>
<path d="M229.418 235.393L229.479 235.29L229.541 235.393L229.418 235.393Z" fill="#AB31AA"/>
<path d="M683.936 235.022L658.09 249.864L658.09 287.935L684.607 301.87L714.154 284.82L714.649 317.084L739.598 332.06L767.63 314.051L767.63 285.676L793.795 301.942L823.601 283.263L823.807 283.263L824.209 251.979L795.002 236.589L824.786 217.559L824.786 186.337L823.157 184.883C821.312 183.243 803.291 171.753 797.816 168.277L767.63 185.873L767.63 156.663L739.65 138.715L712.432 154.827L711.669 184.491L680.947 169.236L655.492 183.738L655.492 217.611L683.947 235.022L683.936 235.022ZM663.225 254L689.906 238.683L709.35 250.586L663.225 278.208L663.225 254ZM718.484 274.072L684.38 294.825L664.307 284.273L715.257 254.196L716.546 253.433L716.845 253.258L736.505 241.479L736.505 296.651L719.35 307.058L718.484 274.072ZM794.93 294.753L767.619 278.394L767.619 256.435L813.095 283.366L794.94 294.743L794.93 294.753ZM818.033 188.72L818.033 213.433L798.022 201.149L797.857 175.579C806.404 181.036 815.023 186.616 818.044 188.72L818.033 188.72ZM813.208 217.673L782.785 237.095L818.013 255.661L817.703 279.632L766.083 248.451L761.568 245.728L761.485 245.677L745.402 236.146L794.96 206.471L813.208 217.673ZM742.639 147.936L761.485 160.015L761.485 189.452L742.639 200.437L742.639 147.926L742.639 147.936ZM742.639 207.534L792.167 178.034L791.919 201.139L742.639 230.648L742.639 207.534ZM742.639 241.644L761.485 252.794L761.485 309.791L742.639 296.733L742.639 241.633L742.639 241.644ZM757.33 313.938L739.557 324.881L720.577 313.484L739.536 301.994L757.33 313.938ZM739.402 236.156L739.464 236.259L739.34 236.259L739.402 236.156ZM687.04 178.055L717.525 194.702L718.453 158.385L736.495 147.71L736.495 230.875L686.318 201.159L687.029 178.055L687.04 178.055ZM683.277 206.481L733.402 236.177L715.257 247.038L665.977 217.528L683.266 206.481L683.277 206.481ZM661.616 187.307L680.761 176.394L680.173 201.242L661.606 213.537L661.606 187.297L661.616 187.307Z" fill="#AB31AA"/>
<path d="M739.464 236.259L739.402 236.156L739.34 236.259L739.464 236.259ZM715.257 254.196L716.535 253.433L715.247 254.196L715.257 254.196Z" fill="#AB31AA"/>
<path d="M739.34 236.259L739.402 236.156L739.464 236.259L739.34 236.259Z" fill="#AB31AA"/>
<path d="M761.568 245.728L766.104 248.41L766.083 248.451L761.568 245.728Z" fill="#AB31AA"/>
<path d="M739.34 236.259L739.402 236.156L739.464 236.259L739.34 236.259Z" fill="#AB31AA"/>
<path d="M739.34 236.259L739.402 236.156L739.464 236.259L739.34 236.259Z" fill="#AB31AA"/>
<path d="M854.478 234.155L828.559 249.039L828.559 287.203L855.148 301.179L884.767 284.077L885.262 316.424L910.273 331.442L938.367 313.391L938.367 284.944L964.594 301.251L994.472 282.52L994.678 282.52L995.08 251.154L965.801 235.723L995.657 216.652L995.657 185.347L994.028 183.893C992.183 182.242 974.11 170.732 968.626 167.245L938.367 184.893L938.367 155.61L910.315 137.622L883.025 153.774L882.262 183.521L851.467 168.225L825.951 182.758L825.951 216.714L854.467 234.166L854.478 234.155ZM833.714 253.175L860.468 237.827L879.953 249.761L833.714 277.445L833.714 253.175ZM889.108 273.299L854.921 294.103L834.797 283.52L885.87 253.361L887.159 252.598L887.458 252.422L907.17 240.612L907.17 295.929L889.974 306.357L889.108 273.288L889.108 273.299ZM965.759 294.031L938.377 277.631L938.377 255.62L983.966 282.623L965.759 294.031ZM988.915 187.74L988.915 212.516L968.852 200.2L968.687 174.568C977.255 180.035 985.894 185.636 988.925 187.74L988.915 187.74ZM984.08 216.755L953.584 236.229L988.905 254.846L988.595 278.869L932.315 244.882L932.233 244.831L916.108 235.28L965.79 205.533L984.09 216.765L984.08 216.755ZM913.325 146.853L932.222 158.963L932.222 188.472L913.325 199.488L913.325 146.853ZM913.325 206.595L962.976 177.023L962.728 200.179L913.325 229.761L913.325 206.595ZM913.325 240.788L932.222 251.968L932.222 309.111L913.325 296.022L913.325 240.788ZM928.057 313.267L910.242 324.232L891.211 312.814L910.222 301.292L928.057 313.267ZM910.077 235.29L910.139 235.393L910.016 235.393L910.077 235.29ZM857.591 177.044L888.159 193.733L889.087 157.323L907.18 146.616L907.18 229.988L856.88 200.2L857.591 177.044ZM853.818 205.543L904.067 235.311L885.881 246.203L836.477 216.621L853.808 205.543L853.818 205.543ZM832.106 186.317L851.302 175.383L850.715 200.293L832.106 212.619L832.106 186.317Z" fill="#AB31AA"/>
<path d="M910.139 235.393L910.077 235.29L910.016 235.393L910.139 235.393ZM885.881 253.371L887.169 252.598L885.881 253.361L885.881 253.371Z" fill="#AB31AA"/>
<path d="M910.016 235.393L910.077 235.29L910.139 235.393L910.016 235.393Z" fill="#AB31AA"/>
<path d="M932.305 244.882L936.862 247.574L936.831 247.616L932.305 244.882Z" fill="#AB31AA"/>
<path d="M910.016 235.393L910.077 235.29L910.139 235.393L910.016 235.393Z" fill="#AB31AA"/>
<path d="M910.016 235.393L910.077 235.29L910.139 235.393L910.016 235.393Z" fill="#AB31AA"/>
<path d="M344.792 234.155L318.699 249.142L318.699 287.574L345.473 301.643L375.298 284.428L375.793 316.991L400.979 332.112L429.269 313.938L429.269 285.294L455.682 301.715L485.776 282.86L485.982 282.86L486.384 251.277L456.899 235.744L486.961 216.538L486.961 185.017L485.322 183.552C483.467 181.892 465.26 170.298 459.734 166.781L429.269 184.553L429.269 155.064L401.021 136.952L373.535 153.217L372.772 183.171L341.761 167.761L316.07 182.397L316.07 216.59L344.792 234.166L344.792 234.155ZM323.884 253.299L350.823 237.837L370.442 249.854L323.874 277.734L323.874 253.299L323.884 253.299ZM379.67 273.577L345.246 294.526L324.977 283.871L376.412 253.505L378.01 252.567L397.856 240.674L397.856 296.372L380.536 306.872L379.659 273.577L379.67 273.577ZM456.847 294.443L429.269 277.93L429.269 255.764L475.178 282.953L456.847 294.443ZM480.178 187.41L480.178 212.361L459.971 199.963L459.796 174.146C468.415 179.654 477.116 185.296 480.167 187.41L480.178 187.41ZM475.301 216.631L444.589 236.239L480.157 254.98L479.848 279.178L423.176 244.944L423.093 244.893L406.856 235.269L456.888 205.316L475.312 216.621L475.301 216.631ZM404.052 146.235L423.083 158.437L423.083 188.153L404.052 199.241L404.052 146.235ZM404.052 206.399L454.053 176.621L453.806 199.942L404.052 229.73L404.052 206.399ZM404.052 240.839L423.083 252.102L423.083 309.647L404.052 296.465L404.052 240.839ZM418.887 313.814L400.938 324.861L381.783 313.36L400.928 301.756L418.887 313.814ZM400.784 235.3L400.845 235.403L400.722 235.403L400.784 235.3ZM347.926 176.642L378.711 193.444L379.649 156.776L397.866 145.997L397.866 229.957L347.215 199.963L347.937 176.642L347.926 176.642ZM344.132 205.337L394.742 235.31L376.422 246.275L326.678 216.487L344.132 205.337ZM322.266 185.987L341.596 174.971L341.009 200.056L322.266 212.474L322.266 185.987Z" fill="#AB31AA"/>
<path d="M400.845 235.393L400.784 235.29L400.722 235.393L400.845 235.393ZM376.412 253.505L377.7 252.732L376.401 253.495L376.412 253.505Z" fill="#AB31AA"/>
<path d="M400.722 235.393L400.784 235.3L400.845 235.393L400.722 235.393Z" fill="#AB31AA"/>
<path d="M423.166 244.955L427.753 247.667L427.723 247.708L423.166 244.955Z" fill="#AB31AA"/>
<path d="M400.722 235.393L400.784 235.3L400.845 235.393L400.722 235.393Z" fill="#AB31AA"/>
<path d="M400.722 235.393L400.784 235.3L400.845 235.393L400.722 235.393Z" fill="#AB31AA"/>
<path d="M515.055 234.155L489.322 248.926L489.322 286.811L515.715 300.684L545.118 283.706L545.602 315.815L570.438 330.719L598.336 312.793L598.336 284.552L624.378 300.735L654.049 282.138L654.255 282.138L654.647 250.999L625.574 235.682L655.214 216.744L655.214 185.667L653.595 184.223C651.76 182.593 633.822 171.154 628.368 167.689L598.326 185.203L598.326 156.136L570.479 138.272L543.386 154.311L542.633 183.841L512.055 168.658L486.724 183.088L486.724 216.796L515.045 234.124L515.055 234.155ZM494.436 253.041L520.993 237.796L540.345 249.637L494.436 277.125L494.436 253.031L494.436 253.041ZM549.438 273.02L515.498 293.68L495.518 283.17L546.231 253.227L547.51 252.474L547.809 252.298L567.376 240.581L567.376 295.496L550.304 305.851L549.438 273.02ZM625.533 293.598L598.346 277.321L598.346 255.465L643.605 282.272L625.533 293.598ZM648.523 188.07L648.523 212.67L628.605 200.448L628.44 175.002C636.945 180.427 645.523 185.987 648.523 188.08L648.523 188.07ZM643.719 216.879L613.44 236.208L648.502 254.691L648.193 278.549L592.315 244.8L592.233 244.748L576.222 235.269L625.553 205.729L643.719 216.879ZM573.48 147.483L592.243 159.509L592.243 188.813L573.48 199.746L573.48 147.483ZM573.48 206.791L622.78 177.436L622.533 200.427L573.48 229.792L573.48 206.791ZM573.48 240.746L592.243 251.845L592.243 308.585L573.48 295.588L573.48 240.746ZM588.099 312.7L570.407 323.592L551.52 312.257L570.397 300.818L588.109 312.71L588.099 312.7ZM570.253 235.29L570.314 235.393L570.191 235.393L570.253 235.29ZM518.148 177.457L548.489 194.022L549.417 157.869L567.376 147.235L567.376 230.009L517.437 200.437L518.148 177.446L518.148 177.457ZM514.395 205.749L564.283 235.3L546.221 246.11L497.178 216.744L514.385 205.749L514.395 205.749ZM492.838 186.667L511.9 175.806L511.323 200.54L492.848 212.784L492.848 186.667L492.838 186.667Z" fill="#AB31AA"/>
<path d="M570.314 235.383L570.253 235.28L570.191 235.383L570.314 235.383ZM546.231 253.237L547.51 252.474L546.231 253.227L546.231 253.237Z" fill="#AB31AA"/>
<path d="M570.201 235.383L570.253 235.29L570.314 235.383L570.201 235.383Z" fill="#AB31AA"/>
<path d="M592.325 244.81L596.841 247.482L596.82 247.523L592.325 244.81Z" fill="#AB31AA"/>
<path d="M570.201 235.383L570.253 235.29L570.314 235.383L570.201 235.383Z" fill="#AB31AA"/>
<path d="M570.201 235.383L570.253 235.29L570.314 235.383L570.201 235.383Z" fill="#AB31AA"/>
<path d="M87.6607 88.0918L61.6186 103.048L61.6186 141.397L88.3308 155.445L118.095 138.261L118.589 170.762L143.724 185.852L171.962 167.709L171.962 139.128L198.324 155.518L228.356 136.694L228.562 136.694L228.964 105.173L199.54 89.6699L229.541 70.5056L229.541 39.0464L227.902 37.5818C226.046 35.9314 207.881 24.3586 202.365 20.8517L171.962 38.5823L171.962 9.15507L143.776 -8.92623L116.352 7.30875L115.589 37.2001L84.6399 21.8315L59.0001 36.4369L59 70.5572L87.6607 88.0918ZM66.7941 107.215L93.6815 91.7844L113.27 103.77L66.8044 131.598L66.8044 107.215L66.7941 107.215ZM122.466 127.442L88.1143 148.349L67.8869 137.715L119.218 107.411L120.816 106.472L140.621 94.6106L140.621 150.195L123.342 160.675L122.466 127.452L122.466 127.442ZM199.489 148.266L171.973 131.784L171.973 109.659L217.788 136.797L199.499 148.256L199.489 148.266ZM222.768 41.4497L222.768 66.3489L202.602 53.9715L202.437 28.2059C211.046 33.7035 219.727 39.3249 222.768 41.4497ZM217.902 70.6087L187.251 90.1753L222.747 108.875L222.438 133.022L165.88 98.8705L165.797 98.8189L149.59 89.2161L199.52 59.3144L217.902 70.5984L217.902 70.6087ZM146.797 0.367101L165.787 12.5382L165.787 42.1924L146.796 53.2598L146.797 0.356847L146.797 0.367101ZM146.796 60.4078L196.695 30.6917L196.447 53.9612L146.796 83.6875L146.796 60.4078ZM146.796 94.7653L165.787 106.008L165.787 163.439L146.796 150.288L146.796 94.7653ZM161.601 167.596L143.693 178.622L124.569 167.142L143.673 155.559L161.601 167.596ZM143.539 89.2367L143.601 89.3398L143.477 89.3398L143.539 89.2367ZM90.7948 30.7123L121.507 47.4836L122.445 10.8982L140.621 0.140172L140.621 83.9247L90.0732 53.9922L90.7948 30.7226L90.7948 30.7123ZM87.0008 59.3453L137.508 89.2573L119.229 100.201L69.588 70.4746L87.0112 59.3453L87.0008 59.3453ZM65.1755 40.0263L84.4647 29.0311L83.8771 54.0643L65.1755 66.452L65.1755 40.016L65.1755 40.0263Z" fill="#AB31AA"/>
<path d="M143.601 89.3398L143.539 89.2367L143.477 89.3398L143.601 89.3398ZM119.218 107.411L120.507 106.637L119.208 107.4L119.218 107.411Z" fill="#AB31AA"/>
<path d="M143.477 89.3398L143.539 89.2367L143.601 89.3398L143.477 89.3398Z" fill="#AB31AA"/>
<path d="M165.88 98.8807L170.447 101.583L170.426 101.624L165.88 98.8807Z" fill="#AB31AA"/>
<path d="M143.477 89.3398L143.539 89.2367L143.601 89.3398L143.477 89.3398Z" fill="#AB31AA"/>
<path d="M143.477 89.3398L143.539 89.2367L143.601 89.3398L143.477 89.3398Z" fill="#AB31AA"/>
<path d="M91.7845 376.619L65.7425 391.575L65.7424 429.924L92.4546 443.972L122.218 426.789L122.713 459.289L147.848 474.38L176.086 456.236L176.086 427.655L202.448 444.045L232.48 425.221L232.686 425.221L233.088 393.7L203.664 378.197L233.665 359.033L233.665 327.573L232.026 326.109C230.17 324.459 212.005 312.886 206.489 309.379L176.086 327.109L176.086 297.682L147.9 279.601L120.476 295.836L119.713 325.727L88.7638 310.359L63.1238 324.964L63.1238 359.084L91.7845 376.619ZM70.9179 395.732L97.8053 380.301L117.394 392.287L70.9282 420.115L70.9282 395.732L70.9179 395.732ZM126.579 415.958L92.2278 436.866L72.0004 426.232L123.332 395.928L124.93 394.989L144.735 383.127L144.735 438.712L127.456 449.192L126.579 415.969L126.579 415.958ZM203.613 436.783L176.096 420.301L176.096 398.176L221.912 425.314L203.623 436.773L203.613 436.783ZM226.881 329.966L226.881 354.866L206.716 342.488L206.551 316.723C215.159 322.22 223.84 327.842 226.881 329.966ZM222.015 359.136L191.365 378.702L226.861 397.403L226.551 421.549L174.54 390.141L169.993 387.398L169.911 387.346L153.704 377.743L203.633 347.842L222.015 359.126L222.015 359.136ZM150.92 288.884L169.911 301.055L169.911 330.709L150.92 341.777L150.92 288.874L150.92 288.884ZM150.92 348.925L200.819 319.208L200.571 342.478L150.92 372.204L150.92 348.925ZM150.92 383.282L169.911 394.525L169.911 451.956L150.92 438.805L150.92 383.282ZM165.725 456.113L147.817 467.139L128.693 455.659L147.797 444.076L165.725 456.113ZM147.662 377.753L147.724 377.857L147.601 377.857L147.662 377.753ZM94.9084 319.229L125.621 336L126.559 299.415L144.735 288.657L144.735 372.442L94.1866 342.509L94.9084 319.239L94.9084 319.229ZM91.1144 347.862L141.621 377.774L123.342 388.718L73.7015 358.991L91.1247 347.862L91.1144 347.862ZM69.2993 328.543L88.5885 317.548L88.0009 342.581L69.2993 354.969L69.2993 328.533L69.2993 328.543Z" fill="#AB31AA"/>
<path d="M147.724 377.857L147.662 377.753L147.601 377.857L147.724 377.857ZM123.342 395.928L124.631 395.154L123.332 395.917L123.342 395.928Z" fill="#AB31AA"/>
<path d="M147.601 377.857L147.662 377.753L147.724 377.857L147.601 377.857Z" fill="#AB31AA"/>
<path d="M169.993 387.398L174.57 390.1L174.54 390.141L169.993 387.398Z" fill="#AB31AA"/>
<path d="M147.601 377.857L147.662 377.753L147.724 377.857L147.601 377.857Z" fill="#AB31AA"/>
<path d="M147.601 377.857L147.662 377.753L147.724 377.857L147.601 377.857Z" fill="#AB31AA"/>
<path d="M597.996 88.9686L572.15 103.811L572.15 141.882L598.666 155.817L628.213 138.767L628.708 171.031L653.657 186.007L681.689 167.998L681.689 139.623L707.855 155.889L737.66 137.209L737.866 137.209L738.268 105.926L709.061 90.5364L738.845 71.5062L738.845 40.2842L737.216 38.8299C735.371 37.1899 717.35 25.6995 711.876 22.2235L681.689 39.82L681.689 10.6094L653.709 -7.33775L626.491 8.77345L625.729 38.4379L595.006 23.1828L569.552 37.6849L569.552 71.5577L598.006 88.9686L597.996 88.9686ZM577.284 107.937L603.965 92.6199L623.409 104.523L577.284 132.145L577.284 107.937ZM632.543 128.019L598.439 148.772L578.366 138.22L629.316 108.143L630.605 107.38L630.904 107.205L650.564 95.4254L650.564 150.598L633.409 161.005L632.543 128.019ZM708.999 148.7L681.689 132.341L681.689 110.381L727.165 137.313L709.009 148.689L708.999 148.7ZM732.103 42.6668L732.103 67.3804L712.092 55.0958L711.927 29.5262C720.474 34.9826 729.093 40.5627 732.113 42.6668L732.103 42.6668ZM727.268 71.6196L696.844 91.0418L732.072 109.608L731.763 133.579L675.627 99.675L675.545 99.6234L659.462 90.0929L709.02 60.4181L727.268 71.6196ZM656.699 1.88338L675.545 13.9616L675.545 43.3992L656.699 54.3841L656.699 1.87307L656.699 1.88338ZM656.699 61.4804L706.226 31.981L705.978 55.0855L656.699 84.5952L656.699 61.4804ZM656.699 95.5905L675.545 106.74L675.545 163.738L656.699 150.68L656.699 95.5802L656.699 95.5905ZM671.39 167.885L653.616 178.828L634.636 167.431L653.595 155.941L671.39 167.885ZM653.461 90.1032L653.523 90.2063L653.399 90.2063L653.461 90.1032ZM601.099 32.0017L631.584 48.6492L632.512 12.332L650.554 1.65645L650.554 84.8222L600.377 55.1061L601.089 32.0017L601.099 32.0017ZM597.336 60.4284L647.461 90.1238L629.316 100.985L580.036 71.4752L597.326 60.4284L597.336 60.4284ZM575.686 41.2537L594.831 30.341L594.243 55.1886L575.675 67.4835L575.675 41.2434L575.686 41.2537Z" fill="#AB31AA"/>
<path d="M653.523 90.2063L653.461 90.1032L653.399 90.2063L653.523 90.2063ZM629.327 108.143L630.605 107.38L629.316 108.143L629.327 108.143Z" fill="#AB31AA"/>
<path d="M653.399 90.2063L653.461 90.1032L653.523 90.2063L653.399 90.2063Z" fill="#AB31AA"/>
<path d="M675.627 99.675L680.174 102.357L680.153 102.398L675.627 99.675Z" fill="#AB31AA"/>
<path d="M653.399 90.2063L653.461 90.1032L653.523 90.2063L653.399 90.2063Z" fill="#AB31AA"/>
<path d="M653.399 90.2063L653.461 90.1032L653.523 90.2063L653.399 90.2063Z" fill="#AB31AA"/>
<path d="M768.537 88.1021L742.619 102.986L742.619 141.15L769.207 155.126L798.827 138.024L799.321 170.37L824.333 185.388L852.426 167.338L852.426 138.891L878.654 155.198L908.531 136.467L908.737 136.467L909.139 105.1L879.86 89.67L909.717 70.5985L909.717 39.294L908.088 37.8397C906.242 36.1894 888.17 24.6784 882.685 21.1921L852.426 38.8402L852.426 9.55741L824.374 -8.43106L797.084 7.72135L796.321 37.4684L765.527 22.172L740.01 36.7051L740.01 70.6604L768.527 88.1125L768.537 88.1021ZM747.773 107.122L774.527 91.7741L794.012 103.708L747.773 131.392L747.773 107.122ZM803.177 127.246L768.991 148.05L748.866 137.467L799.94 107.308L801.229 106.544L801.528 106.369L821.24 94.5591L821.24 149.876L804.043 160.304L803.177 127.235L803.177 127.246ZM879.819 147.978L852.436 131.578L852.436 109.567L898.025 136.57L879.819 147.978ZM902.984 41.687L902.984 66.4624L882.922 54.1469L882.757 28.5154C891.324 33.9821 899.964 39.5828 902.995 41.687L902.984 41.687ZM898.139 70.7016L867.643 90.1754L902.964 108.793L902.654 132.816L850.9 101.563L846.374 98.8293L846.292 98.7777L830.168 89.2265L879.85 59.4795L898.149 70.712L898.139 70.7016ZM827.384 0.800388L846.282 12.9096L846.282 42.4193L827.384 53.4352L827.384 0.800388ZM827.384 60.5419L877.035 30.9703L876.788 54.1263L827.384 83.7082L827.384 60.5419ZM827.384 94.7344L846.282 105.915L846.282 163.058L827.384 149.968L827.384 94.7344ZM842.117 167.214L824.302 178.179L805.27 166.76L824.281 155.239L842.117 167.214ZM824.147 89.2368L824.209 89.3399L824.085 89.3399L824.147 89.2368ZM771.651 30.9909L802.218 47.6797L803.146 11.2696L821.24 0.563144L821.24 83.9351L770.939 54.1469L771.651 30.9909ZM767.877 59.4898L818.126 89.2574L799.94 100.15L750.536 70.5675L767.867 59.4898L767.877 59.4898ZM746.165 40.2636L765.362 29.3302L764.774 54.2397L746.165 66.5655L746.165 40.2636Z" fill="#AB31AA"/>
<path d="M824.209 89.3399L824.147 89.2368L824.085 89.3399L824.209 89.3399ZM799.94 107.318L801.229 106.544L799.94 107.308L799.94 107.318Z" fill="#AB31AA"/>
<path d="M824.085 89.3399L824.147 89.2368L824.209 89.3399L824.085 89.3399Z" fill="#AB31AA"/>
<path d="M846.364 98.8293L850.921 101.521L850.9 101.563L846.364 98.8293Z" fill="#AB31AA"/>
<path d="M824.085 89.3399L824.147 89.2368L824.209 89.3399L824.085 89.3399Z" fill="#AB31AA"/>
<path d="M824.085 89.3399L824.147 89.2368L824.209 89.3399L824.085 89.3399Z" fill="#AB31AA"/>
<path d="M258.851 88.0918L232.758 103.079L232.758 141.511L259.532 155.579L289.358 138.365L289.852 170.927L315.039 186.048L343.328 167.874L343.328 139.231L369.741 155.652L399.835 136.797L400.041 136.797L400.443 105.214L370.958 89.6802L401.021 70.4747L401.021 38.9536L399.381 37.489C397.526 35.8284 379.319 24.2349 373.793 20.7176L343.328 38.4894L343.328 9.0003L315.08 -9.11189L287.595 7.15404L286.832 37.1073L255.82 21.6974L230.129 36.3337L230.129 70.5262L258.851 88.1021L258.851 88.0918ZM237.944 107.246L264.883 91.7844L284.502 103.801L237.933 131.681L237.933 107.246L237.944 107.246ZM293.729 127.514L259.305 148.462L239.036 137.808L290.471 107.442L291.77 106.679L292.069 106.503L311.915 94.6106L311.915 150.309L294.595 160.809L293.718 127.514L293.729 127.514ZM370.906 148.39L343.328 131.877L343.328 109.711L389.237 136.9L370.906 148.39ZM394.237 41.3569L394.237 66.3076L374.03 53.9096L373.855 28.0925C382.474 33.6004 391.175 39.2424 394.227 41.3569L394.237 41.3569ZM389.361 70.5778L358.648 90.1857L394.216 108.927L393.907 133.125L341.792 101.645L337.235 98.8911L337.153 98.8395L320.915 89.2161L370.948 59.2629L389.371 70.5675L389.361 70.5778ZM318.111 0.181447L337.142 12.3835L337.142 42.0995L318.111 53.1876L318.111 0.181447ZM318.111 60.3459L368.113 30.5679L367.865 53.889L318.111 83.6772L318.111 60.3459ZM318.111 94.7756L337.142 106.039L337.142 163.584L318.111 150.402L318.111 94.7756ZM332.946 167.761L314.997 178.808L295.842 167.307L314.987 155.703L332.946 167.761ZM314.853 89.2471L314.915 89.3502L314.791 89.3502L314.853 89.2471ZM261.986 30.5886L292.77 47.3909L293.708 10.7229L311.925 -0.0557968L311.925 83.9042L261.274 53.9096L261.996 30.5886L261.986 30.5886ZM258.192 59.2834L308.801 89.2573L290.481 100.222L240.737 70.4334L258.192 59.2834ZM236.325 39.9335L255.655 28.9176L255.068 54.0024L236.325 66.4211L236.325 39.9335Z" fill="#AB31AA"/>
<path d="M314.915 89.3398L314.853 89.2367L314.791 89.3398L314.915 89.3398ZM290.481 107.452L291.77 106.679L290.471 107.442L290.481 107.452Z" fill="#AB31AA"/>
<path d="M314.791 89.3398L314.853 89.2471L314.915 89.3398L314.791 89.3398Z" fill="#AB31AA"/>
<path d="M337.225 98.9014L341.813 101.614L341.792 101.645L337.225 98.9014Z" fill="#AB31AA"/>
<path d="M314.791 89.3398L314.853 89.2471L314.915 89.3398L314.791 89.3398Z" fill="#AB31AA"/>
<path d="M314.791 89.3398L314.853 89.2471L314.915 89.3398L314.791 89.3398Z" fill="#AB31AA"/>
<path d="M429.114 88.1021L403.382 102.872L403.382 140.758L429.774 154.631L459.177 137.653L459.662 169.762L484.497 184.666L512.395 166.74L512.395 138.499L538.437 154.682L568.108 136.085L568.314 136.085L568.706 104.946L539.633 89.6287L569.273 70.6913L569.273 39.6138L567.655 38.1698C565.82 36.5401 547.881 25.1013 542.427 21.6356L512.385 39.1496L512.385 10.0834L484.539 -7.78131L457.445 8.25769L456.692 37.7881L426.114 22.6052L400.784 37.0352L400.784 70.7429L429.104 88.0712L429.114 88.1021ZM408.495 106.988L435.053 91.7432L454.404 103.584L408.495 131.072L408.495 106.978L408.495 106.988ZM463.497 126.967L429.558 147.627L409.578 137.117L460.291 107.174L461.569 106.421L461.868 106.245L481.436 94.5281L481.436 149.442L464.363 159.798L463.497 126.967ZM539.592 147.545L512.405 131.268L512.406 109.412L557.665 136.219L539.592 147.545ZM562.593 42.017L562.593 66.6171L542.675 54.3944L542.51 28.9486C551.015 34.374 559.593 39.9335 562.593 42.0274L562.593 42.017ZM557.778 70.8254L527.499 90.1547L562.562 108.638L562.252 132.496L506.374 98.7467L506.292 98.6951L490.281 89.2161L539.613 59.6754L557.778 70.8254ZM487.539 1.42951L506.302 13.4562L506.302 42.7597L487.539 53.693L487.539 1.42951ZM487.539 60.7378L536.839 31.3828L536.592 54.3738L487.539 83.7391L487.539 60.7378ZM487.539 94.6931L506.302 105.792L506.302 162.531L487.539 149.535L487.539 94.6931ZM502.168 166.647L484.477 177.539L465.59 166.203L484.467 154.765L502.178 166.657L502.168 166.647ZM484.322 89.2264L484.384 89.3295L484.26 89.3295L484.322 89.2264ZM432.207 31.4034L462.548 47.9685L463.476 11.8162L481.436 1.18201L481.436 83.9558L431.496 54.384L432.207 31.3931L432.207 31.4034ZM428.455 59.696L478.343 89.2471L460.28 100.057L411.237 70.6913L428.444 59.696L428.455 59.696ZM406.908 40.6143L425.97 29.7531L425.393 54.4872L406.918 66.7305L406.918 40.6143L406.908 40.6143Z" fill="#AB31AA"/>
<path d="M484.384 89.3295L484.322 89.2264L484.26 89.3295L484.384 89.3295ZM460.291 107.184L461.569 106.421L460.291 107.174L460.291 107.184Z" fill="#AB31AA"/>
<path d="M484.26 89.3295L484.322 89.2264L484.384 89.3295L484.26 89.3295Z" fill="#AB31AA"/>
<path d="M506.385 98.757L510.9 101.428L510.88 101.459L506.385 98.757Z" fill="#AB31AA"/>
<path d="M484.26 89.3295L484.322 89.2264L484.384 89.3295L484.26 89.3295Z" fill="#AB31AA"/>
<path d="M484.26 89.3295L484.322 89.2264L484.384 89.3295L484.26 89.3295Z" fill="#AB31AA"/>
<path d="M172.591 -57.5075L146.549 -42.5515L146.549 -4.20223L173.261 9.84611L203.025 -7.33779L203.52 25.1631L228.655 40.2533L256.893 22.11L256.893 -6.47139L283.254 9.91832L313.286 -8.90559L313.492 -8.90559L313.894 -40.4266L284.471 -55.9293L314.472 -75.0936L314.472 -106.553L312.833 -108.017C310.977 -109.668 292.811 -121.241 287.296 -124.748L256.893 -107.017L256.893 -136.444L228.706 -154.526L201.283 -138.291L200.52 -108.399L169.57 -123.768L143.93 -109.162L143.93 -75.0421L172.591 -57.5075ZM151.724 -38.3947L178.612 -53.8252L198.2 -41.8397L151.735 -14.0113L151.735 -38.3947L151.724 -38.3947ZM207.386 -18.168L173.034 2.73948L152.807 -7.89474L204.138 -38.1988L205.736 -39.1373L225.541 -50.999L225.541 4.58574L208.262 15.0652L207.386 -18.1577L207.386 -18.168ZM284.409 2.65697L256.893 -13.8256L256.893 -35.9501L302.708 -8.81276L284.419 2.64659L284.409 2.65697ZM307.688 -104.16L307.688 -79.2607L287.522 -91.6381L287.357 -117.404C295.966 -111.906 304.647 -106.285 307.688 -104.16ZM302.822 -74.9906L272.171 -55.4239L307.667 -36.7238L307.358 -12.5776L255.346 -43.9852L250.8 -46.7288L250.717 -46.7804L234.51 -56.3831L284.44 -86.2849L302.822 -75.0009L302.822 -74.9906ZM231.727 -145.242L250.717 -133.071L250.717 -103.417L231.727 -92.3497L231.727 -145.253L231.727 -145.242ZM231.727 -85.2019L281.625 -114.918L281.378 -91.6484L231.727 -61.922L231.727 -85.2019ZM231.727 -50.8443L250.717 -39.6015L250.717 17.8295L231.727 4.67851L231.727 -50.8443ZM246.531 21.9966L228.624 33.0228L209.499 21.5428L228.603 9.95964L246.531 21.9966ZM228.469 -56.3626L228.531 -56.2594L228.407 -56.2594L228.469 -56.3626ZM175.715 -114.897L206.427 -98.1259L207.365 -134.711L225.541 -145.469L225.541 -61.6848L174.993 -91.6175L175.715 -114.887L175.715 -114.897ZM171.921 -86.2642L222.428 -56.3523L204.149 -45.4086L154.508 -75.1349L171.931 -86.2642L171.921 -86.2642ZM150.106 -105.583L169.395 -116.579L168.807 -91.5453L150.106 -79.1576L150.106 -105.594L150.106 -105.583Z" fill="#AB31AA"/>
<path d="M228.531 -56.2697L228.469 -56.3728L228.407 -56.2697L228.531 -56.2697ZM204.149 -38.1988L205.437 -38.9723L204.138 -38.2091L204.149 -38.1988Z" fill="#AB31AA"/>
<path d="M228.407 -56.2697L228.469 -56.3626L228.531 -56.2697L228.407 -56.2697Z" fill="#AB31AA"/>
<path d="M250.8 -46.7288L255.377 -44.0264L255.346 -43.9852L250.8 -46.7288Z" fill="#AB31AA"/>
<path d="M228.407 -56.2697L228.469 -56.3626L228.531 -56.2697L228.407 -56.2697Z" fill="#AB31AA"/>
<path d="M228.407 -56.2697L228.469 -56.3626L228.531 -56.2697L228.407 -56.2697Z" fill="#AB31AA"/>
<path d="M682.926 -56.641L657.08 -41.7985L657.08 -3.7277L683.596 10.2072L713.144 -6.84269L713.638 25.421L738.588 40.3977L766.619 22.3886L766.619 -5.98654L792.785 10.2794L822.59 -8.40017L822.796 -8.40017L823.198 -39.6839L793.991 -55.0732L823.776 -74.1034L823.776 -105.325L822.147 -106.78C820.301 -108.42 802.28 -119.91 796.806 -123.386L766.619 -105.79L766.619 -135L738.639 -152.947L711.422 -136.836L710.659 -107.172L679.936 -122.427L654.482 -107.925L654.482 -74.0519L682.936 -56.641L682.926 -56.641ZM662.214 -37.6624L688.895 -52.9793L708.339 -41.0765L662.214 -13.4543L662.214 -37.6624ZM717.474 -17.5904L683.369 3.16238L663.297 -7.38932L714.247 -37.4664L715.535 -38.2297L715.834 -38.405L735.495 -50.1841L735.495 4.98806L718.34 15.3953L717.474 -17.5904ZM793.919 3.09018L766.609 -13.2686L766.609 -35.2281L812.085 -8.29696L793.93 3.07987L793.919 3.09018ZM817.023 -102.943L817.023 -78.2292L797.012 -90.5138L796.847 -116.083C805.394 -110.627 814.013 -105.047 817.033 -102.943L817.023 -102.943ZM812.198 -73.99L781.775 -54.5678L817.002 -36.0017L816.693 -12.0309L765.073 -43.2116L760.557 -45.9345L760.475 -45.9862L744.392 -55.5168L793.95 -85.1914L812.198 -73.99ZM741.619 -143.726L760.465 -131.648L760.465 -102.21L741.619 -91.2255L741.619 -143.736L741.619 -143.726ZM741.619 -84.1291L791.146 -113.629L790.899 -90.5241L741.619 -61.0143L741.619 -84.1291ZM741.619 -50.0191L760.465 -38.8691L760.465 18.1287L741.619 5.07052L741.619 -50.0294L741.619 -50.0191ZM756.32 22.2752L738.546 33.2188L719.566 21.8213L738.526 10.331L756.32 22.2752ZM738.392 -55.5064L738.454 -55.4033L738.33 -55.4033L738.392 -55.5064ZM686.029 -113.598L716.515 -96.95L717.443 -133.267L735.484 -143.943L735.484 -60.7771L685.308 -90.4931L686.019 -113.598L686.029 -113.598ZM682.266 -85.1812L732.392 -55.4858L714.247 -44.6247L664.967 -74.1344L682.256 -85.1812L682.266 -85.1812ZM660.606 -104.346L679.751 -115.258L679.163 -90.4106L660.596 -78.1158L660.596 -104.356L660.606 -104.346Z" fill="#AB31AA"/>
<path d="M738.454 -55.4033L738.392 -55.5064L738.33 -55.4033L738.454 -55.4033ZM714.247 -37.4664L715.525 -38.2297L714.236 -37.4664L714.247 -37.4664Z" fill="#AB31AA"/>
<path d="M738.33 -55.4033L738.392 -55.5064L738.454 -55.4033L738.33 -55.4033Z" fill="#AB31AA"/>
<path d="M760.557 -45.9345L765.094 -43.2528L765.073 -43.2116L760.557 -45.9345Z" fill="#AB31AA"/>
<path d="M738.33 -55.4033L738.392 -55.5064L738.454 -55.4033L738.33 -55.4033Z" fill="#AB31AA"/>
<path d="M738.33 -55.4033L738.392 -55.5064L738.454 -55.4033L738.33 -55.4033Z" fill="#AB31AA"/>
<path d="M853.467 -57.5074L827.549 -42.6236L827.549 -4.46005L854.138 9.51609L883.757 -7.58529L884.252 24.7609L909.263 39.7789L937.357 21.7285L937.357 -6.71889L963.584 9.5883L993.461 -9.14277L993.668 -9.14277L994.07 -40.5092L964.79 -55.9396L994.647 -75.0111L994.647 -106.316L993.018 -107.77C991.173 -109.42 973.1 -120.931 967.615 -124.417L937.357 -106.769L937.357 -136.052L909.304 -154.041L882.015 -137.888L881.252 -108.141L850.457 -123.438L824.941 -108.905L824.941 -74.9492L853.457 -57.4971L853.467 -57.5074ZM832.704 -38.4875L859.457 -53.8355L878.942 -41.9016L832.704 -14.2175L832.704 -38.4875ZM888.097 -18.3639L853.911 2.44034L833.786 -8.1423L884.86 -38.3018L886.149 -39.0651L886.448 -39.2404L906.16 -51.0506L906.16 4.26603L888.963 14.694L888.097 -18.3742L888.097 -18.3639ZM964.739 2.36815L937.357 -14.0318L937.357 -36.043L982.946 -9.03962L964.739 2.36815ZM987.905 -103.923L987.905 -79.1472L967.842 -91.4627L967.677 -117.094C976.244 -111.628 984.884 -106.027 987.915 -103.923L987.905 -103.923ZM983.059 -74.9079L952.563 -55.4342L987.884 -36.8165L987.575 -12.7941L935.82 -44.047L931.295 -46.7803L931.212 -46.8319L915.088 -56.3831L964.77 -86.1301L983.069 -74.8976L983.059 -74.9079ZM912.315 -144.809L931.212 -132.7L931.212 -103.19L912.315 -92.1744L912.315 -144.809ZM912.315 -85.0677L961.966 -114.639L961.718 -91.4833L912.315 -61.9014L912.315 -85.0677ZM912.315 -50.8752L931.212 -39.6943L931.212 17.4479L912.315 4.35887L912.315 -50.8752ZM927.047 21.6047L909.232 32.569L890.201 21.1509L909.211 9.62962L927.047 21.6047ZM909.067 -56.3728L909.129 -56.2697L909.005 -56.2697L909.067 -56.3728ZM856.581 -114.619L887.149 -97.9299L888.077 -134.34L906.17 -145.046L906.17 -61.6745L855.87 -91.4627L856.581 -114.619ZM852.808 -86.1198L903.057 -56.3522L884.87 -45.4601L835.467 -75.042L852.797 -86.1198L852.808 -86.1198ZM831.096 -105.336L850.292 -116.269L849.704 -91.3596L831.096 -79.0337L831.096 -105.336Z" fill="#AB31AA"/>
<path d="M909.129 -56.2697L909.067 -56.3728L909.005 -56.2697L909.129 -56.2697ZM884.87 -38.2915L886.159 -39.0651L884.87 -38.3018L884.87 -38.2915Z" fill="#AB31AA"/>
<path d="M909.005 -56.2697L909.067 -56.3728L909.129 -56.2697L909.005 -56.2697Z" fill="#AB31AA"/>
<path d="M931.295 -46.7803L935.841 -44.0883L935.82 -44.047L931.295 -46.7803Z" fill="#AB31AA"/>
<path d="M909.005 -56.2697L909.067 -56.3728L909.129 -56.2697L909.005 -56.2697Z" fill="#AB31AA"/>
<path d="M909.005 -56.2697L909.067 -56.3728L909.129 -56.2697L909.005 -56.2697Z" fill="#AB31AA"/>
<path d="M343.782 -57.5075L317.688 -42.5205L317.688 -4.08876L344.462 9.98022L374.288 -7.23469L374.783 25.3282L399.969 40.4492L428.259 22.2751L428.259 -6.36823L454.672 10.0524L484.765 -8.80242L484.972 -8.80242L485.374 -40.3854L455.888 -55.9191L485.951 -75.1246L485.951 -106.646L484.312 -108.11C482.456 -109.771 464.249 -121.364 458.723 -124.882L428.259 -107.11L428.259 -136.599L400.01 -154.711L372.525 -138.445L371.762 -108.492L340.751 -123.902L315.059 -109.266L315.059 -75.073L343.782 -57.4971L343.782 -57.5075ZM322.874 -38.3535L349.813 -53.8148L369.432 -41.7985L322.864 -13.9184L322.864 -38.3535L322.874 -38.3535ZM378.659 -18.0855L344.235 2.86327L323.967 -7.79164L375.401 -38.1575L376.999 -39.0961L396.845 -50.9887L396.845 4.70953L379.525 15.2097L378.649 -18.0855L378.659 -18.0855ZM455.837 2.7807L428.259 -13.7328L428.259 -35.8986L474.167 -8.70959L455.837 2.7807ZM479.157 -104.253L479.157 -79.3019L458.95 -91.6999L458.775 -117.517C467.394 -112.009 476.095 -106.367 479.147 -104.253L479.157 -104.253ZM474.281 -75.0317L443.568 -55.4239L479.137 -36.6825L478.827 -12.4847L422.155 -46.7184L422.073 -46.77L405.835 -56.3935L455.868 -86.3467L474.291 -75.042L474.281 -75.0317ZM403.041 -145.428L422.073 -133.226L422.073 -103.51L403.041 -92.4219L403.041 -145.428ZM403.041 -85.2637L453.043 -115.042L452.795 -91.7206L403.041 -61.9323L403.041 -85.2637ZM403.041 -50.8237L422.073 -39.5602L422.073 17.9843L403.041 4.80237L403.041 -50.8237ZM417.877 22.1513L399.928 33.1981L380.773 21.6974L399.918 10.0937L417.877 22.1513ZM399.773 -56.3626L399.835 -56.2594L399.711 -56.2594L399.773 -56.3626ZM346.916 -115.021L377.7 -98.2187L378.639 -134.887L396.856 -145.665L396.856 -61.7054L346.205 -91.7L346.926 -115.021L346.916 -115.021ZM343.112 -86.3261L393.721 -56.3522L375.401 -45.3879L325.658 -75.1762L343.112 -86.3261ZM321.255 -105.676L340.586 -116.692L339.998 -91.6071L321.255 -79.1885L321.255 -105.676Z" fill="#AB31AA"/>
<path d="M399.835 -56.2594L399.773 -56.3626L399.711 -56.2594L399.835 -56.2594ZM375.401 -38.1575L376.69 -38.931L375.391 -38.1678L375.401 -38.1575Z" fill="#AB31AA"/>
<path d="M399.711 -56.2594L399.773 -56.3626L399.835 -56.2594L399.711 -56.2594Z" fill="#AB31AA"/>
<path d="M422.155 -46.7081L426.733 -43.9954L426.712 -43.9542L422.155 -46.7081Z" fill="#AB31AA"/>
<path d="M399.711 -56.2594L399.773 -56.3626L399.835 -56.2594L399.711 -56.2594Z" fill="#AB31AA"/>
<path d="M399.711 -56.2594L399.773 -56.3626L399.835 -56.2594L399.711 -56.2594Z" fill="#AB31AA"/>
<path d="M514.045 -57.5074L488.312 -42.7371L488.312 -4.85198L514.705 9.021L544.108 -7.95666L544.592 24.1523L569.428 39.0568L597.326 21.1302L597.326 -7.11089L623.368 9.07253L653.039 -9.52446L653.245 -9.52446L653.637 -40.6639L624.564 -55.9809L654.204 -74.9183L654.204 -105.996L652.585 -107.44C650.75 -109.07 632.811 -120.508 627.358 -123.974L597.315 -106.46L597.315 -135.526L569.469 -153.391L542.375 -137.352L541.623 -107.821L511.045 -123.004L485.714 -108.574L485.714 -74.8668L514.034 -57.5383L514.045 -57.5074ZM493.426 -38.6216L519.983 -53.8664L539.334 -42.0254L493.426 -14.5373L493.426 -38.632L493.426 -38.6216ZM548.427 -18.6424L514.488 2.01746L494.508 -8.49298L545.221 -38.436L546.499 -39.1889L546.798 -39.3642L566.366 -51.0815L566.366 3.83284L549.293 14.1885L548.427 -18.6424ZM624.522 1.93495L597.336 -14.3413L597.336 -36.1977L642.595 -9.39036L624.522 1.93495ZM647.513 -103.593L647.513 -78.9925L627.595 -91.2151L627.43 -116.661C635.935 -111.236 644.513 -105.676 647.513 -103.582L647.513 -103.593ZM642.708 -74.7738L612.429 -55.4446L647.492 -36.961L647.183 -13.1036L595.8 -44.1398L591.305 -46.8525L591.222 -46.9041L575.212 -56.3831L624.543 -85.9238L642.708 -74.7738ZM572.469 -144.18L591.233 -132.153L591.233 -102.85L572.469 -91.9166L572.469 -144.18ZM572.469 -84.8615L621.77 -114.216L621.522 -91.2255L572.469 -61.8601L572.469 -84.8615ZM572.469 -50.9165L591.233 -39.818L591.233 16.9219L572.469 3.92561L572.469 -50.9165ZM587.088 21.0374L569.397 31.9295L550.51 20.5939L569.387 9.1551L587.099 21.0477L587.088 21.0374ZM569.242 -56.3728L569.304 -56.2697L569.18 -56.2697L569.242 -56.3728ZM517.127 -114.206L547.468 -97.641L548.396 -133.793L566.356 -144.428L566.356 -61.6539L516.416 -91.2255L517.127 -114.216L517.127 -114.206ZM513.385 -85.9135L563.273 -56.3625L545.211 -45.5529L496.168 -74.9183L513.375 -85.9135L513.385 -85.9135ZM491.828 -104.995L510.89 -115.856L510.313 -91.1223L491.838 -78.879L491.838 -104.995L491.828 -104.995Z" fill="#AB31AA"/>
<path d="M569.304 -56.28L569.242 -56.3831L569.18 -56.28L569.304 -56.28ZM545.221 -38.4256L546.499 -39.1889L545.221 -38.436L545.221 -38.4256Z" fill="#AB31AA"/>
<path d="M569.18 -56.28L569.242 -56.3728L569.304 -56.28L569.18 -56.28Z" fill="#AB31AA"/>
<path d="M591.305 -46.8525L595.831 -44.1811L595.8 -44.1398L591.305 -46.8525Z" fill="#AB31AA"/>
<path d="M569.18 -56.28L569.242 -56.3728L569.304 -56.28L569.18 -56.28Z" fill="#AB31AA"/>
<path d="M569.18 -56.28L569.242 -56.3728L569.304 -56.28L569.18 -56.28Z" fill="#AB31AA"/>
<path d="M89.2587 -200.796L63.2166 -185.84L63.2166 -147.491L89.9288 -133.443L119.693 -150.627L120.187 -118.126L145.322 -103.036L173.56 -121.179L173.56 -149.76L199.922 -133.371L229.954 -152.194L230.16 -152.194L230.562 -183.715L201.138 -199.218L231.139 -218.382L231.139 -249.842L229.5 -251.306C227.644 -252.957 209.479 -264.529 203.963 -268.036L173.56 -250.306L173.56 -279.733L145.374 -297.814L117.95 -281.579L117.187 -251.688L86.238 -267.057L60.598 -252.451L60.598 -218.331L89.2587 -200.796ZM68.392 -181.684L95.2795 -197.114L114.868 -185.129L68.4024 -157.3L68.4024 -181.684L68.392 -181.684ZM124.054 -161.457L89.702 -140.549L69.4746 -151.184L120.806 -181.488L122.105 -182.251L122.404 -182.426L142.209 -194.288L142.209 -138.703L124.93 -128.224L124.054 -161.447L124.054 -161.457ZM201.087 -140.622L173.571 -157.104L173.571 -179.229L219.386 -152.091L201.097 -140.632L201.087 -140.622ZM224.356 -247.438L224.356 -222.539L204.19 -234.917L204.025 -260.682C212.634 -255.185 221.314 -249.563 224.356 -247.438ZM219.489 -218.279L188.839 -198.713L224.335 -180.013L224.026 -155.866L167.467 -190.018L167.385 -190.069L151.178 -199.672L201.107 -229.574L219.489 -218.29L219.489 -218.279ZM148.395 -288.531L167.385 -276.36L167.385 -246.706L148.395 -235.639L148.395 -288.542L148.395 -288.531ZM148.395 -228.491L198.293 -258.207L198.045 -234.937L148.395 -205.211L148.395 -228.491ZM148.395 -194.123L167.385 -182.88L167.385 -125.449L148.395 -138.6L148.395 -194.123ZM163.199 -121.292L145.291 -110.266L126.167 -121.746L145.271 -133.329L163.199 -121.292ZM145.137 -199.651L145.198 -199.548L145.075 -199.548L145.137 -199.651ZM92.3825 -258.186L123.095 -241.415L124.033 -278L142.209 -288.758L142.209 -204.974L91.6608 -234.906L92.3825 -258.176L92.3825 -258.186ZM88.5886 -229.543L139.095 -199.631L120.816 -188.687L71.1757 -218.413L88.5989 -229.543L88.5886 -229.543ZM66.7735 -248.862L86.0627 -259.857L85.4751 -234.824L66.7735 -222.436L66.7735 -248.872L66.7735 -248.862Z" fill="#AB31AA"/>
<path d="M145.198 -199.548L145.137 -199.651L145.075 -199.548L145.198 -199.548ZM120.816 -181.477L122.105 -182.251L120.806 -181.488L120.816 -181.477Z" fill="#AB31AA"/>
<path d="M145.075 -199.548L145.137 -199.651L145.198 -199.548L145.075 -199.548Z" fill="#AB31AA"/>
<path d="M167.467 -190.007L172.045 -187.305L172.014 -187.264L167.467 -190.007Z" fill="#AB31AA"/>
<path d="M145.075 -199.548L145.137 -199.651L145.198 -199.548L145.075 -199.548Z" fill="#AB31AA"/>
<path d="M145.075 -199.548L145.137 -199.651L145.198 -199.548L145.075 -199.548Z" fill="#AB31AA"/>
<path d="M599.594 -199.92L573.748 -185.077L573.748 -147.006L600.264 -133.071L629.811 -150.121L630.306 -117.857L655.255 -102.881L683.287 -120.89L683.287 -149.265L709.453 -132.999L739.258 -151.679L739.464 -151.679L739.866 -182.962L710.659 -198.352L740.443 -217.382L740.443 -248.604L738.814 -250.058C736.969 -251.698 718.948 -263.189 713.474 -266.665L683.287 -249.068L683.287 -278.279L655.307 -296.226L628.089 -280.115L627.327 -250.45L596.604 -265.705L571.15 -251.203L571.15 -217.33L599.604 -199.92L599.594 -199.92ZM578.882 -180.951L605.563 -196.268L625.007 -184.365L578.882 -156.743L578.882 -180.951ZM634.141 -160.869L600.037 -140.116L579.964 -150.668L630.914 -180.745L632.203 -181.508L632.502 -181.684L652.162 -193.463L652.162 -138.291L635.007 -127.883L634.141 -160.869ZM710.587 -140.199L683.277 -156.557L683.277 -178.517L728.752 -151.586L710.597 -140.209L710.587 -140.199ZM733.691 -246.221L733.691 -221.508L713.68 -233.792L713.515 -259.362C722.061 -253.906 730.68 -248.325 733.701 -246.221L733.691 -246.221ZM728.866 -217.279L698.442 -197.857L733.67 -179.291L733.361 -155.32L681.741 -186.5L677.225 -189.223L677.142 -189.275L661.06 -198.806L710.618 -228.48L728.866 -217.279ZM658.297 -287.005L677.143 -274.926L677.143 -245.489L658.297 -234.504L658.297 -287.015L658.297 -287.005ZM658.297 -227.408L707.824 -256.907L707.576 -233.803L658.297 -204.293L658.297 -227.408ZM658.297 -193.298L677.142 -182.148L677.142 -125.15L658.297 -138.208L658.297 -193.308L658.297 -193.298ZM672.988 -121.014L655.214 -110.07L636.234 -121.468L655.193 -132.958L672.988 -121.014ZM655.059 -198.785L655.121 -198.682L654.998 -198.682L655.059 -198.785ZM602.697 -256.886L633.182 -240.239L634.11 -276.556L652.152 -287.232L652.152 -204.066L601.975 -233.782L602.687 -256.886L602.697 -256.886ZM598.934 -228.46L649.059 -198.764L630.914 -187.903L581.634 -217.413L598.924 -228.46L598.934 -228.46ZM577.274 -247.634L596.418 -258.547L595.831 -233.699L577.263 -221.405L577.263 -247.645L577.274 -247.634Z" fill="#AB31AA"/>
<path d="M655.121 -198.692L655.059 -198.795L654.998 -198.692L655.121 -198.692ZM630.914 -180.745L632.193 -181.508L630.904 -180.745L630.914 -180.745Z" fill="#AB31AA"/>
<path d="M654.998 -198.692L655.059 -198.785L655.121 -198.692L654.998 -198.692Z" fill="#AB31AA"/>
<path d="M677.225 -189.223L681.761 -186.531L681.741 -186.5L677.225 -189.223Z" fill="#AB31AA"/>
<path d="M654.998 -198.692L655.059 -198.785L655.121 -198.692L654.998 -198.692Z" fill="#AB31AA"/>
<path d="M654.998 -198.692L655.059 -198.785L655.121 -198.692L654.998 -198.692Z" fill="#AB31AA"/>
<path d="M770.135 -200.796L744.217 -185.912L744.217 -147.749L770.805 -133.773L800.425 -150.874L800.919 -118.528L825.931 -103.51L854.024 -121.56L854.024 -150.008L880.252 -133.701L910.129 -152.432L910.335 -152.432L910.737 -183.798L881.458 -199.228L911.315 -218.3L911.315 -249.604L909.686 -251.059C907.84 -252.709 889.768 -264.22 884.283 -267.706L854.024 -250.058L854.024 -279.341L825.972 -297.329L798.682 -281.177L797.919 -251.43L767.125 -266.726L741.608 -252.193L741.608 -218.238L770.125 -200.786L770.135 -200.796ZM749.371 -181.776L776.125 -197.124L795.61 -185.19L749.371 -157.506L749.371 -181.776ZM804.765 -161.642L770.578 -140.838L750.454 -151.421L801.528 -181.58L802.816 -182.344L803.115 -182.519L822.827 -194.329L822.827 -139.012L805.631 -128.585L804.765 -161.653L804.765 -161.642ZM881.406 -140.921L854.024 -157.321L854.024 -179.332L899.613 -152.328L881.406 -140.921ZM904.572 -247.211L904.572 -222.436L884.51 -234.751L884.345 -260.383C892.912 -254.916 901.551 -249.316 904.582 -247.211L904.572 -247.211ZM899.727 -218.186L869.231 -198.713L904.551 -180.095L904.242 -156.073L847.962 -190.059L847.88 -190.11L831.755 -199.662L881.437 -229.409L899.737 -218.176L899.727 -218.186ZM828.982 -288.098L847.88 -275.989L847.88 -246.479L828.982 -235.463L828.982 -288.098ZM828.982 -228.346L878.633 -257.918L878.386 -234.762L828.982 -205.18L828.982 -228.346ZM828.982 -194.154L847.88 -182.973L847.88 -125.831L828.982 -138.92L828.982 -194.154ZM843.715 -121.684L825.9 -110.72L806.868 -122.138L825.879 -133.659L843.715 -121.684ZM825.735 -199.651L825.797 -199.548L825.673 -199.548L825.735 -199.651ZM773.249 -257.897L803.816 -241.208L804.744 -277.618L822.838 -288.325L822.838 -204.953L772.537 -234.741L773.249 -257.897ZM769.475 -229.409L819.724 -199.641L801.538 -188.749L752.135 -218.331L769.465 -229.409L769.475 -229.409ZM747.763 -248.624L766.96 -259.558L766.372 -234.648L747.763 -222.323L747.763 -248.624Z" fill="#AB31AA"/>
<path d="M825.797 -199.558L825.735 -199.662L825.673 -199.558L825.797 -199.558ZM801.538 -181.57L802.827 -182.344L801.538 -181.58L801.538 -181.57Z" fill="#AB31AA"/>
<path d="M825.673 -199.558L825.735 -199.651L825.797 -199.558L825.673 -199.558Z" fill="#AB31AA"/>
<path d="M847.962 -190.059L852.509 -187.367L852.488 -187.336L847.962 -190.059Z" fill="#AB31AA"/>
<path d="M825.673 -199.558L825.735 -199.651L825.797 -199.558L825.673 -199.558Z" fill="#AB31AA"/>
<path d="M825.673 -199.558L825.735 -199.651L825.797 -199.558L825.673 -199.558Z" fill="#AB31AA"/>
<path d="M260.449 -200.796L234.356 -185.809L234.356 -147.378L261.13 -133.309L290.956 -150.523L291.45 -117.961L316.637 -102.84L344.926 -121.014L344.926 -149.657L371.339 -133.236L401.433 -152.091L401.639 -152.091L402.041 -183.674L372.556 -199.208L402.619 -218.413L402.619 -249.934L400.98 -251.399C399.124 -253.06 380.917 -264.653 375.391 -268.17L344.926 -250.399L344.926 -279.888L316.678 -298L289.193 -281.734L288.43 -251.781L257.418 -267.191L231.727 -252.554L231.727 -218.362L260.449 -200.786L260.449 -200.796ZM239.542 -181.642L266.481 -197.104L286.1 -185.087L239.531 -157.207L239.531 -181.642L239.542 -181.642ZM295.327 -161.374L260.903 -140.426L240.634 -151.08L292.069 -181.446L293.667 -182.385L313.513 -194.277L313.513 -138.579L296.193 -128.079L295.316 -161.374L295.327 -161.374ZM372.504 -140.498L344.926 -157.011L344.926 -179.177L390.835 -151.988L372.504 -140.498ZM395.825 -247.531L395.825 -222.58L375.618 -234.978L375.443 -260.796C384.061 -255.288 392.763 -249.646 395.814 -247.531L395.825 -247.531ZM390.948 -218.31L360.236 -198.702L395.804 -179.961L395.495 -155.763L343.38 -187.243L338.823 -189.997L338.74 -190.049L322.503 -199.672L372.535 -229.625L390.959 -218.321L390.948 -218.31ZM319.709 -288.707L338.74 -276.505L338.74 -246.789L319.709 -235.701L319.709 -288.707ZM319.709 -228.542L369.711 -258.32L369.463 -234.999L319.709 -205.211L319.709 -228.542ZM319.709 -194.112L338.74 -182.849L338.74 -125.305L319.709 -138.486L319.709 -194.112ZM334.544 -121.127L316.595 -110.08L297.44 -121.581L316.585 -133.185L334.544 -121.127ZM316.441 -199.651L316.503 -199.548L316.379 -199.548L316.441 -199.651ZM263.584 -258.3L294.368 -241.497L295.306 -278.165L313.523 -288.944L313.523 -204.984L262.872 -234.978L263.594 -258.3L263.584 -258.3ZM259.779 -229.605L310.389 -199.631L292.069 -188.666L242.325 -218.455L259.779 -229.605ZM237.923 -248.965L257.253 -259.981L256.666 -234.896L237.923 -222.477L237.923 -248.965Z" fill="#AB31AA"/>
<path d="M316.503 -199.548L316.441 -199.651L316.379 -199.548L316.503 -199.548ZM292.069 -181.436L293.358 -182.21L292.059 -181.446L292.069 -181.436Z" fill="#AB31AA"/>
<path d="M316.379 -199.548L316.441 -199.651L316.503 -199.548L316.379 -199.548Z" fill="#AB31AA"/>
<path d="M338.823 -189.987L343.4 -187.284L343.38 -187.243L338.823 -189.987Z" fill="#AB31AA"/>
<path d="M316.379 -199.548L316.441 -199.651L316.503 -199.548L316.379 -199.548Z" fill="#AB31AA"/>
<path d="M316.379 -199.548L316.441 -199.651L316.503 -199.548L316.379 -199.548Z" fill="#AB31AA"/>
<path d="M430.712 -200.786L404.98 -186.016L404.98 -148.13L431.372 -134.258L460.775 -151.235L461.26 -119.126L486.096 -104.222L513.993 -122.148L513.993 -150.389L540.035 -134.206L569.706 -152.803L569.912 -152.803L570.304 -183.942L541.231 -199.259L570.871 -218.197L570.871 -249.274L569.253 -250.718C567.418 -252.348 549.479 -263.787 544.025 -267.252L513.983 -249.739L513.983 -278.805L486.137 -296.669L459.043 -280.63L458.29 -251.1L427.712 -266.283L402.382 -251.853L402.382 -218.145L430.702 -200.817L430.712 -200.786ZM410.093 -181.91L436.651 -197.155L456.002 -185.314L410.093 -157.826L410.093 -181.921L410.093 -181.91ZM465.095 -161.921L431.156 -141.261L411.176 -151.772L461.889 -181.714L463.167 -182.467L463.466 -182.643L483.034 -194.36L483.034 -139.446L465.961 -129.09L465.095 -161.921ZM541.19 -141.344L514.003 -157.62L514.003 -179.476L559.263 -152.669L541.19 -141.344ZM564.18 -246.871L564.18 -222.271L544.262 -234.494L544.097 -259.94C552.603 -254.514 561.18 -248.955 564.18 -246.861L564.18 -246.871ZM559.376 -218.063L529.097 -198.733L564.16 -180.25L563.85 -156.392L507.972 -190.141L507.89 -190.193L491.879 -199.672L541.211 -229.213L559.376 -218.063ZM489.137 -287.469L507.9 -275.442L507.9 -246.139L489.137 -235.205L489.137 -287.469ZM489.137 -228.15L538.437 -257.505L538.19 -234.514L489.137 -205.149L489.137 -228.15ZM489.137 -194.195L507.9 -183.097L507.9 -126.357L489.137 -139.353L489.137 -194.195ZM503.756 -122.251L486.065 -111.359L467.177 -122.695L486.054 -134.134L503.766 -122.241L503.756 -122.251ZM485.91 -199.662L485.972 -199.559L485.848 -199.559L485.91 -199.662ZM433.795 -257.485L464.136 -240.92L465.064 -277.072L483.023 -287.706L483.023 -204.932L433.084 -234.504L433.795 -257.495L433.795 -257.485ZM430.053 -229.192L479.941 -199.641L461.878 -188.831L412.836 -218.197L430.042 -229.192L430.053 -229.192ZM408.495 -248.274L427.558 -259.135L426.98 -234.401L408.506 -222.158L408.506 -248.274L408.495 -248.274Z" fill="#AB31AA"/>
<path d="M485.972 -199.559L485.91 -199.662L485.848 -199.559L485.972 -199.559ZM461.889 -181.704L463.167 -182.467L461.889 -181.714L461.889 -181.704Z" fill="#AB31AA"/>
<path d="M485.848 -199.559L485.91 -199.662L485.972 -199.559L485.848 -199.559Z" fill="#AB31AA"/>
<path d="M507.972 -190.141L512.498 -187.47L512.478 -187.429L507.972 -190.141Z" fill="#AB31AA"/>
<path d="M485.848 -199.559L485.91 -199.662L485.972 -199.559L485.848 -199.559Z" fill="#AB31AA"/>
<path d="M485.848 -199.559L485.91 -199.662L485.972 -199.559L485.848 -199.559Z" fill="#AB31AA"/>
</g>
</svg>
