<svg width="731" height="370" viewBox="0 0 731 370" fill="none" xmlns="http://www.w3.org/2000/svg">
<g clip-path="url(#clip0_223_774)">
<rect width="731" height="370" fill="white"/>
<path d="M725.37 78.8312L777.191 47.9489V-31.2249L724.021 -60.2315L664.793 -24.7526L663.8 -91.8535L613.761 -123L557.562 -85.5397V-26.5226L505.104 -60.3636L445.342 -21.5032H444.934L444.145 43.5636L502.712 75.5818L443 115.156V180.117L446.258 183.128C449.949 186.536 486.091 210.444 497.061 217.683L557.587 181.068V241.828L613.685 279.157L668.255 245.633L669.782 183.921L731.377 215.648L782.409 185.479V115.023L725.37 78.8048V78.8312ZM766.909 39.3632L713.407 71.2229L674.44 46.4695L766.909 -10.989V39.3632ZM656.114 -2.4032L724.479 -45.5697L764.72 -23.6166L662.579 38.9669L660.008 40.552L659.397 40.9218L619.971 65.411V-49.3475L654.358 -70.9836L656.088 -2.37679L656.114 -2.4032ZM502.813 -45.3848L557.587 -11.3588V34.3174L466.416 -21.7145L502.813 -45.3848ZM456.49 175.15V123.741L496.628 149.287L496.959 202.466C479.83 191.133 462.547 179.509 456.49 175.124V175.15ZM466.187 114.944L527.171 74.5515L456.541 35.9289L457.152 -13.9213L560.667 50.9341L569.728 56.5875L569.906 56.6932L602.155 76.5065L502.788 138.218L466.187 114.918V114.944ZM607.678 259.977L569.881 234.854V173.618L607.678 150.767V259.977ZM607.678 135.999L508.362 197.367L508.846 149.314L607.652 87.9453V135.999H607.678ZM607.678 65.0676L569.881 41.8729V-76.7162L607.678 -49.5588V65.0412V65.0676ZM578.229 -85.3019L613.863 -108.048L651.914 -84.3509L613.888 -60.4429L578.229 -85.3019ZM614.168 76.4801L614.041 76.2687H614.295L614.168 76.4801ZM719.134 197.315L657.997 162.681L656.139 238.236L619.971 260.453V87.4698L720.56 149.287L719.134 197.341V197.315ZM726.694 138.192L626.182 76.4272L662.553 53.8401L761.36 115.208L726.694 138.192ZM770.116 178.083L731.733 200.775L732.904 149.076L770.116 123.504V178.083Z" fill="#AB31AA"/>
<path d="M61.6761 274.364L72.223 307.517H72.6278L83.196 274.364H93.4233L78.3807 318H66.4915L51.4276 274.364H61.6761ZM98.505 318V285.273H107.582V318H98.505ZM103.065 281.054C101.715 281.054 100.558 280.607 99.5916 279.712C98.6399 278.803 98.1641 277.716 98.1641 276.452C98.1641 275.202 98.6399 274.129 99.5916 273.234C100.558 272.325 101.715 271.871 103.065 271.871C104.414 271.871 105.565 272.325 106.516 273.234C107.482 274.129 107.965 275.202 107.965 276.452C107.965 277.716 107.482 278.803 106.516 279.712C105.565 280.607 104.414 281.054 103.065 281.054ZM126.912 318.533C124.426 318.533 122.175 317.893 120.158 316.615C118.155 315.322 116.564 313.426 115.385 310.926C114.221 308.412 113.638 305.33 113.638 301.679C113.638 297.929 114.242 294.811 115.449 292.325C116.657 289.825 118.262 287.957 120.265 286.722C122.282 285.472 124.49 284.847 126.891 284.847C128.723 284.847 130.25 285.159 131.472 285.784C132.708 286.395 133.702 287.162 134.455 288.085C135.222 288.994 135.804 289.889 136.202 290.77H136.479V274.364H145.534V318H136.586V312.759H136.202C135.776 313.668 135.172 314.57 134.391 315.464C133.624 316.345 132.623 317.077 131.387 317.659C130.165 318.241 128.674 318.533 126.912 318.533ZM129.789 311.31C131.252 311.31 132.488 310.912 133.496 310.116C134.519 309.307 135.3 308.178 135.84 306.729C136.394 305.28 136.671 303.582 136.671 301.636C136.671 299.69 136.401 298 135.861 296.565C135.321 295.131 134.54 294.023 133.517 293.241C132.495 292.46 131.252 292.07 129.789 292.07C128.297 292.07 127.04 292.474 126.017 293.284C124.995 294.094 124.221 295.216 123.695 296.651C123.169 298.085 122.907 299.747 122.907 301.636C122.907 303.54 123.169 305.223 123.695 306.686C124.235 308.135 125.009 309.271 126.017 310.095C127.04 310.905 128.297 311.31 129.789 311.31ZM167.912 318.639C164.545 318.639 161.648 317.957 159.219 316.594C156.804 315.216 154.943 313.27 153.636 310.756C152.33 308.227 151.676 305.237 151.676 301.786C151.676 298.419 152.33 295.464 153.636 292.922C154.943 290.379 156.783 288.398 159.155 286.977C161.541 285.557 164.339 284.847 167.55 284.847C169.709 284.847 171.719 285.195 173.58 285.891C175.455 286.572 177.088 287.602 178.48 288.98C179.886 290.358 180.98 292.091 181.761 294.179C182.543 296.253 182.933 298.682 182.933 301.466V303.959H155.298V298.334H174.389C174.389 297.027 174.105 295.869 173.537 294.861C172.969 293.852 172.18 293.064 171.172 292.496C170.178 291.913 169.02 291.622 167.699 291.622C166.321 291.622 165.099 291.942 164.034 292.581C162.983 293.206 162.159 294.051 161.562 295.116C160.966 296.168 160.661 297.339 160.646 298.632V303.98C160.646 305.599 160.945 306.999 161.541 308.178C162.152 309.357 163.011 310.266 164.119 310.905C165.227 311.544 166.541 311.864 168.061 311.864C169.07 311.864 169.993 311.722 170.831 311.438C171.669 311.153 172.386 310.727 172.983 310.159C173.58 309.591 174.034 308.895 174.347 308.071L182.741 308.625C182.315 310.642 181.442 312.403 180.121 313.909C178.814 315.401 177.124 316.565 175.05 317.403C172.99 318.227 170.611 318.639 167.912 318.639ZM203.643 318.639C200.334 318.639 197.472 317.936 195.057 316.53C192.656 315.109 190.803 313.135 189.496 310.607C188.189 308.064 187.536 305.116 187.536 301.764C187.536 298.384 188.189 295.429 189.496 292.901C190.803 290.358 192.656 288.384 195.057 286.977C197.472 285.557 200.334 284.847 203.643 284.847C206.953 284.847 209.808 285.557 212.209 286.977C214.624 288.384 216.484 290.358 217.791 292.901C219.098 295.429 219.751 298.384 219.751 301.764C219.751 305.116 219.098 308.064 217.791 310.607C216.484 313.135 214.624 315.109 212.209 316.53C209.808 317.936 206.953 318.639 203.643 318.639ZM203.686 311.608C205.192 311.608 206.449 311.182 207.457 310.33C208.466 309.463 209.226 308.284 209.737 306.793C210.263 305.301 210.526 303.604 210.526 301.7C210.526 299.797 210.263 298.099 209.737 296.608C209.226 295.116 208.466 293.937 207.457 293.071C206.449 292.205 205.192 291.771 203.686 291.771C202.166 291.771 200.888 292.205 199.851 293.071C198.828 293.937 198.054 295.116 197.528 296.608C197.017 298.099 196.761 299.797 196.761 301.7C196.761 303.604 197.017 305.301 197.528 306.793C198.054 308.284 198.828 309.463 199.851 310.33C200.888 311.182 202.166 311.608 203.686 311.608Z" fill="#AB31AA"/>
<path d="M53.3026 212.364H66.3636L77.4432 239.381H77.9545L89.0341 212.364H102.095V256H91.8253V229.196H91.4631L80.9801 255.723H74.4176L63.9347 229.047H63.5724V256H53.3026V212.364ZM118.113 256H106.777L121.5 212.364H135.542L150.265 256H138.929L128.681 223.358H128.34L118.113 256ZM116.6 238.827H140.293V246.838H116.6V238.827ZM171.092 256H154.963V212.364H171.071C175.517 212.364 179.345 213.237 182.555 214.984C185.779 216.717 188.265 219.217 190.012 222.484C191.76 225.737 192.633 229.629 192.633 234.161C192.633 238.706 191.76 242.612 190.012 245.879C188.279 249.146 185.801 251.653 182.576 253.401C179.352 255.134 175.524 256 171.092 256ZM165.51 247.009H170.687C173.13 247.009 175.197 246.597 176.887 245.773C178.592 244.935 179.877 243.578 180.744 241.703C181.625 239.814 182.065 237.3 182.065 234.161C182.065 231.021 181.625 228.521 180.744 226.661C179.863 224.786 178.564 223.436 176.845 222.612C175.14 221.774 173.038 221.355 170.538 221.355H165.51V247.009ZM231.497 238.741L200.645 251.696V242.023L221.014 234.395L220.716 234.885V233.756L221.014 234.224L200.645 226.618V216.923L231.497 229.878V238.741Z" fill="black"/>
<path d="M265.009 300.741L234.156 313.696V304.023L254.526 296.395L254.227 296.885V295.756L254.526 296.224L234.156 288.618V278.923L265.009 291.878V300.741ZM291.221 274.364H301.619V304.534C301.605 307.361 300.93 309.832 299.595 311.949C298.26 314.051 296.413 315.685 294.055 316.849C291.711 318.014 288.998 318.597 285.916 318.597C283.189 318.597 280.71 318.121 278.48 317.169C276.264 316.217 274.495 314.74 273.174 312.737C271.868 310.734 271.221 308.17 271.235 305.045H281.74C281.782 306.168 281.995 307.126 282.379 307.922C282.777 308.703 283.324 309.293 284.02 309.69C284.716 310.088 285.547 310.287 286.512 310.287C287.521 310.287 288.373 310.074 289.069 309.648C289.765 309.207 290.291 308.561 290.646 307.709C291.015 306.857 291.207 305.798 291.221 304.534V274.364ZM317.466 318.554C315.378 318.554 313.524 318.206 311.905 317.51C310.3 316.8 309.028 315.734 308.091 314.314C307.168 312.879 306.706 311.082 306.706 308.923C306.706 307.105 307.026 305.571 307.665 304.321C308.304 303.071 309.185 302.055 310.307 301.274C311.429 300.493 312.722 299.903 314.185 299.506C315.648 299.094 317.21 298.817 318.872 298.675C320.733 298.504 322.232 298.327 323.368 298.142C324.504 297.943 325.328 297.666 325.839 297.311C326.365 296.942 326.628 296.423 326.628 295.756V295.649C326.628 294.555 326.251 293.71 325.499 293.114C324.746 292.517 323.73 292.219 322.452 292.219C321.074 292.219 319.966 292.517 319.128 293.114C318.29 293.71 317.757 294.534 317.53 295.585L307.92 295.244C308.205 293.256 308.936 291.48 310.115 289.918C311.308 288.341 312.942 287.105 315.016 286.21C317.104 285.301 319.611 284.847 322.537 284.847C324.625 284.847 326.55 285.095 328.311 285.592C330.072 286.075 331.607 286.786 332.913 287.723C334.22 288.646 335.229 289.783 335.939 291.132C336.663 292.482 337.026 294.023 337.026 295.756V318H327.224V313.44H326.969C326.386 314.548 325.641 315.486 324.732 316.253C323.837 317.02 322.778 317.595 321.557 317.979C320.349 318.362 318.986 318.554 317.466 318.554ZM320.683 311.736C321.805 311.736 322.814 311.509 323.709 311.054C324.618 310.599 325.342 309.974 325.882 309.179C326.422 308.369 326.692 307.432 326.692 306.366V303.256C326.393 303.412 326.031 303.554 325.605 303.682C325.193 303.81 324.739 303.93 324.241 304.044C323.744 304.158 323.233 304.257 322.707 304.342C322.182 304.428 321.678 304.506 321.195 304.577C320.214 304.733 319.376 304.974 318.68 305.301C317.999 305.628 317.473 306.054 317.104 306.58C316.749 307.091 316.571 307.702 316.571 308.412C316.571 309.491 316.955 310.315 317.722 310.884C318.503 311.452 319.49 311.736 320.683 311.736ZM343.396 318V285.273H353.304V291.281H353.666C354.348 289.293 355.499 287.723 357.118 286.572C358.737 285.422 360.669 284.847 362.913 284.847C365.186 284.847 367.132 285.429 368.751 286.594C370.371 287.759 371.401 289.321 371.841 291.281H372.182C372.793 289.335 373.986 287.78 375.761 286.615C377.537 285.436 379.632 284.847 382.047 284.847C385.143 284.847 387.658 285.841 389.589 287.83C391.521 289.804 392.487 292.517 392.487 295.969V318H382.068V298.355C382.068 296.722 381.649 295.479 380.811 294.626C379.973 293.76 378.886 293.327 377.551 293.327C376.116 293.327 374.987 293.795 374.163 294.733C373.354 295.656 372.949 296.899 372.949 298.462V318H362.935V298.249C362.935 296.729 362.523 295.528 361.699 294.648C360.875 293.767 359.788 293.327 358.439 293.327C357.53 293.327 356.727 293.547 356.031 293.987C355.335 294.413 354.788 295.024 354.391 295.82C354.007 296.615 353.815 297.553 353.815 298.632V318H343.396Z" fill="black"/>
</g>
<rect x="5" y="5" width="721" height="360" stroke="#AB31AA" stroke-width="10"/>
<defs>
<clipPath id="clip0_223_774">
<rect width="731" height="370" fill="white"/>
</clipPath>
</defs>
</svg>
