<svg width="78" height="86" viewBox="0 0 78 86" fill="none" xmlns="http://www.w3.org/2000/svg">
<path d="M41.3132 82.8592L41.2703 82.867L40.9934 83.0035L40.9154 83.0191L40.8608 83.0035L40.5839 82.867C40.5423 82.854 40.5111 82.8605 40.4903 82.8865L40.4747 82.9255L40.4084 84.5947L40.4279 84.6727L40.4669 84.7234L40.8725 85.012L40.931 85.0276L40.9778 85.012L41.3834 84.7234L41.4302 84.661L41.4458 84.5947L41.3795 82.9294C41.3691 82.8878 41.347 82.8644 41.3132 82.8592ZM42.3467 82.4185L42.296 82.4263L41.5745 82.789L41.5355 82.828L41.5238 82.8709L41.594 84.5479L41.6135 84.5947L41.6447 84.622L42.4286 84.9847C42.478 84.9977 42.5157 84.9873 42.5417 84.9535L42.5573 84.8989L42.4247 82.5043C42.4117 82.4575 42.3857 82.4289 42.3467 82.4185ZM39.5582 82.4263C39.541 82.4159 39.5204 82.4125 39.5008 82.4169C39.4812 82.4213 39.464 82.433 39.4529 82.4497L39.4295 82.5043L39.2969 84.8989C39.2995 84.9457 39.3216 84.9769 39.3632 84.9925L39.4217 84.9847L40.2056 84.622L40.2446 84.5908L40.2602 84.5479L40.3265 82.8709L40.3148 82.8241L40.2758 82.7851L39.5582 82.4263Z" fill="#AB31AA"/>
<path d="M38.9999 0C60.5395 0 77.9997 17.4602 77.9997 38.9999C78.0052 44.8553 76.6895 50.6366 74.1505 55.913C71.6116 61.1894 67.9149 65.8249 63.3358 69.4743L62.4037 70.1997H70.1997C71.1938 70.2008 72.1498 70.5815 72.8727 71.2638C73.5955 71.9462 74.0304 72.8788 74.0887 73.8712C74.1469 74.8635 73.8241 75.8406 73.1861 76.6029C72.5481 77.3651 71.6431 77.855 70.656 77.9724L70.1997 77.9997H38.9999C17.4602 77.9997 0 60.5395 0 38.9999C0 17.4602 17.4602 0 38.9999 0ZM38.9999 7.79997C30.7251 7.79997 22.7893 11.0871 16.9382 16.9382C11.0871 22.7893 7.79997 30.7251 7.79997 38.9999C7.79997 47.2746 11.0871 55.2104 16.9382 61.0615C22.7893 66.9126 30.7251 70.1997 38.9999 70.1997C47.2746 70.1997 55.2104 66.9126 61.0615 61.0615C66.9126 55.2104 70.1997 47.2746 70.1997 38.9999C70.1997 30.7251 66.9126 22.7893 61.0615 16.9382C55.2104 11.0871 47.2746 7.79997 38.9999 7.79997ZM38.9999 46.7998C41.0685 46.7998 43.0525 47.6216 44.5153 49.0844C45.978 50.5472 46.7998 52.5311 46.7998 54.5998C46.7998 56.6685 45.978 58.6524 44.5153 60.1152C43.0525 61.578 41.0685 62.3998 38.9999 62.3998C36.9312 62.3998 34.9472 61.578 33.4844 60.1152C32.0217 58.6524 31.1999 56.6685 31.1999 54.5998C31.1999 52.5311 32.0217 50.5472 33.4844 49.0844C34.9472 47.6216 36.9312 46.7998 38.9999 46.7998ZM23.3999 31.1999C25.4686 31.1999 27.4525 32.0217 28.9153 33.4844C30.3781 34.9472 31.1999 36.9312 31.1999 38.9999C31.1999 41.0685 30.3781 43.0525 28.9153 44.5153C27.4525 45.978 25.4686 46.7998 23.3999 46.7998C21.3312 46.7998 19.3473 45.978 17.8845 44.5153C16.4217 43.0525 15.5999 41.0685 15.5999 38.9999C15.5999 36.9312 16.4217 34.9472 17.8845 33.4844C19.3473 32.0217 21.3312 31.1999 23.3999 31.1999ZM54.5998 31.1999C56.6685 31.1999 58.6524 32.0217 60.1152 33.4844C61.578 34.9472 62.3998 36.9312 62.3998 38.9999C62.3998 41.0685 61.578 43.0525 60.1152 44.5153C58.6524 45.978 56.6685 46.7998 54.5998 46.7998C52.5311 46.7998 50.5472 45.978 49.0844 44.5153C47.6216 43.0525 46.7998 41.0685 46.7998 38.9999C46.7998 36.9312 47.6216 34.9472 49.0844 33.4844C50.5472 32.0217 52.5311 31.1999 54.5998 31.1999ZM38.9999 15.5999C41.0685 15.5999 43.0525 16.4217 44.5153 17.8845C45.978 19.3473 46.7998 21.3312 46.7998 23.3999C46.7998 25.4686 45.978 27.4525 44.5153 28.9153C43.0525 30.3781 41.0685 31.1999 38.9999 31.1999C36.9312 31.1999 34.9472 30.3781 33.4844 28.9153C32.0217 27.4525 31.1999 25.4686 31.1999 23.3999C31.1999 21.3312 32.0217 19.3473 33.4844 17.8845C34.9472 16.4217 36.9312 15.5999 38.9999 15.5999Z" fill="#AB31AA"/>
</svg>
